<?xml version="1.0" encoding="utf-8"?>
<!-- Generator: Adobe Illustrator 19.2.1, SVG Export Plug-In . SVG Version: 6.00 Build 0)  -->
<svg version="1.1" id="Layer_1" xmlns="http://www.w3.org/2000/svg" xmlns:xlink="http://www.w3.org/1999/xlink" x="0px" y="0px"
	 viewBox="0 0 518.2 280" style="enable-background:new 0 0 518.2 280;" xml:space="preserve">
<style type="text/css">
	.st0{fill:#E31837;}
	.st1{fill:#3C2B22;}
	.st2{fill:#A6CE39;}
	.st3{fill:#62801E;}
</style>
<path class="st0" d="M28.6,152.8c0,0.8,0.2,1.1,1.1,1.1h3.5c0.8,0,1.1-0.4,1.1-1.1v-2.6c0-4.9-3.2-9.2-13-9.2
	c-9.8,0-12.9,4.3-12.9,9.2v3.4c0,3.7,2.7,6.4,5.3,7.4l10.1,3.9c2.3,0.9,5,1.9,5,4.9v2.8c0,3.2-2.3,5.1-7.7,5.1
	c-5.4,0-7.7-1.9-7.7-5.1v-2.7c0-0.8-0.3-1.2-1.1-1.2H8.8c-0.8,0-1.1,0.4-1.1,1.2v3.5c0,4.9,3.5,9.2,13.5,9.2c10,0,13.4-4.3,13.4-9.2
	v-5c0-4.4-3-6.8-6.6-8.2l-10.9-4.1c-1.3-0.5-3.1-1.3-3.1-4v-1.2c0-3.2,2-5.1,7.3-5.1c5.3,0,7.3,1.9,7.3,5.1V152.8L28.6,152.8z
	 M58.8,181c0.1,0.8,0.3,1.1,1.1,1.1h3.2c0.8,0,1.1-0.3,1.1-1.1v-27.4c0-0.8-0.3-1.2-1.1-1.2h-3.5c-0.8,0-1.1,0.4-1.1,1.2v20.9
	c-1.3,1-4,3-7.8,3c-3.3,0-4.4-1.4-4.4-4v-20c0-0.8-0.4-1.2-1.1-1.2h-3.5c-0.8,0-1.1,0.4-1.1,1.2V175c0,4.4,2.9,7.6,8.5,7.6
	c4.9,0,8-2,9.6-3.4L58.8,181L58.8,181z M87.3,160.7c0,0.8,0.3,1.1,1,1.1h3.1c0.8,0,1.1-0.3,1.1-1.1v-1.4c0-3.7-2.8-7.4-10.9-7.4
	c-8.1,0-10.9,3.7-10.9,7.4v2.2c0,3,2.5,5.3,4.7,6.1l9,3.1c2,0.7,3.2,1.4,3.2,2.9v1.6c0,2.2-2.3,3.2-6.1,3.2c-3.8,0-6.1-1-6.1-3.2
	v-1.3c0-0.7-0.2-1.1-1-1.1h-3.2c-0.7,0-1,0.4-1,1.1v1.5c0,3.7,3.2,7.2,11.3,7.2c8.1,0,11.4-3.5,11.4-7.2v-3.4c0-2.8-2.1-4.7-5.4-5.9
	l-9-3.1c-1.1-0.4-2.5-1.2-2.5-2.8v-1c0-2.2,1.9-3.2,5.6-3.2c3.7,0,5.7,1,5.7,3.2V160.7L87.3,160.7z M105.6,152.5v-6.1
	c0-0.8-0.3-1.2-1.1-1.2H101c-0.8,0-1.1,0.4-1.1,1.2v6.1h-0.4l-2.9,0.2c-0.8,0.1-1.1,0.4-1.1,1.1v2.1c0,0.8,0.3,1.2,1.1,1.2h3.3v16.7
	c0,5.3,2.5,8.2,11,8.2h2c0.8,0,1.1-0.3,1.1-1.1v-2.5c0-0.8-0.4-1.2-1.1-1.2h-1.1c-4.5,0-6.1-1.4-6.1-4v-16.1h6.2
	c0.8,0,1.1-0.4,1.1-1.2v-2.4c0-0.8-0.4-1.1-1.1-1.1H105.6L105.6,152.5z M118.2,160.9c0,0.8,0.3,1.2,1.1,1.2h3.1
	c0.8,0,1.1-0.4,1.1-1.2v-0.5c0-2.5,1.4-3.9,5.9-3.9c4.6,0,5.8,1.6,5.8,4.1v4.6h-9.5c-5.6,0-8.3,3.4-8.3,7.3v2.9
	c0,3.9,2.9,7.3,8.5,7.3c4.6,0,7.7-2,9.5-3.4l0.1,1.7c0.1,0.8,0.3,1.2,1.1,1.2h3.1c0.8,0,1.1-0.4,1.1-1.2V160c0-4.8-2.9-8.1-11.3-8.1
	c-8.2,0-11.3,3.3-11.3,8.1V160.9L118.2,160.9z M127.4,177.9c-3,0-4.3-1-4.3-3.4v-1.2c0-2.3,1-3.7,4-3.7h8.3v5.2
	C134,175.9,131.1,177.9,127.4,177.9L127.4,177.9z M153.6,153.6c0-0.8-0.3-1.2-1.1-1.2H149c-0.8,0-1.1,0.4-1.1,1.2V181
	c0,0.8,0.3,1.2,1.1,1.2h3.5c0.8,0,1.1-0.4,1.1-1.2V153.6L153.6,153.6z M153.6,141.4c0-0.8-0.3-1.2-1.1-1.2H149
	c-0.8,0-1.1,0.4-1.1,1.2v5.4c0,0.8,0.3,1.1,1.1,1.1h3.5c0.8,0,1.1-0.4,1.1-1.1V141.4L153.6,141.4z M162.1,152.4
	c-0.8,0-1.1,0.4-1.1,1.1V181c0,0.8,0.3,1.2,1.1,1.2h3.5c0.8,0,1.1-0.4,1.1-1.2v-20.9c1.3-1,4.3-3.1,8.2-3.1c3.3,0,4.4,1.5,4.4,4v20
	c0,0.8,0.4,1.2,1.1,1.2h3.5c0.8,0,1.1-0.4,1.1-1.2v-21.4c0-4.4-2.9-7.7-8.5-7.7c-5,0-8.3,2.1-10,3.5l-0.1-1.9
	c-0.1-0.8-0.3-1.1-1.1-1.1H162.1L162.1,152.4z M191.6,160.9c0,0.8,0.3,1.2,1.1,1.2h3.1c0.8,0,1.1-0.4,1.1-1.2v-0.5
	c0-2.5,1.4-3.9,5.9-3.9c4.6,0,5.8,1.6,5.8,4.1v4.6h-9.5c-5.6,0-8.3,3.4-8.3,7.3v2.9c0,3.9,2.9,7.3,8.5,7.3c4.6,0,7.7-2,9.5-3.4
	l0.1,1.7c0.1,0.8,0.3,1.2,1.1,1.2h3.1c0.8,0,1.1-0.4,1.1-1.2V160c0-4.8-2.9-8.1-11.3-8.1c-8.2,0-11.3,3.3-11.3,8.1V160.9
	L191.6,160.9z M200.8,177.9c-3,0-4.3-1-4.3-3.4v-1.2c0-2.3,1-3.7,4-3.7h8.3v5.2C207.4,175.9,204.5,177.9,200.8,177.9L200.8,177.9z
	 M225.6,182.2c0.8,0,1.1-0.4,1.1-1.2l0.1-1.8c1.7,1.3,4.9,3.5,10,3.5c5.8,0,8.5-3.2,8.5-8.2v-14.4c0-4.9-2.6-8.2-8.5-8.2
	c-4.9,0-8.1,2.1-9.8,3.4v-13.9c0-0.8-0.3-1.2-1.1-1.2h-3.5c-0.8,0-1.1,0.4-1.1,1.2V181c0,0.8,0.3,1.2,1.1,1.2H225.6L225.6,182.2z
	 M239.6,173.6c0,2.1-1,3.9-4.4,3.9c-3.9,0-6.8-2.1-8.2-3.1v-14.2c1.3-1,4.3-3.1,8.2-3.1c3.4,0,4.4,1.8,4.4,3.9V173.6L239.6,173.6z
	 M257.7,153.6c0-0.8-0.3-1.2-1.1-1.2h-3.5c-0.8,0-1.1,0.4-1.1,1.2V181c0,0.8,0.3,1.2,1.1,1.2h3.5c0.8,0,1.1-0.4,1.1-1.2V153.6
	L257.7,153.6z M257.7,141.4c0-0.8-0.3-1.2-1.1-1.2h-3.5c-0.8,0-1.1,0.4-1.1,1.2v5.4c0,0.8,0.3,1.1,1.1,1.1h3.5
	c0.8,0,1.1-0.4,1.1-1.1V141.4L257.7,141.4z M270.7,141.4c0-0.8-0.3-1.2-1.1-1.2h-3.5c-0.8,0-1.1,0.4-1.1,1.2V181
	c0,0.8,0.3,1.2,1.1,1.2h3.5c0.8,0,1.1-0.4,1.1-1.2V141.4L270.7,141.4z M283.7,153.6c0-0.8-0.3-1.2-1.1-1.2h-3.5
	c-0.8,0-1.1,0.4-1.1,1.2V181c0,0.8,0.3,1.2,1.1,1.2h3.5c0.8,0,1.1-0.4,1.1-1.2V153.6L283.7,153.6z M283.7,141.4
	c0-0.8-0.3-1.2-1.1-1.2h-3.5c-0.8,0-1.1,0.4-1.1,1.2v5.4c0,0.8,0.3,1.1,1.1,1.1h3.5c0.8,0,1.1-0.4,1.1-1.1V141.4L283.7,141.4z
	 M298.2,152.5v-6.1c0-0.8-0.3-1.2-1.1-1.2h-3.5c-0.8,0-1.1,0.4-1.1,1.2v6.1h-0.4l-2.9,0.2c-0.8,0.1-1.1,0.4-1.1,1.1v2.1
	c0,0.8,0.3,1.2,1.1,1.2h3.3v16.7c0,5.3,2.5,8.2,11,8.2h2c0.8,0,1.1-0.3,1.1-1.1v-2.5c0-0.8-0.4-1.2-1.1-1.2h-1.1
	c-4.5,0-6.1-1.4-6.1-4v-16.1h6.2c0.8,0,1.1-0.4,1.1-1.2v-2.4c0-0.8-0.4-1.1-1.1-1.1H298.2L298.2,152.5z M313.7,153.6
	c-0.2-0.7-0.5-1.2-1.3-1.2h-3.5c-0.8,0-1.3,0.4-1,1.2l10.1,29l-3.4,10.6c-0.2,0.8,0.2,1.1,1.1,1.1h2.6c0.8,0,1.1-0.5,1.3-1.1
	l13.6-39.7c0.2-0.8-0.2-1.2-1-1.2h-3.2c-0.8,0-1.1,0.4-1.3,1.2l-5.9,17.5c-0.5,1.6-1,3.7-1.1,4c-0.1-0.2-0.4-2.5-0.9-4.1
	L313.7,153.6L313.7,153.6z M354.9,142.6c0-0.8-0.2-1.2-1.1-1.2h-3.7c-0.8,0-1.1,0.4-1.1,1.2V181c0,0.8,0.3,1.2,1.1,1.2h3.7
	c0.8,0,1.1-0.4,1.1-1.2V142.6L354.9,142.6z M364.1,152.4c-0.8,0-1.1,0.4-1.1,1.1V181c0,0.8,0.3,1.2,1.1,1.2h3.5
	c0.8,0,1.1-0.4,1.1-1.2v-20.9c1.3-1,4.3-3.1,8.2-3.1c3.3,0,4.4,1.5,4.4,4v20c0,0.8,0.4,1.2,1.1,1.2h3.5c0.8,0,1.1-0.4,1.1-1.2v-21.4
	c0-4.4-2.9-7.7-8.5-7.7c-5,0-8.3,2.1-10,3.5l-0.1-1.9c-0.1-0.8-0.3-1.1-1.1-1.1H364.1L364.1,152.4z M411.8,181
	c0.1,0.8,0.3,1.2,1.1,1.2h3.2c0.8,0,1.1-0.4,1.1-1.2v-39.6c0-0.8-0.3-1.2-1.1-1.2h-3.5c-0.8,0-1.1,0.4-1.1,1.2v13.9
	c-1.8-1.3-5-3.4-9.8-3.4c-5.8,0-8.5,3.2-8.5,8.2v14.4c0,4.9,2.6,8.2,8.5,8.2c5,0,8.2-2.2,10-3.5L411.8,181L411.8,181z M398.9,161
	c0-2.1,1-3.9,4.4-3.9c3.8,0,6.8,2.1,8.2,3.1v14.2c-1.3,1-4.4,3.1-8.2,3.1c-3.4,0-4.4-1.8-4.4-3.9V161L398.9,161z M430.3,153.6
	c0-0.8-0.3-1.2-1.1-1.2h-3.5c-0.8,0-1.1,0.4-1.1,1.2V181c0,0.8,0.3,1.2,1.1,1.2h3.5c0.8,0,1.1-0.4,1.1-1.2V153.6L430.3,153.6z
	 M430.3,141.4c0-0.8-0.3-1.2-1.1-1.2h-3.5c-0.8,0-1.1,0.4-1.1,1.2v5.4c0,0.8,0.3,1.1,1.1,1.1h3.5c0.8,0,1.1-0.4,1.1-1.1V141.4
	L430.3,141.4z M448.4,151.9c-8.5,0-11.5,3.3-11.5,8.2v14.3c0,4.9,3,8.2,11.5,8.2c8.5,0,11.5-3.3,11.5-8.2v-1.6
	c0-0.8-0.3-1.1-1.1-1.1h-3.2c-0.8,0-1.1,0.4-1.1,1.1v1.2c0,2.5-1.4,4-5.9,4c-4.5,0-5.9-1.4-5.9-4v-13.4c0-2.5,1.4-4,5.9-4
	c4.6,0,5.9,1.4,5.9,4v0.7c0,0.8,0.3,1.1,1.1,1.1h3.2c0.8,0,1.1-0.3,1.1-1.1v-1.1C459.9,155.2,456.9,151.9,448.4,151.9L448.4,151.9z
	 M487.7,160.1c0-4.9-2.9-8.2-11.3-8.2c-8.5,0-11.6,3.3-11.6,8.2v14.3c0,4.9,2.9,8.2,11.5,8.2c8.5,0,11.5-3.3,11.5-8.2v-1
	c0-0.8-0.4-1.1-1.1-1.1h-3.1c-0.8,0-1.1,0.4-1.1,1.1v0.7c0,2.5-1.2,4-6,4c-4.8,0-6-1.6-6-4v-5.5h16.3c0.7,0,1-0.4,1-1.1V160.1
	L487.7,160.1z M470.4,160.5c0-2.4,1.4-4,6-4c4.5,0,6,1.6,6,4v3.8h-12V160.5L470.4,160.5z M509.7,160.7c0,0.8,0.3,1.1,1,1.1h3.1
	c0.8,0,1.1-0.3,1.1-1.1v-1.4c0-3.7-2.8-7.4-10.9-7.4c-8.1,0-10.9,3.7-10.9,7.4v2.2c0,3,2.5,5.3,4.7,6.1l9,3.1c2,0.7,3.2,1.4,3.2,2.9
	v1.6c0,2.2-2.3,3.2-6.1,3.2c-3.8,0-6.1-1-6.1-3.2v-1.3c0-0.7-0.2-1.1-1-1.1h-3.2c-0.7,0-1,0.4-1,1.1v1.5c0,3.7,3.2,7.2,11.3,7.2
	c8.1,0,11.4-3.5,11.4-7.2v-3.4c0-2.8-2.1-4.7-5.4-5.9l-9-3.1c-1.1-0.4-2.5-1.2-2.5-2.8v-1c0-2.2,1.9-3.2,5.6-3.2
	c3.7,0,5.7,1,5.7,3.2V160.7L509.7,160.7z"/>
<path class="st0" d="M22.5,130.5c10.3,0,13.7-4.3,13.7-9.2V98.9c0-4.9-3.4-9.2-13.7-9.2H10c-0.8,0-1.1,0.4-1.1,1.2v38.4
	c0,0.8,0.2,1.2,1,1.2H22.5L22.5,130.5z M22.5,94.7c5.4,0,7.8,2,7.8,5.2v20.4c0,3.2-2.4,5.2-7.8,5.2h-7.8V94.7H22.5L22.5,94.7z
	 M41.7,122.7c0,4.9,3.5,8.2,12,8.2c8.5,0,12-3.3,12-8.2v-14.3c0-4.9-3.5-8.2-12-8.2c-8.5,0-12,3.3-12,8.2V122.7L41.7,122.7z
	 M60,122.3c0,2.6-1.8,4-6.3,4c-4.5,0-6.3-1.4-6.3-4v-13.3c0-2.6,1.8-4,6.3-4c4.5,0,6.3,1.4,6.3,4V122.3L60,122.3z M107.7,101.9
	c0.2-0.8-0.2-1.2-1-1.2h-2.9c-0.8,0-1.1,0.5-1.3,1.2l-5,18.7c-0.2,0.8-0.6,2.4-0.6,2.6c-0.1-0.2-0.2-1.1-0.5-2.6l-4.7-18.7
	c-0.2-0.7-0.5-1.2-1.3-1.2H87c-0.8,0-1.1,0.5-1.3,1.2l-5.2,18.7l-0.7,2.7c-0.1-0.2-0.2-1.7-0.5-2.7l-5-18.7
	c-0.2-0.7-0.5-1.2-1.3-1.2h-3.4c-0.8,0-1.3,0.4-1.1,1.2l7.4,27.5c0.2,0.8,0.4,1.1,1.2,1.1h4.1c0.8,0,1-0.4,1.1-1.1l5.1-17.7l0.7-3
	c0,0.3,0.3,2,0.6,3l4.5,17.7c0.2,0.7,0.4,1.1,1.2,1.1h4.1c0.8,0,1-0.3,1.2-1.1L107.7,101.9L107.7,101.9z M123.7,118.7
	c0-0.8-0.2-1.2-1.1-1.2h-3.5c-0.8,0-1.1,0.4-1.1,1.2v3.1c0,4.9,2.7,9.2,12.2,9.2c9.5,0,12.1-4.3,12.1-9.2V90.9
	c0-0.8-0.3-1.2-1.1-1.2h-3.7c-0.8,0-1.1,0.4-1.1,1.2v29.9c0,3.2-1.4,5.2-6.2,5.2c-4.8,0-6.4-2-6.4-5.2V118.7L123.7,118.7z
	 M148,122.7c0,4.9,3.5,8.2,12,8.2c8.5,0,12-3.3,12-8.2v-14.3c0-4.9-3.5-8.2-12-8.2c-8.5,0-12,3.3-12,8.2V122.7L148,122.7z
	 M166.3,122.3c0,2.6-1.8,4-6.3,4c-4.5,0-6.3-1.4-6.3-4v-13.3c0-2.6,1.8-4,6.3-4c4.5,0,6.3,1.4,6.3,4V122.3L166.3,122.3z
	 M179.8,100.7c-0.8,0-1.1,0.4-1.1,1.1v27.4c0,0.8,0.3,1.2,1.1,1.2h3.5c0.8,0,1.1-0.4,1.1-1.2v-20.9c1.3-1,4.3-3.1,8.2-3.1
	c3.3,0,4.4,1.5,4.4,4v20c0,0.8,0.4,1.2,1.1,1.2h3.5c0.8,0,1.1-0.4,1.1-1.2v-21.4c0-4.4-2.9-7.7-8.5-7.7c-5,0-8.3,2.1-10,3.5
	l-0.1-1.9c-0.1-0.8-0.3-1.1-1.1-1.1H179.8L179.8,100.7z M231.9,108.5c0-4.9-2.9-8.2-11.3-8.2c-8.5,0-11.6,3.3-11.6,8.2v14.3
	c0,4.9,2.9,8.2,11.5,8.2c8.5,0,11.5-3.3,11.5-8.2v-1c0-0.8-0.4-1.1-1.1-1.1h-3.1c-0.8,0-1.1,0.4-1.1,1.1v0.7c0,2.5-1.2,4-6,4
	c-4.8,0-6-1.6-6-4v-5.5h16.3c0.7,0,1-0.4,1-1.1V108.5L231.9,108.5z M214.5,108.8c0-2.4,1.4-4,6-4c4.5,0,6,1.6,6,4v3.8h-12V108.8
	L214.5,108.8z M253.8,109.1c0,0.8,0.3,1.1,1,1.1h3.1c0.8,0,1.1-0.3,1.1-1.1v-1.4c0-3.7-2.8-7.4-10.9-7.4c-8.1,0-10.9,3.7-10.9,7.4
	v2.2c0,3,2.5,5.3,4.7,6.1l9,3.1c2,0.7,3.2,1.4,3.2,2.9v1.6c0,2.2-2.3,3.2-6.1,3.2c-3.8,0-6.1-1-6.1-3.2v-1.3c0-0.7-0.2-1.1-1-1.1
	h-3.2c-0.7,0-1,0.4-1,1.1v1.5c0,3.7,3.2,7.2,11.3,7.2c8.1,0,11.4-3.5,11.4-7.2v-3.4c0-2.8-2.1-4.7-5.4-5.9l-9-3.1
	c-1.1-0.4-2.5-1.2-2.5-2.8v-1c0-2.2,1.9-3.2,5.6-3.2c3.7,0,5.7,1,5.7,3.2V109.1L253.8,109.1z"/>
<path d="M11.4,207.9c0-0.3-0.1-0.5-0.5-0.5H9.5c-0.3,0-0.5,0.2-0.5,0.5v21.9c0,0.3,0.1,0.5,0.5,0.5h1.4c0.4,0,0.5-0.2,0.5-0.5V207.9
	L11.4,207.9z M18.9,213.7h-1.2c-0.4,0-0.5,0.2-0.5,0.5v15.7c0,0.3,0.1,0.5,0.5,0.5H19c0.3,0,0.5-0.2,0.5-0.5v-12.5
	c0.8-0.6,2.6-1.9,5.1-1.9c2.2,0,3,1,3,2.6v11.8c0,0.3,0.2,0.5,0.5,0.5h1.4c0.3,0,0.5-0.2,0.5-0.5v-12.3c0-2.4-1.5-4.2-4.7-4.2
	c-2.9,0-4.8,1.3-5.8,2.1l-0.1-1.3C19.4,213.9,19.2,213.7,18.9,213.7L18.9,213.7z M56.8,223.6c0-0.3-0.1-0.5-0.5-0.5H55
	c-0.4,0-0.5,0.2-0.5,0.5v1.8c0,2-1.2,3.2-4.8,3.2c-3.6,0-4.8-1.3-4.8-3.2v-12.9c0-2,1.2-3.2,4.8-3.2c3.6,0,4.8,1.3,4.8,3.2v1.3
	c0,0.4,0.1,0.5,0.5,0.5h1.4c0.3,0,0.5-0.2,0.5-0.5v-1.7c0-2.7-1.6-4.9-7.1-4.9c-5.6,0-7.1,2.2-7.1,4.9v13.6c0,2.7,1.6,4.9,7.1,4.9
	c5.6,0,7.1-2.2,7.1-4.9V223.6L56.8,223.6z M60.8,226.3c0,2.6,1.7,4.4,6.3,4.4c4.6,0,6.4-1.8,6.4-4.4v-8.5c0-2.6-1.8-4.4-6.4-4.4
	c-4.6,0-6.3,1.8-6.3,4.4V226.3L60.8,226.3z M71.2,226.1c0,1.6-1,2.6-4.1,2.6c-3,0-4-1-4-2.6v-8.2c0-1.6,1-2.6,4-2.6
	c3,0,4.1,1,4.1,2.6V226.1L71.2,226.1z M80.9,207.3c0-0.3-0.1-0.5-0.5-0.5H79c-0.4,0-0.5,0.2-0.5,0.5v22.6c0,0.3,0.1,0.5,0.5,0.5h1.4
	c0.3,0,0.5-0.2,0.5-0.5V207.3L80.9,207.3z M88.6,207.3c0-0.3-0.1-0.5-0.5-0.5h-1.4c-0.4,0-0.5,0.2-0.5,0.5v22.6
	c0,0.3,0.1,0.5,0.5,0.5h1.4c0.3,0,0.5-0.2,0.5-0.5V207.3L88.6,207.3z M93.7,218.3c0,0.4,0.1,0.5,0.5,0.5h1.2c0.4,0,0.5-0.2,0.5-0.5
	v-0.4c0-1.5,0.8-2.5,3.8-2.5c3,0,3.8,1.1,3.8,2.6v3h-5.8c-2.9,0-4.4,1.8-4.4,4v1.7c0,2.2,1.5,4,4.7,4c2.7,0,4.6-1.2,5.6-2l0.1,1.2
	c0,0.3,0.1,0.5,0.5,0.5h1.2c0.3,0,0.5-0.2,0.5-0.5v-12.2c0-2.5-1.5-4.3-6.1-4.3c-4.6,0-6.1,1.8-6.1,4.3V218.3L93.7,218.3z
	 M98.5,228.7c-2,0-2.9-0.8-2.9-2.3v-1.1c0-1.5,0.7-2.4,2.6-2.4h5.4v3.9C102.8,227.4,101,228.7,98.5,228.7L98.5,228.7z M112.7,230.4
	c0.4,0,0.5-0.2,0.5-0.5l0.1-1.3c0.9,0.8,2.9,2,5.8,2c3.2,0,4.7-1.8,4.7-4.3v-8.6c0-2.6-1.5-4.3-4.7-4.3c-2.9,0-4.8,1.3-5.7,2v-8.1
	c0-0.3-0.1-0.5-0.5-0.5h-1.4c-0.4,0-0.5,0.2-0.5,0.5v22.6c0,0.3,0.1,0.5,0.5,0.5H112.7L112.7,230.4z M121.4,226c0,1.4-0.8,2.5-3,2.5
	c-2.5,0-4.3-1.3-5.1-1.9v-9.1c0.8-0.6,2.6-1.9,5.1-1.9c2.2,0,3,1.1,3,2.5V226L121.4,226z M128.3,226.3c0,2.6,1.7,4.4,6.3,4.4
	c4.6,0,6.4-1.8,6.4-4.4v-8.5c0-2.6-1.8-4.4-6.4-4.4c-4.6,0-6.3,1.8-6.3,4.4V226.3L128.3,226.3z M138.7,226.1c0,1.6-1,2.6-4.1,2.6
	c-3,0-4-1-4-2.6v-8.2c0-1.6,1-2.6,4-2.6c3,0,4.1,1,4.1,2.6V226.1L138.7,226.1z M153.8,213.4c-2.5,0-4.6,1.6-5.5,2.4l-0.1-1.7
	c0-0.3-0.1-0.5-0.5-0.5h-1.2c-0.4,0-0.5,0.2-0.5,0.5v15.7c0,0.3,0.1,0.5,0.5,0.5h1.4c0.3,0,0.5-0.2,0.5-0.5v-12.1
	c0.8-0.7,3-2.2,5.5-2.3c0.3,0,0.5-0.2,0.5-0.5v-1.1C154.3,213.6,154.1,213.4,153.8,213.4L153.8,213.4z M157.4,218.3
	c0,0.4,0.1,0.5,0.5,0.5h1.2c0.4,0,0.5-0.2,0.5-0.5v-0.4c0-1.5,0.8-2.5,3.8-2.5c3,0,3.8,1.1,3.8,2.6v3h-5.8c-2.9,0-4.4,1.8-4.4,4v1.7
	c0,2.2,1.5,4,4.7,4c2.7,0,4.6-1.2,5.6-2l0.1,1.2c0,0.3,0.1,0.5,0.5,0.5h1.2c0.3,0,0.5-0.2,0.5-0.5v-12.2c0-2.5-1.5-4.3-6.1-4.3
	c-4.6,0-6.1,1.8-6.1,4.3V218.3L157.4,218.3z M162.2,228.7c-2,0-2.9-0.8-2.9-2.3v-1.1c0-1.5,0.7-2.4,2.6-2.4h5.4v3.9
	C166.5,227.4,164.7,228.7,162.2,228.7L162.2,228.7z M177.7,213.8v-3.6c0-0.3-0.1-0.5-0.5-0.5h-1.4c-0.3,0-0.5,0.2-0.5,0.5v3.6h-0.3
	l-1.8,0.1c-0.3,0-0.5,0.2-0.5,0.5v0.8c0,0.3,0.1,0.5,0.5,0.5h2V226c0,2.7,1.4,4.4,6,4.4h0.9c0.3,0,0.5-0.1,0.5-0.5v-1
	c0-0.4-0.2-0.5-0.5-0.5h-0.6c-3,0-3.9-1-3.9-2.6v-10.1h3.8c0.3,0,0.5-0.2,0.5-0.5v-0.9c0-0.3-0.2-0.5-0.5-0.5H177.7L177.7,213.8z
	 M188.7,214.2c0-0.3-0.1-0.5-0.5-0.5h-1.4c-0.4,0-0.5,0.2-0.5,0.5v15.7c0,0.3,0.1,0.5,0.5,0.5h1.4c0.3,0,0.5-0.2,0.5-0.5V214.2
	L188.7,214.2z M188.7,207.3c0-0.3-0.1-0.5-0.5-0.5h-1.4c-0.4,0-0.5,0.2-0.5,0.5v3.1c0,0.3,0.1,0.5,0.5,0.5h1.4
	c0.3,0,0.5-0.2,0.5-0.5V207.3L188.7,207.3z M193.7,226.3c0,2.6,1.7,4.4,6.3,4.4c4.6,0,6.4-1.8,6.4-4.4v-8.5c0-2.6-1.8-4.4-6.4-4.4
	c-4.6,0-6.3,1.8-6.3,4.4V226.3L193.7,226.3z M204.1,226.1c0,1.6-1,2.6-4.1,2.6c-3,0-4-1-4-2.6v-8.2c0-1.6,1-2.6,4-2.6
	c3,0,4.1,1,4.1,2.6V226.1L204.1,226.1z M213.1,213.7h-1.2c-0.4,0-0.5,0.2-0.5,0.5v15.7c0,0.3,0.1,0.5,0.5,0.5h1.3
	c0.3,0,0.5-0.2,0.5-0.5v-12.5c0.8-0.6,2.6-1.9,5.1-1.9c2.2,0,3,1,3,2.6v11.8c0,0.3,0.2,0.5,0.5,0.5h1.4c0.3,0,0.5-0.2,0.5-0.5v-12.3
	c0-2.4-1.5-4.2-4.7-4.2c-2.9,0-4.8,1.3-5.8,2.1l-0.1-1.3C213.6,213.9,213.5,213.7,213.1,213.7L213.1,213.7z M255.7,214.2
	c0.1-0.3-0.1-0.5-0.4-0.5h-1.1c-0.3,0-0.5,0.2-0.6,0.5l-3.1,11.7c-0.2,0.7-0.3,1.2-0.3,1.3l-0.3-1.3l-3-11.7
	c-0.1-0.3-0.2-0.5-0.5-0.5h-1.5c-0.3,0-0.5,0.2-0.6,0.5l-3.2,11.7c-0.2,0.6-0.3,1.2-0.3,1.4c0-0.1-0.1-0.8-0.3-1.4l-3.2-11.7
	c-0.1-0.3-0.2-0.5-0.5-0.5h-1.4c-0.4,0-0.6,0.2-0.5,0.5l4.3,15.7c0.1,0.3,0.2,0.5,0.5,0.5h1.6c0.3,0,0.4-0.2,0.5-0.5l3.2-11.4
	l0.4-1.6c0,0.2,0.2,1,0.3,1.6l3,11.4c0.1,0.3,0.2,0.5,0.5,0.5h1.6c0.3,0,0.4-0.1,0.5-0.5L255.7,214.2L255.7,214.2z M261.3,214.2
	c0-0.3-0.1-0.5-0.5-0.5h-1.4c-0.4,0-0.5,0.2-0.5,0.5v15.7c0,0.3,0.1,0.5,0.5,0.5h1.4c0.3,0,0.5-0.2,0.5-0.5V214.2L261.3,214.2z
	 M261.3,207.3c0-0.3-0.1-0.5-0.5-0.5h-1.4c-0.4,0-0.5,0.2-0.5,0.5v3.1c0,0.3,0.1,0.5,0.5,0.5h1.4c0.3,0,0.5-0.2,0.5-0.5V207.3
	L261.3,207.3z M269.7,213.8v-3.6c0-0.3-0.1-0.5-0.5-0.5h-1.4c-0.3,0-0.5,0.2-0.5,0.5v3.6h-0.3l-1.8,0.1c-0.3,0-0.5,0.2-0.5,0.5v0.8
	c0,0.3,0.1,0.5,0.5,0.5h2V226c0,2.7,1.3,4.4,6,4.4h0.9c0.3,0,0.5-0.1,0.5-0.5v-1c0-0.4-0.2-0.5-0.5-0.5h-0.6c-3,0-3.9-1-3.9-2.6
	v-10.1h3.8c0.3,0,0.5-0.2,0.5-0.5v-0.9c0-0.3-0.2-0.5-0.5-0.5H269.7L269.7,213.8z M280.7,207.3c0-0.3-0.1-0.5-0.5-0.5h-1.3
	c-0.4,0-0.5,0.2-0.5,0.5v22.6c0,0.3,0.1,0.5,0.5,0.5h1.3c0.3,0,0.5-0.2,0.5-0.5v-12.5c0.8-0.6,2.6-1.9,5.1-1.9c2.2,0,3,1,3,2.6v11.8
	c0,0.3,0.2,0.5,0.5,0.5h1.3c0.3,0,0.5-0.2,0.5-0.5v-12.3c0-2.4-1.5-4.2-4.7-4.2c-2.8,0-4.8,1.2-5.7,2V207.3L280.7,207.3z
	 M311.4,221.3h0.6l3.8,8.4c0.2,0.4,0.3,0.7,0.7,0.7h2c0.5,0,0.8-0.3,0.6-0.7l-4-8.8c2.9-0.8,4-2.7,4-4.7v-3.5c0-2.8-1.9-5.2-7.7-5.2
	h-6.9c-0.4,0-0.6,0.2-0.6,0.7v21.6c0,0.5,0.2,0.7,0.6,0.7h2.1c0.5,0,0.6-0.2,0.6-0.7v-8.4H311.4L311.4,221.3z M311.4,210.2
	c3,0,4.4,1.1,4.4,2.9v2.4c0,1.9-1.4,2.9-4.4,2.9h-4.2v-8.3H311.4L311.4,210.2z M323,226c0,2.8,2,4.6,6.8,4.6c4.8,0,6.8-1.9,6.8-4.6
	v-8c0-2.8-2-4.6-6.8-4.6c-4.8,0-6.8,1.9-6.8,4.6V226L323,226z M333.3,225.7c0,1.5-1,2.3-3.5,2.3c-2.5,0-3.5-0.8-3.5-2.3v-7.5
	c0-1.5,1-2.3,3.5-2.3c2.5,0,3.5,0.8,3.5,2.3V225.7L333.3,225.7z M343.3,230.4c0.5,0,0.6-0.2,0.6-0.7l0.1-1c0.9,0.7,2.8,2,5.6,2
	c3.3,0,4.8-1.8,4.8-4.6v-8.1c0-2.8-1.5-4.6-4.8-4.6c-2.8,0-4.6,1.2-5.5,1.9v-7.8c0-0.5-0.2-0.7-0.6-0.7h-2c-0.5,0-0.6,0.2-0.6,0.7
	v22.2c0,0.5,0.2,0.7,0.6,0.7H343.3L343.3,230.4z M351.2,225.5c0,1.2-0.6,2.2-2.5,2.2c-2.2,0-3.8-1.2-4.6-1.7v-8
	c0.7-0.6,2.4-1.8,4.6-1.8c1.9,0,2.5,1,2.5,2.2V225.5L351.2,225.5z M371.3,218c0-2.8-1.6-4.6-6.4-4.6c-4.8,0-6.5,1.9-6.5,4.6v8
	c0,2.8,1.7,4.6,6.4,4.6c4.8,0,6.4-1.9,6.4-4.6v-0.6c0-0.4-0.2-0.6-0.6-0.6H369c-0.5,0-0.6,0.2-0.6,0.6v0.4c0,1.4-0.7,2.3-3.4,2.3
	c-2.7,0-3.4-0.9-3.4-2.3v-3.1h9.2c0.4,0,0.6-0.2,0.6-0.6V218L371.3,218z M361.6,218.2c0-1.4,0.8-2.3,3.4-2.3c2.5,0,3.4,0.9,3.4,2.3
	v2.1h-6.8V218.2L361.6,218.2z M381.6,213.4c-4.8,0-6.5,1.9-6.5,4.6v8c0,2.8,1.7,4.6,6.4,4.6c4.8,0,6.5-1.9,6.5-4.6v-0.9
	c0-0.4-0.2-0.6-0.6-0.6h-1.8c-0.5,0-0.6,0.2-0.6,0.6v0.7c0,1.4-0.8,2.2-3.3,2.2c-2.5,0-3.3-0.8-3.3-2.2v-7.6c0-1.4,0.8-2.2,3.3-2.2
	c2.6,0,3.3,0.8,3.3,2.2v0.4c0,0.5,0.2,0.6,0.6,0.6h1.8c0.4,0,0.6-0.2,0.6-0.6V218C388.1,215.2,386.4,213.4,381.6,213.4L381.6,213.4z
	 M391.5,226c0,2.8,2,4.6,6.8,4.6c4.8,0,6.8-1.9,6.8-4.6v-8c0-2.8-2-4.6-6.8-4.6c-4.8,0-6.8,1.9-6.8,4.6V226L391.5,226z M401.8,225.7
	c0,1.5-1,2.3-3.5,2.3c-2.5,0-3.5-0.8-3.5-2.3v-7.5c0-1.5,1-2.3,3.5-2.3c2.5,0,3.5,0.8,3.5,2.3V225.7L401.8,225.7z M420.9,213.8
	c0,0.4,0.1,0.6,0.6,0.6h2c0.4,0,0.6-0.2,0.6-0.6v-1.5c0-2.8-1.8-5.2-7.3-5.2c-5.5,0-7.3,2.4-7.3,5.2v1.9c0,2.1,1.5,3.6,3,4.2
	l5.7,2.2c1.3,0.5,2.8,1.1,2.8,2.8v1.6c0,1.8-1.3,2.9-4.4,2.9c-3,0-4.3-1-4.3-2.9v-1.5c0-0.5-0.2-0.7-0.6-0.7h-2
	c-0.4,0-0.6,0.2-0.6,0.7v2c0,2.8,2,5.2,7.6,5.2c5.6,0,7.6-2.4,7.6-5.2v-2.8c0-2.5-1.7-3.8-3.7-4.6l-6.1-2.3
	c-0.7-0.3-1.7-0.7-1.7-2.3v-0.7c0-1.8,1.1-2.9,4.1-2.9c3,0,4.1,1,4.1,2.9V213.8L420.9,213.8z M434.2,207.4c-0.4,0-0.7,0.2-0.8,0.6
	l-6.5,21.7c-0.1,0.4,0,0.6,0.5,0.6h2c0.4,0,0.6-0.2,0.7-0.6l1.6-5.2h7.1l1.6,5.2c0.1,0.4,0.3,0.6,0.7,0.6h2.1c0.5,0,0.6-0.2,0.5-0.6
	l-6.6-21.7c-0.1-0.4-0.4-0.6-0.8-0.6H434.2L434.2,207.4z M438,221.9h-5.7l1.9-6.2c0.4-1.4,0.9-4.6,0.9-4.9c0,0.4,0.5,3.7,0.9,4.9
	L438,221.9L438,221.9z M466.4,208.1c0-0.4-0.2-0.6-0.6-0.6h-2c-0.3,0-0.5,0.1-0.6,0.3l-5.7,13.7c-0.2,0.6-0.7,1.9-0.7,2
	c0-0.1-0.5-1.5-0.7-2l-5.8-13.6c-0.1-0.2-0.3-0.4-0.6-0.4h-1.9c-0.4,0-0.6,0.2-0.6,0.6v21.7c0,0.4,0.2,0.6,0.6,0.6h1.9
	c0.4,0,0.6-0.2,0.6-0.6v-15.4c0,0.1,0.3,1.3,0.6,2l4.2,9.9c0.2,0.4,0.4,0.7,0.8,0.7h1.8c0.4,0,0.7-0.2,0.8-0.7l3.9-9.5
	c0.3-0.8,0.7-2.3,0.8-2.5v15.5c0,0.4,0.2,0.6,0.6,0.6h2c0.4,0,0.6-0.2,0.6-0.6V208.1L466.4,208.1z"/>
<path d="M21.5,61.5c0-0.4-0.1-0.5-0.5-0.5h-1.8c-0.3,0-0.4,0.1-0.5,0.3l-3.1,7.5c-0.3,0.6-0.6,1.5-0.6,1.5s-0.3-0.9-0.5-1.5
	l-3.2-7.4c-0.1-0.2-0.2-0.3-0.5-0.3H9.2c-0.4,0-0.5,0.2-0.5,0.5v13.3c0,0.4,0.1,0.5,0.5,0.5h1.7c0.4,0,0.5-0.2,0.5-0.5v-8
	c0,0.1,0.3,1.1,0.5,1.6l1.8,4.3c0.1,0.3,0.3,0.5,0.7,0.5h1.5c0.4,0,0.5-0.2,0.7-0.5l1.6-3.9c0.2-0.6,0.6-1.9,0.6-1.9v8
	c0,0.4,0.1,0.5,0.5,0.5H21c0.4,0,0.5-0.2,0.5-0.5V61.5L21.5,61.5z M36.9,75.3c0.4,0,0.5-0.1,0.5-0.5v-1.3c0-0.4-0.1-0.5-0.5-0.5
	h-5.1V69h4.5c0.4,0,0.6-0.1,0.6-0.5v-1.3c0-0.4-0.2-0.5-0.6-0.5h-4.5v-3.4h4.9c0.4,0,0.5-0.1,0.5-0.5v-1.3c0-0.4-0.2-0.5-0.5-0.5
	h-7.2c-0.4,0-0.5,0.2-0.5,0.5v13.3c0,0.4,0.1,0.5,0.5,0.5H36.9L36.9,75.3z M57,61.5c0-0.4-0.1-0.5-0.5-0.5h-1.8
	c-0.3,0-0.4,0.1-0.5,0.3l-3.1,7.5c-0.3,0.6-0.6,1.5-0.6,1.5s-0.3-0.9-0.5-1.5l-3.2-7.4c-0.1-0.2-0.2-0.3-0.5-0.3h-1.7
	c-0.4,0-0.5,0.2-0.5,0.5v13.3c0,0.4,0.1,0.5,0.5,0.5h1.7c0.4,0,0.5-0.2,0.5-0.5v-8c0,0.1,0.3,1.1,0.5,1.6l1.8,4.3
	c0.1,0.3,0.3,0.5,0.7,0.5h1.5c0.4,0,0.6-0.2,0.7-0.5l1.6-3.9c0.2-0.6,0.6-1.9,0.6-1.9v8c0,0.4,0.1,0.5,0.5,0.5h1.8
	c0.4,0,0.5-0.2,0.5-0.5V61.5L57,61.5z M69.5,75.3c3.8,0,5.1-1.6,5.1-3.3v-1.7c0-1.2-0.8-2.1-2.2-2.6c1.1-0.5,1.6-1.3,1.6-2.4v-1.3
	c0-1.8-1.3-3.2-5.1-3.2h-3.9c-0.4,0-0.5,0.2-0.5,0.5v13.3c0,0.4,0.1,0.5,0.5,0.5H69.5L69.5,75.3z M69.5,69.1c1.4,0,2.3,0.6,2.3,1.5
	v1c0,1.1-0.9,1.6-2.3,1.6h-2.2v-4H69.5L69.5,69.1z M68.8,63.2c1.4,0,2.3,0.3,2.3,1.4v0.7c0,1.1-0.9,1.6-2.2,1.6h-1.6v-3.7H68.8
	L68.8,63.2z M89.4,75.3c0.4,0,0.5-0.1,0.5-0.5v-1.3c0-0.4-0.1-0.5-0.5-0.5h-5.1V69h4.5c0.4,0,0.5-0.1,0.5-0.5v-1.3
	c0-0.4-0.2-0.5-0.5-0.5h-4.5v-3.4h4.9c0.4,0,0.5-0.1,0.5-0.5v-1.3c0-0.4-0.2-0.5-0.5-0.5H82c-0.4,0-0.5,0.2-0.5,0.5v13.3
	c0,0.4,0.1,0.5,0.5,0.5H89.4L89.4,75.3z M101.7,69.9h0.1l2.1,4.9c0.1,0.3,0.2,0.5,0.5,0.5h1.9c0.4,0,0.6-0.2,0.5-0.5l-2.3-5.3
	c1.7-0.6,2.3-1.8,2.3-3v-2c0-1.8-1.3-3.4-5.1-3.4h-4.4c-0.4,0-0.5,0.2-0.5,0.5v13.3c0,0.4,0.1,0.5,0.5,0.5h1.8
	c0.4,0,0.5-0.2,0.5-0.5v-4.9H101.7L101.7,69.9z M101.7,63.3c1.4,0,2.3,0.5,2.3,1.6v1c0,1.1-0.9,1.6-2.3,1.6h-2.1v-4.2H101.7
	L101.7,63.3z M122.2,72.1c0,1.8,1.3,3.4,5.1,3.4c3.8,0,5.1-1.7,5.1-3.4v-7.8c0-1.8-1.3-3.4-5.1-3.4c-3.8,0-5.1,1.7-5.1,3.4V72.1
	L122.2,72.1z M129.6,71.6c0,1.1-0.9,1.6-2.3,1.6c-1.4,0-2.3-0.5-2.3-1.6v-6.8c0-1.1,0.8-1.6,2.3-1.6c1.4,0,2.3,0.5,2.3,1.6V71.6
	L129.6,71.6z M140.2,60.9c-0.4,0-0.5,0.2-0.5,0.5v13.3c0,0.4,0.1,0.5,0.5,0.5h1.8c0.4,0,0.5-0.2,0.5-0.5v-5.7h5
	c0.4,0,0.5-0.1,0.5-0.5v-1.4c0-0.4-0.1-0.5-0.5-0.5h-5v-3.4h5.4c0.4,0,0.5-0.1,0.5-0.5v-1.3c0-0.4-0.2-0.5-0.5-0.5H140.2L140.2,60.9
	z"/>
<path class="st1" d="M491.1,210.9c-0.8-0.2-1.6-0.4-2.5-0.4c-5,0-9.1,4.1-9.1,9.1c0,5,4.1,9.1,9.1,9.1c0.9,0,1.8-0.1,2.7-0.4
	c-1.9-2.4-3-5.5-3-8.8C488.3,216.3,489.4,213.3,491.1,210.9L491.1,210.9z"/>
<path class="st2" d="M502.9,206.9c-4,0-7.6,1.9-9.9,4.8c2.8,1.6,4.7,4.5,4.7,7.9c0,3.4-1.8,6.3-4.5,7.9c2.3,2.8,5.8,4.6,9.7,4.6
	c7,0,12.6-5.6,12.6-12.6C515.5,212.6,509.9,206.9,502.9,206.9L502.9,206.9z"/>
<path class="st3" d="M497.7,219.6c0-3.4-1.9-6.4-4.7-7.9c-1.7,2.1-2.7,4.9-2.7,7.8c0,3,1.1,5.8,2.8,8
	C495.9,225.9,497.7,223,497.7,219.6L497.7,219.6z"/>
</svg>
