<svg xmlns="http://www.w3.org/2000/svg" id="prefix__Group_3_Copy" width="19.2" height="19.2" data-name="Group 3 Copy" viewBox="0 0 19.2 19.2">
    <defs>
        <clipPath id="prefix__clip-path">
            <path id="prefix__Clip_2" d="M0 0h19.2v19.2H0z" class="prefix__cls-1" data-name="Clip 2"/>
        </clipPath>
        <style>
            .prefix__cls-1{fill:none}
        </style>
    </defs>
    <path id="prefix__Clip_2-2" d="M0 0h19.2v19.2H0z" class="prefix__cls-1" data-name="Clip 2"/>
    <g id="prefix__Group_3_Copy-2" clip-path="url(#prefix__clip-path)" data-name="Group 3 Copy">
        <path id="prefix__Fill_1" fill="#dadada" d="M19.2 19.2h-3.991v-6.256c0-1.353 0-3.4-2.049-3.4a2.024 2.024 0 0 0-1.96 1.02 4.968 4.968 0 0 0-.418 2.272v6.31H6.8V6.418h3.829v1.726h.054a4.143 4.143 0 0 1 3.775-2.049c1.882 0 3.154.573 3.89 1.753a8.153 8.153 0 0 1 .856 4.341V19.2zm-14.885 0H.324V6.418h3.991V19.2zm-2-14.561A2.3 2.3 0 0 1 0 2.319 2.3 2.3 0 0 1 2.319 0a2.3 2.3 0 0 1 2.32 2.319 2.3 2.3 0 0 1-2.32 2.32z" data-name="Fill 1"/>
    </g>
</svg>
