<?xml version="1.0" encoding="utf-8"?>
<!-- Generator: Adobe Illustrator 25.2.3, SVG Export Plug-In . SVG Version: 6.00 Build 0)  -->
<svg version="1.1" id="Layer_1" xmlns="http://www.w3.org/2000/svg" xmlns:xlink="http://www.w3.org/1999/xlink" x="0px" y="0px"
	 viewBox="0 0 160 40" style="enable-background:new 0 0 160 40;" xml:space="preserve">
<style type="text/css">
	.st0{fill-rule:evenodd;clip-rule:evenodd;fill:#EDF2F7;}
	.st1{fill:#C1C4C6;}
	.st2{fill-rule:evenodd;clip-rule:evenodd;fill:url(#SVGID_1_);}
	.st3{fill:#FFFFFF;}
</style>
<g>
	<path class="st0" d="M7.5,0.5h145c3.866,0,7,3.134,7,7v25c0,3.866-3.134,7-7,7H7.5c-3.866,0-7-3.134-7-7v-25
		C0.5,3.634,3.634,0.5,7.5,0.5z"/>
	<path class="st1" d="M7.5,0.5V1h145c1.797,0,3.418,0.727,4.596,1.904C158.273,4.082,159,5.703,159,7.5v25
		c0,1.797-0.727,3.418-1.904,4.596c-1.178,1.177-2.8,1.903-4.596,1.904H7.5c-1.797,0-3.418-0.727-4.596-1.904
		C1.727,35.918,1,34.297,1,32.5l0-25c0-1.797,0.727-3.418,1.904-4.596C4.082,1.727,5.703,1,7.5,1V0.5V0C3.357,0,0,3.357,0,7.5v25
		C0,36.643,3.357,40,7.5,40l0,0h145l0,0c4.143,0,7.5-3.357,7.5-7.5v-25c0-4.143-3.357-7.5-7.5-7.5H7.5V0.5z"/>
	
		<linearGradient id="SVGID_1_" gradientUnits="userSpaceOnUse" x1="5.518220e-06" y1="40" x2="1" y2="40" gradientTransform="matrix(1.481540e-15 24.1952 -24.1954 1.481528e-15 989.4099 7.4022)">
		<stop  offset="0" style="stop-color:#F452FF"/>
		<stop  offset="1" style="stop-color:#832BC1"/>
	</linearGradient>
	<path class="st2" d="M33.213,28.373c-0.235,0.598-0.778,1.438-1.547,2.031c-0.444,0.342-0.975,0.669-1.704,0.885
		c-0.776,0.23-1.733,0.309-2.924,0.309H16.15c-1.19,0-2.147-0.078-2.924-0.309c-0.729-0.216-1.259-0.543-1.704-0.885
		c-0.77-0.593-1.312-1.434-1.547-2.031c-0.474-1.203-0.479-2.569-0.479-3.43V14.056c0-0.86,0.004-2.226,0.479-3.429
		c0.235-0.598,0.778-1.438,1.547-2.031c0.444-0.342,0.975-0.669,1.704-0.885c0.776-0.23,1.733-0.308,2.924-0.308h10.888
		c1.19,0,2.147,0.078,2.924,0.308c0.729,0.216,1.259,0.543,1.703,0.885c0.77,0.593,1.312,1.434,1.548,2.031
		c0.474,1.204,0.479,2.569,0.479,3.429v10.888C33.692,25.804,33.688,27.169,33.213,28.373z"/>
	<path class="st3" d="M23.349,21.31c-0.363-0.383-1-0.629-1.753-0.629s-1.391,0.246-1.754,0.629
		c-0.189,0.199-0.29,0.404-0.321,0.696c-0.062,0.565-0.027,1.052,0.039,1.83c0.063,0.741,0.183,1.73,0.339,2.737
		c0.111,0.717,0.202,1.104,0.284,1.381c0.133,0.449,0.632,0.842,1.412,0.842c0.78,0,1.279-0.393,1.412-0.842
		c0.083-0.277,0.173-0.664,0.284-1.381c0.157-1.007,0.276-1.996,0.339-2.737c0.066-0.778,0.101-1.265,0.04-1.83
		C23.639,21.714,23.539,21.509,23.349,21.31z M19.617,17.898c0,1.093,0.887,1.98,1.98,1.98c1.093,0,1.98-0.887,1.98-1.98
		c0-1.094-0.887-1.98-1.98-1.98C20.504,15.918,19.617,16.805,19.617,17.898z M21.573,10.084c-4.631,0.013-8.426,3.77-8.483,8.401
		c-0.046,3.751,2.348,6.96,5.692,8.136l0.151-0.124c-0.044-0.291-0.085-0.584-0.123-0.872c-0.014-0.102-0.079-0.189-0.172-0.23
		c-2.643-1.154-4.488-3.805-4.459-6.875c0.039-4.029,3.329-7.314,7.358-7.347c4.119-0.033,7.481,3.308,7.481,7.419
		c0,3.04-1.837,5.658-4.46,6.803c-0.094,0.041-0.158,0.129-0.172,0.23c-0.038,0.287-0.079,0.58-0.123,0.871l0.151,0.124
		c3.312-1.165,5.692-4.324,5.692-8.029C30.106,13.893,26.276,10.07,21.573,10.084z M21.419,13.987
		c2.625-0.102,4.793,2.004,4.793,4.607c0,1.324-0.561,2.52-1.457,3.361c-0.076,0.071-0.117,0.172-0.111,0.276
		c0.018,0.316,0.012,0.624-0.01,0.972c-0.005,0.093,0.099,0.152,0.175,0.1c1.503-1.027,2.492-2.755,2.492-4.709
		c0-3.218-2.68-5.821-5.925-5.695c-3.016,0.117-5.435,2.604-5.474,5.621c-0.025,1.985,0.969,3.743,2.492,4.783
		c0.077,0.053,0.18-0.007,0.174-0.1c-0.021-0.348-0.027-0.655-0.01-0.972c0.006-0.104-0.035-0.205-0.111-0.276
		c-0.924-0.868-1.492-2.112-1.456-3.485C17.056,16.055,19.004,14.081,21.419,13.987z"/>
	<path d="M43,14.896V9.104h0.91v5.028h2.758v0.764H43z M48.009,9.999c-0.282,0-0.528-0.217-0.528-0.495S47.727,9,48.009,9
		c0.291,0,0.528,0.226,0.528,0.503S48.3,9.999,48.009,9.999z M47.608,14.896v-4.194h0.819v4.194H47.608z M49.304,14.349l0.392-0.573
		c0.3,0.312,0.883,0.599,1.475,0.599c0.619,0,0.946-0.243,0.946-0.599c0-0.417-0.5-0.556-1.065-0.677
		c-0.746-0.165-1.62-0.356-1.62-1.259c0-0.668,0.601-1.242,1.675-1.242c0.755,0,1.302,0.261,1.675,0.599l-0.364,0.547
		c-0.255-0.295-0.746-0.512-1.301-0.512s-0.901,0.208-0.901,0.547c0,0.364,0.474,0.486,1.02,0.607
		c0.765,0.165,1.675,0.365,1.675,1.329c0,0.721-0.619,1.285-1.775,1.285C50.396,15,49.75,14.783,49.304,14.349z M55.114,15
		c-0.692,0-1.047-0.374-1.047-1.033v-2.579h-0.728v-0.686h0.728V9.556h0.819v1.146h0.892v0.686h-0.892v2.405
		c0,0.295,0.146,0.512,0.428,0.512c0.191,0,0.364-0.078,0.446-0.165l0.209,0.591C55.796,14.887,55.542,15,55.114,15z M56.372,12.794
		c0-1.215,0.919-2.197,2.203-2.197c1.32,0,2.139,0.981,2.139,2.266v0.191h-3.477c0.064,0.712,0.61,1.302,1.493,1.302
		c0.464,0,0.974-0.174,1.302-0.495l0.382,0.513C59.977,14.783,59.358,15,58.648,15C57.337,15,56.372,14.114,56.372,12.794z
		 M58.575,11.24c-0.883,0-1.301,0.677-1.347,1.25h2.685C59.895,11.935,59.503,11.24,58.575,11.24z M64.667,14.896v-2.683
		c0-0.695-0.374-0.92-0.938-0.92c-0.51,0-0.974,0.295-1.211,0.607v2.996H61.7v-4.194h0.819v0.591
		c0.292-0.339,0.874-0.695,1.557-0.695c0.928,0,1.411,0.469,1.411,1.354v2.944H64.667z M70.998,15c-1.365,0-2.221-0.99-2.221-2.206
		c0-1.207,0.855-2.197,2.221-2.197c1.375,0,2.221,0.99,2.221,2.197C73.219,14.01,72.373,15,70.998,15z M70.998,14.305
		c0.883,0,1.365-0.712,1.365-1.511c0-0.79-0.482-1.502-1.365-1.502c-0.874,0-1.365,0.712-1.365,1.502
		C69.633,13.593,70.124,14.305,70.998,14.305z M77.181,14.896v-2.683c0-0.695-0.373-0.92-0.938-0.92c-0.51,0-0.974,0.295-1.21,0.607
		v2.996h-0.819v-4.194h0.819v0.591c0.292-0.339,0.874-0.695,1.557-0.695c0.928,0,1.411,0.469,1.411,1.354v2.944H77.181z"/>
	<path d="M45.023,31l1.031-3.047h4.297L51.383,31h1.852l-4.07-11.273h-1.891L43.203,31H45.023z M49.906,26.547H46.5l1.68-4.945
		h0.047L49.906,26.547z M55.961,33.719v-4.07H56c0.469,0.914,1.406,1.492,2.586,1.492c2.062,0,3.43-1.648,3.43-4.25
		s-1.375-4.242-3.461-4.242c-1.188,0-2.133,0.602-2.617,1.547h-0.031v-1.414h-1.633v10.938H55.961z M58.109,29.711
		c-1.297,0-2.156-1.109-2.156-2.82c0-1.695,0.867-2.82,2.156-2.82c1.336,0,2.172,1.102,2.172,2.82
		C60.281,28.617,59.445,29.711,58.109,29.711z M65,33.719v-4.07h0.039c0.469,0.914,1.406,1.492,2.586,1.492
		c2.062,0,3.43-1.648,3.43-4.25s-1.375-4.242-3.461-4.242c-1.188,0-2.133,0.602-2.617,1.547h-0.031v-1.414h-1.633v10.938H65z
		 M67.148,29.711c-1.297,0-2.156-1.109-2.156-2.82c0-1.695,0.867-2.82,2.156-2.82c1.336,0,2.172,1.102,2.172,2.82
		C69.32,28.617,68.484,29.711,67.148,29.711z M74.102,31V19.727h-1.688V31H74.102z M79.344,31.156c1.883,0,3.305-1.07,3.539-2.57
		h-1.602c-0.227,0.719-0.938,1.203-1.898,1.203c-1.352,0-2.211-0.945-2.211-2.375v-0.102h5.805v-0.578
		c0-2.492-1.422-4.102-3.703-4.102c-2.32,0-3.805,1.719-3.805,4.297C75.469,29.523,76.93,31.156,79.344,31.156z M81.289,26.133
		H77.18c0.086-1.242,0.914-2.141,2.094-2.141S81.25,24.875,81.289,26.133z M89.477,31v-3.852h2.422c2.211,0,3.766-1.516,3.766-3.719
		c0-2.195-1.523-3.703-3.711-3.703h-4.227V31H89.477z M91.484,25.68h-2.008v-4.477h2.016c1.516,0,2.383,0.812,2.383,2.234
		S93.008,25.68,91.484,25.68z M100.523,31.156c2.352,0,3.898-1.617,3.898-4.266c0-2.641-1.555-4.258-3.898-4.258
		s-3.898,1.617-3.898,4.258C96.625,29.539,98.172,31.156,100.523,31.156z M100.523,29.766c-1.32,0-2.18-1.047-2.18-2.875
		c0-1.82,0.859-2.867,2.18-2.867s2.18,1.047,2.18,2.867C102.703,28.719,101.852,29.766,100.523,29.766z M108.812,31.141
		c1.195,0,2.133-0.602,2.617-1.539h0.031V31h1.641V19.727h-1.695v4.422h-0.031c-0.461-0.906-1.398-1.5-2.578-1.5
		c-2.062,0-3.438,1.648-3.438,4.242S106.734,31.141,108.812,31.141z M109.258,29.711c-1.336,0-2.172-1.086-2.172-2.82
		c0-1.727,0.836-2.82,2.172-2.82c1.297,0,2.164,1.117,2.164,2.82C111.422,28.609,110.555,29.711,109.258,29.711z M118.344,31.156
		c1.977,0,3.375-1.188,3.555-2.938h-1.625c-0.195,0.953-0.875,1.523-1.914,1.523c-1.312,0-2.18-1.047-2.18-2.852
		c0-1.766,0.859-2.852,2.164-2.852c1.102,0,1.758,0.695,1.93,1.57h1.609c-0.148-1.617-1.438-2.977-3.555-2.977
		c-2.336,0-3.867,1.648-3.867,4.258C114.461,29.547,115.992,31.156,118.344,31.156z M125.5,31.141c1.078,0,2.117-0.578,2.594-1.492
		h0.039V31h1.617v-5.664c0-1.648-1.273-2.703-3.266-2.703c-2.031,0-3.297,1.094-3.391,2.578h1.594
		c0.148-0.734,0.758-1.203,1.734-1.203c1.031,0,1.648,0.547,1.648,1.461v0.633l-2.25,0.133c-1.953,0.109-3.055,0.992-3.055,2.43
		C122.766,30.141,123.891,31.141,125.5,31.141z M125.969,29.805c-0.906,0-1.5-0.469-1.5-1.188c0-0.703,0.57-1.148,1.578-1.219
		l2.023-0.125v0.648C128.07,28.992,127.148,29.805,125.969,29.805z M134.469,31.156c1.938,0,3.336-1.031,3.336-2.531
		c0-1.188-0.641-1.844-2.32-2.234l-1.336-0.305c-0.891-0.203-1.266-0.555-1.266-1.07c0-0.656,0.609-1.102,1.523-1.102
		c0.945,0,1.531,0.5,1.625,1.297h1.586c-0.055-1.516-1.297-2.578-3.211-2.578c-1.891,0-3.172,1.008-3.172,2.477
		c0,1.195,0.773,1.945,2.336,2.305l1.336,0.312c0.898,0.203,1.203,0.516,1.203,1.047c0,0.672-0.625,1.094-1.641,1.094
		c-1.031,0-1.617-0.422-1.773-1.281h-1.672C131.18,30.148,132.414,31.156,134.469,31.156z M141.914,31.055
		c0.375,0,0.75-0.031,0.938-0.078v-1.336c-0.109,0.023-0.383,0.039-0.555,0.039c-0.688,0-1-0.32-1-1.031v-4.531h1.562v-1.336h-1.562
		v-1.945h-1.695v1.945h-1.195v1.336h1.195v4.719C139.602,30.422,140.25,31.055,141.914,31.055z M147.328,31.156
		c1.938,0,3.336-1.031,3.336-2.531c0-1.188-0.641-1.844-2.32-2.234l-1.336-0.305c-0.891-0.203-1.266-0.555-1.266-1.07
		c0-0.656,0.609-1.102,1.523-1.102c0.945,0,1.531,0.5,1.625,1.297h1.586c-0.055-1.516-1.297-2.578-3.211-2.578
		c-1.891,0-3.172,1.008-3.172,2.477c0,1.195,0.773,1.945,2.336,2.305l1.336,0.312c0.898,0.203,1.203,0.516,1.203,1.047
		c0,0.672-0.625,1.094-1.641,1.094c-1.031,0-1.617-0.422-1.773-1.281h-1.672C144.039,30.148,145.273,31.156,147.328,31.156z"/>
</g>
</svg>
