<?xml version="1.0" encoding="utf-8"?>
<!-- Generator: Adobe Illustrator 25.2.3, SVG Export Plug-In . SVG Version: 6.00 Build 0)  -->
<svg version="1.1" id="Layer_1" xmlns="http://www.w3.org/2000/svg" xmlns:xlink="http://www.w3.org/1999/xlink" x="0px" y="0px"
	 viewBox="0 0 160 40" style="enable-background:new 0 0 160 40;" xml:space="preserve">
<style type="text/css">
	.st0{fill-rule:evenodd;clip-rule:evenodd;fill:#EDF2F7;}
	.st1{fill:#C1C4C6;}
	.st2{fill-rule:evenodd;clip-rule:evenodd;fill:#FAB908;}
	.st3{fill-rule:evenodd;clip-rule:evenodd;fill:#0066D9;}
	.st4{fill-rule:evenodd;clip-rule:evenodd;fill:#4285F4;}
	.st5{fill-rule:evenodd;clip-rule:evenodd;fill:#EA4335;}
	.st6{fill-rule:evenodd;clip-rule:evenodd;fill:#34A853;}
</style>
<g>
	<path class="st0" d="M7.5,0.5h145c3.866,0,7,3.134,7,7v25c0,3.866-3.134,7-7,7H7.5c-3.866,0-7-3.134-7-7v-25
		C0.5,3.634,3.634,0.5,7.5,0.5z"/>
	<path class="st1" d="M7.5,0.5V1h145c1.797,0,3.418,0.727,4.596,1.904C158.273,4.082,159,5.703,159,7.5v25
		c0,1.797-0.727,3.418-1.904,4.596c-1.178,1.177-2.8,1.903-4.596,1.904H7.5c-1.797,0-3.418-0.727-4.596-1.904
		C1.727,35.918,1,34.297,1,32.5l0-25c0-1.797,0.727-3.418,1.904-4.596C4.082,1.727,5.703,1,7.5,1V0.5V0C3.357,0,0,3.357,0,7.5v25
		C0,36.643,3.357,40,7.5,40l0,0h145l0,0c4.143,0,7.5-3.357,7.5-7.5v-25c0-4.143-3.357-7.5-7.5-7.5H7.5V0.5z"/>
	<path d="M43,14.896V9.104h0.91v5.028h2.758v0.764H43z M48.009,9.999c-0.282,0-0.528-0.217-0.528-0.495S47.727,9,48.009,9
		c0.291,0,0.528,0.226,0.528,0.503S48.3,9.999,48.009,9.999z M47.608,14.896v-4.194h0.819v4.194H47.608z M49.304,14.349l0.392-0.573
		c0.3,0.312,0.883,0.599,1.475,0.599c0.619,0,0.946-0.243,0.946-0.599c0-0.417-0.5-0.556-1.065-0.677
		c-0.746-0.165-1.62-0.356-1.62-1.259c0-0.668,0.601-1.242,1.675-1.242c0.755,0,1.302,0.261,1.675,0.599l-0.364,0.547
		c-0.255-0.295-0.746-0.512-1.301-0.512s-0.901,0.208-0.901,0.547c0,0.364,0.474,0.486,1.02,0.607
		c0.765,0.165,1.675,0.365,1.675,1.329c0,0.721-0.619,1.285-1.775,1.285C50.396,15,49.75,14.783,49.304,14.349z M55.114,15
		c-0.692,0-1.047-0.374-1.047-1.033v-2.579h-0.728v-0.686h0.728V9.556h0.819v1.146h0.892v0.686h-0.892v2.405
		c0,0.295,0.146,0.512,0.428,0.512c0.191,0,0.364-0.078,0.446-0.165l0.209,0.591C55.796,14.887,55.542,15,55.114,15z M56.372,12.794
		c0-1.215,0.919-2.197,2.203-2.197c1.32,0,2.139,0.981,2.139,2.266v0.191h-3.477c0.064,0.712,0.61,1.302,1.493,1.302
		c0.464,0,0.974-0.174,1.302-0.495l0.382,0.513C59.977,14.783,59.358,15,58.648,15C57.337,15,56.372,14.114,56.372,12.794z
		 M58.575,11.24c-0.883,0-1.301,0.677-1.347,1.25h2.685C59.895,11.935,59.503,11.24,58.575,11.24z M64.667,14.896v-2.683
		c0-0.695-0.374-0.92-0.938-0.92c-0.51,0-0.974,0.295-1.211,0.607v2.996H61.7v-4.194h0.819v0.591
		c0.292-0.339,0.874-0.695,1.557-0.695c0.928,0,1.411,0.469,1.411,1.354v2.944H64.667z M70.998,15c-1.365,0-2.221-0.99-2.221-2.206
		c0-1.207,0.855-2.197,2.221-2.197c1.375,0,2.221,0.99,2.221,2.197C73.219,14.01,72.373,15,70.998,15z M70.998,14.305
		c0.883,0,1.365-0.712,1.365-1.511c0-0.79-0.482-1.502-1.365-1.502c-0.874,0-1.365,0.712-1.365,1.502
		C69.633,13.593,70.124,14.305,70.998,14.305z M77.181,14.896v-2.683c0-0.695-0.373-0.92-0.938-0.92c-0.51,0-0.974,0.295-1.21,0.607
		v2.996h-0.819v-4.194h0.819v0.591c0.292-0.339,0.874-0.695,1.557-0.695c0.928,0,1.411,0.469,1.411,1.354v2.944H77.181z"/>
	<polygon class="st2" points="20.938,14.955 20.938,18.743 20.938,20.257 20.938,24.046 24.062,24.046 24.062,20.257 24.062,18.743 
		24.062,14.955 	"/>
	<circle class="st3" cx="11.562" cy="18.648" r="1.562"/>
	<path class="st3" d="M11.562,18.79c0.863,0,1.562,0.7,1.562,1.562s-0.7,1.563-1.562,1.563S10,21.215,10,20.352
		S10.7,18.79,11.562,18.79z"/>
	<rect x="10" y="18.648" class="st3" width="3.125" height="1.704"/>
	<path class="st4" d="M33.438,18.79c0.863,0,1.562,0.7,1.562,1.562s-0.7,1.563-1.562,1.563s-1.562-0.7-1.562-1.563
		S32.575,18.79,33.438,18.79z"/>
	<circle class="st4" cx="33.438" cy="18.648" r="1.562"/>
	<rect x="31.875" y="18.648" class="st4" width="3.125" height="1.704"/>
	<circle class="st5" cx="16.96" cy="23.762" r="1.562"/>
	<circle class="st5" cx="16.96" cy="25.466" r="1.562"/>
	<rect x="15.398" y="23.762" class="st5" width="3.125" height="1.704"/>
	<circle class="st5" cx="16.96" cy="13.534" r="1.562"/>
	<circle class="st5" cx="16.96" cy="19.074" r="1.562"/>
	<rect x="15.398" y="13.534" class="st5" width="3.125" height="5.575"/>
	<circle class="st6" cx="28.04" cy="15.239" r="1.562"/>
	<circle class="st6" cx="28.04" cy="13.534" r="1.562"/>
	<rect x="26.477" y="13.534" class="st6" width="3.125" height="1.705"/>
	<circle class="st2" cx="22.5" cy="10.267" r="1.562"/>
	<circle class="st2" cx="22.5" cy="8.562" r="1.562"/>
	<rect x="20.938" y="8.562" class="st2" width="3.125" height="1.705"/>
	<circle class="st2" cx="22.5" cy="30.438" r="1.562"/>
	<circle class="st2" cx="22.5" cy="28.733" r="1.562"/>
	<rect x="20.938" y="28.733" class="st2" width="3.125" height="1.704"/>
	<circle class="st6" cx="28.04" cy="25.466" r="1.562"/>
	<path class="st6" d="M28.04,18.364c0.863,0,1.562,0.699,1.562,1.562c0,0.863-0.699,1.562-1.562,1.562
		c-0.863,0-1.562-0.699-1.562-1.562C26.477,19.063,27.177,18.364,28.04,18.364z"/>
	<rect x="26.477" y="19.926" class="st6" width="3.125" height="5.54"/>
	<circle class="st2" cx="22.5" cy="14.955" r="1.562"/>
	<circle class="st2" cx="22.5" cy="24.046" r="1.562"/>
	<path d="M47.522,31.176c2.864,0,4.556-1.707,4.556-4.57v-1.076h-4.351v1.325h2.732v0.183c-0.022,1.604-1.208,2.703-2.922,2.703
		c-2.014,0-3.267-1.561-3.267-4.087c0-2.483,1.216-3.962,3.237-3.962c1.377,0,2.41,0.754,2.805,2.064h1.685
		c-0.366-2.109-2.146-3.5-4.497-3.5c-3.01,0-4.907,2.081-4.907,5.413C42.593,29.059,44.498,31.176,47.522,31.176z M56.802,31.146
		c2.205,0,3.655-1.516,3.655-3.999c0-2.476-1.458-3.991-3.655-3.991s-3.655,1.516-3.655,3.991
		C53.147,29.631,54.598,31.146,56.802,31.146z M56.802,29.843c-1.238,0-2.043-0.981-2.043-2.695c0-1.706,0.806-2.688,2.043-2.688
		s2.043,0.982,2.043,2.688C58.846,28.861,58.047,29.843,56.802,29.843z M64.991,31.146c2.205,0,3.655-1.516,3.655-3.999
		c0-2.476-1.458-3.991-3.655-3.991s-3.655,1.516-3.655,3.991C61.336,29.631,62.786,31.146,64.991,31.146z M64.991,29.843
		c-1.238,0-2.043-0.981-2.043-2.695c0-1.706,0.806-2.688,2.043-2.688s2.043,0.982,2.043,2.688
		C67.034,28.861,66.236,29.843,64.991,29.843z M73.165,33.9c2.197,0,3.618-1.201,3.618-3.039v-7.566h-1.538v1.318h-0.029
		c-0.469-0.894-1.362-1.443-2.454-1.443c-1.978,0-3.237,1.523-3.237,3.948c0,2.402,1.267,3.911,3.201,3.911
		c1.099,0,2.007-0.549,2.439-1.385h0.029v1.268c0,1.055-0.732,1.758-1.97,1.758c-0.901,0-1.604-0.425-1.831-1.069h-1.589
		C70,32.934,71.348,33.9,73.165,33.9z M73.15,29.719c-1.216,0-2.007-0.982-2.007-2.594c0-1.604,0.791-2.621,2.007-2.621
		c1.238,0,2.051,1.039,2.051,2.621C75.201,28.715,74.388,29.719,73.15,29.719z M79.983,31V20.431h-1.582V31H79.983z M84.898,31.146
		c1.765,0,3.098-1.004,3.317-2.41h-1.501c-0.213,0.674-0.879,1.129-1.78,1.129c-1.267,0-2.073-0.887-2.073-2.227v-0.096h5.442
		v-0.542c0-2.337-1.333-3.845-3.472-3.845c-2.176,0-3.566,1.611-3.566,4.027C81.266,29.615,82.635,31.146,84.898,31.146z
		 M86.722,26.438h-3.853c0.08-1.165,0.857-2.008,1.963-2.008S86.686,25.258,86.722,26.438z M94.397,31v-3.611h2.271
		c2.072,0,3.53-1.42,3.53-3.486c0-2.058-1.429-3.471-3.479-3.471h-3.962V31H94.397z M96.279,26.012h-1.882v-4.196h1.89
		c1.421,0,2.234,0.762,2.234,2.095S97.708,26.012,96.279,26.012z M104.754,31.146c2.205,0,3.654-1.516,3.654-3.999
		c0-2.476-1.457-3.991-3.654-3.991s-3.654,1.516-3.654,3.991C101.1,29.631,102.549,31.146,104.754,31.146z M104.754,29.843
		c-1.238,0-2.043-0.981-2.043-2.695c0-1.706,0.805-2.688,2.043-2.688s2.043,0.982,2.043,2.688
		C106.797,28.861,105.999,29.843,104.754,29.843z M112.525,31.132c1.12,0,1.999-0.563,2.453-1.442h0.029V31h1.538V20.431h-1.589
		v4.145h-0.029c-0.433-0.85-1.312-1.406-2.418-1.406c-1.934,0-3.223,1.546-3.223,3.978S110.576,31.132,112.525,31.132z
		 M112.942,29.791c-1.253,0-2.036-1.018-2.036-2.644c0-1.618,0.783-2.644,2.036-2.644c1.216,0,2.028,1.047,2.028,2.644
		C114.971,28.759,114.158,29.791,112.942,29.791z M121.461,31.146c1.853,0,3.164-1.113,3.332-2.754h-1.523
		c-0.184,0.894-0.82,1.428-1.795,1.428c-1.23,0-2.043-0.98-2.043-2.673c0-1.655,0.806-2.673,2.029-2.673
		c1.032,0,1.647,0.651,1.809,1.472h1.509c-0.14-1.517-1.348-2.79-3.333-2.79c-2.189,0-3.625,1.545-3.625,3.991
		C117.82,29.638,119.256,31.146,121.461,31.146z M128.17,31.132c1.01,0,1.984-0.542,2.432-1.399h0.036V31h1.517v-5.311
		c0-1.545-1.194-2.533-3.062-2.533c-1.904,0-3.09,1.025-3.178,2.416h1.494c0.139-0.688,0.71-1.127,1.625-1.127
		c0.967,0,1.546,0.512,1.546,1.369v0.594l-2.109,0.124c-1.831,0.103-2.864,0.931-2.864,2.278
		C125.605,30.194,126.66,31.132,128.17,31.132z M128.609,29.879c-0.85,0-1.406-0.439-1.406-1.113c0-0.658,0.534-1.076,1.479-1.143
		l1.897-0.117v0.608C130.579,29.117,129.715,29.879,128.609,29.879z M136.578,31.146c1.816,0,3.127-0.967,3.127-2.373
		c0-1.113-0.601-1.729-2.176-2.095l-1.252-0.286c-0.835-0.189-1.187-0.52-1.187-1.003c0-0.615,0.571-1.032,1.429-1.032
		c0.886,0,1.436,0.469,1.523,1.215h1.486c-0.051-1.42-1.216-2.416-3.01-2.416c-1.773,0-2.975,0.944-2.975,2.321
		c0,1.12,0.726,1.823,2.19,2.161l1.253,0.293c0.842,0.189,1.127,0.482,1.127,0.98c0,0.631-0.586,1.025-1.537,1.025
		c-0.967,0-1.517-0.395-1.663-1.201h-1.567C133.494,30.201,134.651,31.146,136.578,31.146z M143.558,31.051
		c0.352,0,0.703-0.029,0.879-0.072v-1.253c-0.103,0.022-0.358,0.036-0.521,0.036c-0.645,0-0.938-0.3-0.938-0.967v-4.248h1.465
		v-1.252h-1.465v-1.824h-1.589v1.824h-1.12v1.252h1.12v4.424C141.39,30.458,141.998,31.051,143.558,31.051z M148.633,31.146
		c1.816,0,3.128-0.967,3.128-2.373c0-1.113-0.601-1.729-2.175-2.095l-1.253-0.286c-0.835-0.189-1.187-0.52-1.187-1.003
		c0-0.615,0.571-1.032,1.428-1.032c0.887,0,1.436,0.469,1.523,1.215h1.487c-0.052-1.42-1.216-2.416-3.011-2.416
		c-1.771,0-2.973,0.944-2.973,2.321c0,1.12,0.725,1.823,2.189,2.161l1.252,0.293c0.843,0.189,1.129,0.482,1.129,0.98
		c0,0.631-0.586,1.025-1.539,1.025c-0.967,0-1.516-0.395-1.662-1.201h-1.567C145.55,30.201,146.707,31.146,148.633,31.146z"/>
</g>
</svg>
