<?xml version="1.0" encoding="utf-8"?>
<!-- Generator: Adobe Illustrator 25.2.3, SVG Export Plug-In . SVG Version: 6.00 Build 0)  -->
<svg version="1.1" id="Layer_1" xmlns="http://www.w3.org/2000/svg" xmlns:xlink="http://www.w3.org/1999/xlink" x="0px" y="0px"
	 viewBox="0 0 160 40" style="enable-background:new 0 0 160 40;" xml:space="preserve">
<style type="text/css">
	.st0{fill-rule:evenodd;clip-rule:evenodd;fill:#EDF2F7;}
	.st1{fill:#C1C4C6;}
	.st2{fill-rule:evenodd;clip-rule:evenodd;fill:#4804FF;}
	.st3{clip-path:url(#SVGID_2_);fill:#4804FF;}
	.st4{clip-path:url(#SVGID_4_);fill:#EDF2F7;}
	.st5{clip-path:url(#SVGID_4_);fill:#4804FF;}
</style>
<g>
	<path class="st0" d="M7.5,0.5h145c3.866,0,7,3.134,7,7v25c0,3.866-3.134,7-7,7H7.5c-3.866,0-7-3.134-7-7v-25
		C0.5,3.634,3.634,0.5,7.5,0.5"/>
	<path class="st1" d="M7.5,0.5V1h145c1.797,0,3.418,0.727,4.596,1.904C158.273,4.082,159,5.703,159,7.5v25
		c0,1.797-0.727,3.418-1.904,4.596c-1.178,1.177-2.8,1.903-4.596,1.904H7.5c-1.797,0-3.418-0.727-4.596-1.904
		C1.727,35.918,1,34.297,1,32.5l0-25c0-1.797,0.727-3.418,1.904-4.596C4.082,1.727,5.703,1,7.5,1V0.5V0C3.357,0,0,3.357,0,7.5v25
		C0,36.643,3.357,40,7.5,40l0,0h145l0,0c4.143,0,7.5-3.357,7.5-7.5v-25c0-4.143-3.357-7.5-7.5-7.5H7.5V0.5z"/>
	<path d="M43,14.896V9.104h0.91v5.028h2.758v0.764H43z M48.009,9.999c-0.282,0-0.528-0.217-0.528-0.495S47.727,9,48.009,9
		c0.291,0,0.528,0.226,0.528,0.503S48.3,9.999,48.009,9.999z M47.608,14.896v-4.194h0.819v4.194H47.608z M49.304,14.349l0.392-0.573
		c0.3,0.312,0.883,0.599,1.475,0.599c0.619,0,0.946-0.243,0.946-0.599c0-0.417-0.5-0.556-1.065-0.677
		c-0.746-0.165-1.62-0.356-1.62-1.259c0-0.668,0.601-1.242,1.675-1.242c0.755,0,1.302,0.261,1.675,0.599l-0.364,0.547
		c-0.255-0.295-0.746-0.512-1.301-0.512s-0.901,0.208-0.901,0.547c0,0.364,0.474,0.486,1.02,0.607
		c0.765,0.165,1.675,0.365,1.675,1.329c0,0.721-0.619,1.285-1.775,1.285C50.396,15,49.75,14.783,49.304,14.349z M55.114,15
		c-0.692,0-1.047-0.374-1.047-1.033v-2.579h-0.728v-0.686h0.728V9.556h0.819v1.146h0.892v0.686h-0.892v2.405
		c0,0.295,0.146,0.512,0.428,0.512c0.191,0,0.364-0.078,0.446-0.165l0.209,0.591C55.796,14.887,55.542,15,55.114,15z M56.372,12.794
		c0-1.215,0.919-2.197,2.203-2.197c1.32,0,2.139,0.981,2.139,2.266v0.191h-3.477c0.064,0.712,0.61,1.302,1.493,1.302
		c0.464,0,0.974-0.174,1.302-0.495l0.382,0.513C59.977,14.783,59.358,15,58.648,15C57.337,15,56.372,14.114,56.372,12.794z
		 M58.575,11.24c-0.883,0-1.301,0.677-1.347,1.25h2.685C59.895,11.935,59.503,11.24,58.575,11.24z M64.667,14.896v-2.683
		c0-0.695-0.374-0.92-0.938-0.92c-0.51,0-0.974,0.295-1.211,0.607v2.996H61.7v-4.194h0.819v0.591
		c0.292-0.339,0.874-0.695,1.557-0.695c0.928,0,1.411,0.469,1.411,1.354v2.944H64.667z M70.998,15c-1.365,0-2.221-0.99-2.221-2.206
		c0-1.207,0.855-2.197,2.221-2.197c1.375,0,2.221,0.99,2.221,2.197C73.219,14.01,72.373,15,70.998,15z M70.998,14.305
		c0.883,0,1.365-0.712,1.365-1.511c0-0.79-0.482-1.502-1.365-1.502c-0.874,0-1.365,0.712-1.365,1.502
		C69.633,13.593,70.124,14.305,70.998,14.305z M77.181,14.896v-2.683c0-0.695-0.373-0.92-0.938-0.92c-0.51,0-0.974,0.295-1.21,0.607
		v2.996h-0.819v-4.194h0.819v0.591c0.292-0.339,0.874-0.695,1.557-0.695c0.928,0,1.411,0.469,1.411,1.354v2.944H77.181z"/>
	<path d="M44.023,31l1.031-3.047h4.297L50.383,31h1.852l-4.07-11.273h-1.891L42.203,31H44.023z M48.906,26.547H45.5l1.68-4.945
		h0.047L48.906,26.547z M54.961,31v-5.078c0-1.055,0.711-1.836,1.711-1.836c0.953,0,1.555,0.602,1.555,1.547V31h1.656v-5.133
		c0-1.039,0.695-1.781,1.695-1.781s1.57,0.609,1.57,1.672V31h1.695v-5.648c0-1.633-1.062-2.711-2.688-2.711
		c-1.172,0-2.141,0.609-2.562,1.609h-0.039c-0.328-1.023-1.156-1.609-2.297-1.609c-1.109,0-1.969,0.609-2.336,1.523h-0.039v-1.383
		h-1.609V31H54.961z M68.875,31.141c1.078,0,2.117-0.578,2.594-1.492h0.039V31h1.617v-5.664c0-1.648-1.273-2.703-3.266-2.703
		c-2.031,0-3.297,1.094-3.391,2.578h1.594c0.148-0.734,0.758-1.203,1.734-1.203c1.031,0,1.648,0.547,1.648,1.461v0.633l-2.25,0.133
		c-1.953,0.109-3.055,0.992-3.055,2.43C66.141,30.141,67.266,31.141,68.875,31.141z M69.344,29.805c-0.906,0-1.5-0.469-1.5-1.188
		c0-0.703,0.57-1.148,1.578-1.219l2.023-0.125v0.648C71.445,28.992,70.523,29.805,69.344,29.805z M80.953,31v-1.344h-4.32v-0.031
		l4.273-5.688v-1.156h-6.289v1.344h4.352v0.031l-4.383,5.758V31H80.953z M85.992,31.156c2.352,0,3.898-1.617,3.898-4.266
		c0-2.641-1.555-4.258-3.898-4.258s-3.898,1.617-3.898,4.258C82.094,29.539,83.641,31.156,85.992,31.156z M85.992,29.766
		c-1.32,0-2.18-1.047-2.18-2.875c0-1.82,0.859-2.867,2.18-2.867s2.18,1.047,2.18,2.867C88.172,28.719,87.32,29.766,85.992,29.766z
		 M92.883,31v-4.789c0-1.273,0.766-2.117,1.953-2.117c1.172,0,1.75,0.68,1.75,1.914V31h1.695v-5.32c0-1.883-1.039-3.039-2.852-3.039
		c-1.266,0-2.141,0.578-2.586,1.516h-0.039v-1.375h-1.609V31H92.883z M104.945,31v-8.297H105L108.406,31h1.297l3.398-8.297h0.055V31
		h1.602V19.727h-2.031l-3.641,8.984h-0.062l-3.648-8.984h-2.023V31H104.945z M119.477,31.148c1.258,0,2.094-0.555,2.547-1.539h0.039
		V31h1.617v-8.219h-1.688v4.789c0,1.281-0.734,2.125-1.953,2.125c-1.164,0-1.758-0.672-1.758-1.922v-4.992h-1.688v5.32
		C116.594,29.984,117.688,31.148,119.477,31.148z M128.43,31.156c1.938,0,3.336-1.031,3.336-2.531c0-1.188-0.641-1.844-2.32-2.234
		l-1.336-0.305c-0.891-0.203-1.266-0.555-1.266-1.07c0-0.656,0.609-1.102,1.523-1.102c0.945,0,1.531,0.5,1.625,1.297h1.586
		c-0.055-1.516-1.297-2.578-3.211-2.578c-1.891,0-3.172,1.008-3.172,2.477c0,1.195,0.773,1.945,2.336,2.305l1.336,0.312
		c0.898,0.203,1.203,0.516,1.203,1.047c0,0.672-0.625,1.094-1.641,1.094c-1.031,0-1.617-0.422-1.773-1.281h-1.672
		C125.141,30.148,126.375,31.156,128.43,31.156z M133.969,21.453c0.539,0,0.969-0.438,0.969-0.969c0-0.539-0.43-0.969-0.969-0.969
		s-0.977,0.43-0.977,0.969C132.992,21.016,133.43,21.453,133.969,21.453z M134.812,31v-8.219h-1.688V31H134.812z M140.055,31.156
		c1.977,0,3.375-1.188,3.555-2.938h-1.625c-0.195,0.953-0.875,1.523-1.914,1.523c-1.312,0-2.18-1.047-2.18-2.852
		c0-1.766,0.859-2.852,2.164-2.852c1.102,0,1.758,0.695,1.93,1.57h1.609c-0.148-1.617-1.438-2.977-3.555-2.977
		c-2.336,0-3.867,1.648-3.867,4.258C136.172,29.547,137.703,31.156,140.055,31.156z"/>
	<path class="st2" d="M25.617,22.319c-0.168,0.112-0.421,0.196-0.73,0.196c-0.477,0-0.927-0.056-1.376-0.196
		c-0.112-0.028-0.197-0.057-0.253-0.057c-0.084,0-0.112,0.057-0.112,0.169v0.28l0.056,0.197l0.168,0.112
		c0.45,0.196,0.955,0.28,1.517,0.28c0.59,0,1.04-0.14,1.404-0.421c0.365-0.281,0.534-0.646,0.534-1.123
		c0-0.337-0.084-0.59-0.253-0.815c-0.168-0.196-0.449-0.393-0.842-0.534l-0.787-0.309c-0.309-0.112-0.534-0.225-0.618-0.337
		c-0.112-0.112-0.168-0.225-0.168-0.421c0-0.421,0.309-0.646,0.955-0.646c0.365,0,0.73,0.056,1.067,0.168
		c0.112,0.028,0.197,0.056,0.225,0.056c0.084,0,0.141-0.056,0.141-0.168v-0.281l-0.056-0.197l-0.168-0.112
		c-0.421-0.14-0.843-0.225-1.264-0.225c-0.533,0-0.983,0.14-1.32,0.393s-0.505,0.618-0.505,1.039c0,0.646,0.365,1.124,1.095,1.404
		l0.842,0.309c0.281,0.112,0.45,0.197,0.562,0.31s0.14,0.225,0.14,0.393C25.869,22.01,25.785,22.207,25.617,22.319z M28.622,16.168
		C28.509,16.056,28.341,16,28.145,16c-0.197,0-0.337,0.056-0.45,0.168s-0.168,0.253-0.168,0.421s0.056,0.337,0.168,0.421
		c0.112,0.112,0.253,0.168,0.45,0.168c0.196,0,0.337-0.056,0.449-0.168s0.168-0.253,0.168-0.421S28.734,16.253,28.622,16.168z
		 M28.453,18.078h-0.59c-0.14,0-0.196,0.056-0.196,0.197v4.662c0,0.141,0.056,0.197,0.196,0.197h0.59
		c0.141,0,0.197-0.057,0.197-0.197v-4.662C28.65,18.163,28.594,18.078,28.453,18.078z M31.093,19.202
		c0.253-0.281,0.646-0.421,1.208-0.421c0.281,0,0.562,0.028,0.814,0.112l0.168,0.028c0.084,0,0.141-0.056,0.141-0.197v-0.281
		l-0.056-0.197l-0.141-0.112c-0.365-0.084-0.73-0.168-1.067-0.168c-0.787,0-1.376,0.225-1.826,0.702
		c-0.421,0.45-0.646,1.124-0.646,1.966c0,0.843,0.197,1.488,0.618,1.938c0.421,0.449,1.011,0.674,1.797,0.674
		c0.421,0,0.815-0.057,1.124-0.197l0.168-0.112l0.028-0.196v-0.28c0-0.141-0.056-0.197-0.141-0.197l-0.14,0.028
		c-0.309,0.084-0.618,0.141-0.899,0.141c-0.534,0-0.927-0.141-1.18-0.422c-0.252-0.28-0.365-0.729-0.365-1.32v-0.14
		C30.728,19.932,30.84,19.482,31.093,19.202z M15.871,23.134h0.59c0.141,0,0.197-0.057,0.197-0.197v-3.51
		c0-0.478-0.113-0.842-0.365-1.095c-0.253-0.253-0.59-0.393-1.067-0.393c-0.646,0-1.32,0.225-1.966,0.702
		c-0.225-0.478-0.646-0.702-1.264-0.702c-0.618,0-1.236,0.225-1.854,0.646l-0.056-0.309l-0.084-0.141l-0.141-0.028H9.412
		c-0.14,0-0.196,0.056-0.196,0.197v4.662c0,0.141,0.056,0.197,0.196,0.197h0.59c0.14,0,0.197-0.057,0.197-0.197v-3.791
		c0.477-0.281,0.955-0.45,1.46-0.45c0.281,0,0.477,0.084,0.589,0.253s0.197,0.393,0.197,0.73v3.229c0,0.141,0.056,0.197,0.197,0.197
		h0.59c0.14,0,0.196-0.057,0.196-0.197v-3.623v-0.14c0.505-0.309,0.983-0.45,1.46-0.45c0.281,0,0.478,0.084,0.59,0.253
		s0.197,0.393,0.197,0.73v3.229C15.675,23.077,15.73,23.134,15.871,23.134z M21.207,18.275v3.735
		c-0.477,0.31-0.955,0.478-1.432,0.478c-0.309,0-0.534-0.084-0.674-0.253c-0.141-0.168-0.197-0.421-0.197-0.786v-3.173
		c0-0.141-0.056-0.197-0.196-0.197h-0.59c-0.14,0-0.196,0.056-0.196,0.197v3.483c0,0.477,0.112,0.87,0.365,1.123
		c0.252,0.253,0.618,0.394,1.095,0.394c0.646,0,1.292-0.226,1.91-0.675l0.056,0.337l0.084,0.141l0.168,0.028h0.421
		c0.14,0,0.196-0.057,0.196-0.196v-4.634c0-0.141-0.056-0.197-0.196-0.197h-0.59C21.264,18.078,21.207,18.163,21.207,18.275z"/>
	<path class="st2" d="M25.617,22.319c-0.168,0.112-0.421,0.196-0.73,0.196c-0.477,0-0.927-0.056-1.376-0.196
		c-0.112-0.028-0.197-0.057-0.253-0.057c-0.084,0-0.112,0.057-0.112,0.169v0.28l0.056,0.197l0.168,0.112
		c0.45,0.196,0.955,0.28,1.517,0.28c0.59,0,1.04-0.14,1.404-0.421c0.365-0.281,0.534-0.646,0.534-1.123
		c0-0.337-0.084-0.59-0.253-0.815c-0.168-0.196-0.449-0.393-0.842-0.534l-0.787-0.309c-0.309-0.112-0.534-0.225-0.618-0.337
		c-0.112-0.112-0.168-0.225-0.168-0.421c0-0.421,0.309-0.646,0.955-0.646c0.365,0,0.73,0.056,1.067,0.168
		c0.112,0.028,0.197,0.056,0.225,0.056c0.084,0,0.141-0.056,0.141-0.168v-0.281l-0.056-0.197l-0.168-0.112
		c-0.421-0.14-0.843-0.225-1.264-0.225c-0.533,0-0.983,0.14-1.32,0.393s-0.505,0.618-0.505,1.039c0,0.646,0.365,1.124,1.095,1.404
		l0.842,0.309c0.281,0.112,0.45,0.197,0.562,0.31s0.14,0.225,0.14,0.393C25.869,22.01,25.785,22.207,25.617,22.319z"/>
	<path class="st2" d="M28.622,16.168C28.509,16.056,28.341,16,28.145,16c-0.197,0-0.337,0.056-0.45,0.168s-0.168,0.253-0.168,0.421
		s0.056,0.337,0.168,0.421c0.112,0.112,0.253,0.168,0.45,0.168c0.196,0,0.337-0.056,0.449-0.168s0.168-0.253,0.168-0.421
		S28.734,16.253,28.622,16.168z"/>
	<path class="st2" d="M28.453,18.078h-0.59c-0.14,0-0.196,0.056-0.196,0.197v4.662c0,0.141,0.056,0.197,0.196,0.197h0.59
		c0.141,0,0.197-0.057,0.197-0.197v-4.662C28.65,18.163,28.594,18.078,28.453,18.078z"/>
	<path class="st2" d="M31.093,19.202c0.253-0.281,0.646-0.421,1.208-0.421c0.281,0,0.562,0.028,0.814,0.112l0.168,0.028
		c0.084,0,0.141-0.056,0.141-0.197v-0.281l-0.056-0.197l-0.141-0.112c-0.365-0.084-0.73-0.168-1.067-0.168
		c-0.787,0-1.376,0.225-1.826,0.702c-0.421,0.45-0.646,1.124-0.646,1.966c0,0.843,0.197,1.488,0.618,1.938
		c0.421,0.449,1.011,0.674,1.797,0.674c0.421,0,0.815-0.057,1.124-0.197l0.168-0.112l0.028-0.196v-0.28
		c0-0.141-0.056-0.197-0.141-0.197l-0.14,0.028c-0.309,0.084-0.618,0.141-0.899,0.141c-0.534,0-0.927-0.141-1.18-0.422
		c-0.252-0.28-0.365-0.729-0.365-1.32v-0.14C30.728,19.932,30.84,19.482,31.093,19.202z"/>
	<path class="st2" d="M15.871,23.134h0.59c0.141,0,0.197-0.057,0.197-0.197v-3.51c0-0.478-0.113-0.842-0.365-1.095
		c-0.253-0.253-0.59-0.393-1.067-0.393c-0.646,0-1.32,0.225-1.966,0.702c-0.225-0.478-0.646-0.702-1.264-0.702
		c-0.618,0-1.236,0.225-1.854,0.646l-0.056-0.309l-0.084-0.141l-0.141-0.028H9.412c-0.14,0-0.196,0.056-0.196,0.197v4.662
		c0,0.141,0.056,0.197,0.196,0.197h0.59c0.14,0,0.197-0.057,0.197-0.197v-3.791c0.477-0.281,0.955-0.45,1.46-0.45
		c0.281,0,0.477,0.084,0.589,0.253s0.197,0.393,0.197,0.73v3.229c0,0.141,0.056,0.197,0.197,0.197h0.59
		c0.14,0,0.196-0.057,0.196-0.197v-3.623v-0.14c0.505-0.309,0.983-0.45,1.46-0.45c0.281,0,0.478,0.084,0.59,0.253
		s0.197,0.393,0.197,0.73v3.229C15.675,23.077,15.73,23.134,15.871,23.134z"/>
	<path class="st2" d="M21.207,18.275v3.735c-0.477,0.31-0.955,0.478-1.432,0.478c-0.309,0-0.534-0.084-0.674-0.253
		c-0.141-0.168-0.197-0.421-0.197-0.786v-3.173c0-0.141-0.056-0.197-0.196-0.197h-0.59c-0.14,0-0.196,0.056-0.196,0.197v3.483
		c0,0.477,0.112,0.87,0.365,1.123c0.252,0.253,0.618,0.394,1.095,0.394c0.646,0,1.292-0.226,1.91-0.675l0.056,0.337l0.084,0.141
		l0.168,0.028h0.421c0.14,0,0.196-0.057,0.196-0.196v-4.634c0-0.141-0.056-0.197-0.196-0.197h-0.59
		C21.264,18.078,21.207,18.163,21.207,18.275z"/>
	<path class="st2" d="M32.357,29.509c1.46-1.235,1.854-3.791,1.545-4.185c-0.141-0.169-0.814-0.337-1.657-0.337
		c-0.898,0-1.966,0.196-2.78,0.758c-0.253,0.169-0.197,0.394,0.056,0.365c0.871-0.112,2.836-0.337,3.202,0.112
		c0.337,0.449-0.393,2.304-0.73,3.118C31.908,29.593,32.104,29.678,32.357,29.509z"/>
	<path class="st2" d="M31.177,26.869c-3.061,1.292-6.403,1.938-9.437,1.938c-4.493,0-8.847-1.235-12.357-3.286l-0.168-0.056
		c-0.197,0-0.309,0.225-0.113,0.421c3.258,2.949,7.583,4.719,12.357,4.719c3.426,0,7.386-1.067,10.11-3.09
		C32.048,27.178,31.655,26.672,31.177,26.869z"/>
	<path class="st2" d="M23.126,11.843v-0.555l0.141-0.141h2.486l0.143,0.14v0.476c0,0.08-0.068,0.184-0.187,0.349l-1.288,1.839
		c0.478-0.011,0.984,0.061,1.418,0.304c0.098,0.055,0.125,0.137,0.132,0.217v0.592c0,0.082-0.089,0.176-0.184,0.127
		c-0.765-0.401-1.78-0.445-2.626,0.005l-0.177-0.129v-0.562c0-0.09,0.002-0.244,0.093-0.381l1.492-2.141H23.27L23.126,11.843"/>
	<path class="st2" d="M14.057,15.308h-0.756l-0.135-0.127l0-3.882l0.146-0.14h0.705l0.137,0.13v0.507h0.014
		c0.184-0.49,0.53-0.719,0.996-0.719c0.473,0,0.77,0.229,0.981,0.719c0.184-0.49,0.6-0.719,1.045-0.719
		c0.318,0,0.664,0.131,0.875,0.425c0.24,0.327,0.191,0.801,0.191,1.217l-0.001,2.45l-0.146,0.14h-0.755l-0.136-0.139V13.11
		c0-0.163,0.014-0.572-0.021-0.727c-0.056-0.261-0.226-0.335-0.444-0.335c-0.184,0-0.375,0.123-0.452,0.318
		c-0.078,0.196-0.071,0.523-0.071,0.744v2.058l-0.146,0.14h-0.755l-0.136-0.139l0-2.058c0-0.433,0.07-1.07-0.466-1.07
		c-0.544,0-0.522,0.621-0.522,1.07l0,2.058L14.057,15.308"/>
	<path class="st2" d="M28.044,11.869c-0.558,0-0.593,0.76-0.593,1.233c0,0.474-0.007,1.487,0.586,1.487
		c0.586,0,0.614-0.817,0.614-1.315c0-0.327-0.014-0.719-0.113-1.029C28.454,11.975,28.284,11.869,28.044,11.869z M28.037,11.076
		c1.123,0,1.729,0.964,1.729,2.189c0,1.185-0.67,2.124-1.729,2.124c-1.102,0-1.702-0.964-1.702-2.165
		C26.335,12.016,26.942,11.076,28.037,11.076z"/>
	<path class="st2" d="M31.223,15.308h-0.754l-0.136-0.139l-0.001-3.883l0.145-0.127h0.702l0.135,0.108v0.594h0.014
		c0.212-0.531,0.508-0.784,1.031-0.784c0.339,0,0.671,0.123,0.882,0.458c0.198,0.311,0.198,0.833,0.198,1.209v2.443l-0.145,0.122
		h-0.758l-0.135-0.122v-2.107c0-0.425,0.049-1.046-0.473-1.046c-0.184,0-0.353,0.123-0.438,0.31c-0.106,0.237-0.12,0.474-0.12,0.736
		v2.09L31.223,15.308"/>
	<g>
		<defs>
			<polyline id="SVGID_1_" points="18.915,11.039 22.531,11.039 22.531,15.362 18.915,15.362 18.915,11.039 			"/>
		</defs>
		<clipPath id="SVGID_2_">
			<use xlink:href="#SVGID_1_"  style="overflow:visible;"/>
		</clipPath>
		<path class="st3" d="M20.479,14.6c-0.29,0-0.46-0.221-0.46-0.549c0-0.644,0.578-0.761,1.125-0.761v0.164
			c0,0.295,0.007,0.54-0.142,0.802C20.883,14.469,20.691,14.6,20.479,14.6 M20.763,11.039H20.7
			c-0.711,0.008-1.492,0.282-1.657,1.158c-0.018,0.095,0.051,0.144,0.113,0.158l0.733,0.08l0.131-0.139
			c0.063-0.307,0.319-0.454,0.608-0.454c0.156,0,0.333,0.057,0.424,0.196c0.106,0.156,0.092,0.368,0.092,0.548v0.098
			c-0.439,0.049-1.012,0.082-1.422,0.262c-0.474,0.205-0.807,0.623-0.807,1.236c0,0.786,0.495,1.179,1.132,1.179l0,0
			c0.538,0,0.832-0.127,1.247-0.55c0.138,0.199,0.183,0.295,0.434,0.504l0.179-0.018l0.002,0.001
			c0.151-0.134,0.426-0.373,0.58-0.502l0.002-0.201c-0.138-0.191-0.286-0.346-0.286-0.701v-1.178c0-0.5,0.036-0.958-0.332-1.302
			C21.59,11.144,21.127,11.044,20.763,11.039"/>
	</g>
	<g>
		<defs>
			<polyline id="SVGID_3_" points="9,11.039 12.616,11.039 12.616,15.362 9,15.362 9,11.039 			"/>
		</defs>
		<clipPath id="SVGID_4_">
			<use xlink:href="#SVGID_3_"  style="overflow:visible;"/>
		</clipPath>
		<path class="st4" d="M10.132,15.361L10.132,15.361L10.132,15.361L10.132,15.361 M9.004,14.062C9.001,14.101,9,14.142,9,14.183l0,0
			c0,0.043,0.001,0.085,0.004,0.126V14.062"/>
		<path class="st5" d="M10.563,14.6c-0.29,0-0.46-0.221-0.46-0.549c0-0.644,0.578-0.761,1.125-0.761v0.164
			c0,0.295,0.007,0.54-0.141,0.802C10.967,14.469,10.776,14.6,10.563,14.6 M10.847,11.039h-0.063
			c-0.711,0.008-1.492,0.282-1.657,1.158c-0.018,0.095,0.051,0.144,0.113,0.158l0.733,0.08l0.131-0.139
			c0.062-0.307,0.319-0.454,0.608-0.454c0.155,0,0.333,0.057,0.424,0.196c0.106,0.156,0.092,0.368,0.092,0.548v0.098
			c-0.438,0.049-1.012,0.082-1.422,0.262c-0.442,0.191-0.762,0.568-0.802,1.116v0.246c0.05,0.702,0.526,1.053,1.128,1.053l0,0
			c0.538,0,0.832-0.127,1.247-0.55c0.137,0.199,0.182,0.295,0.433,0.504l0.179-0.018l0.002,0.001
			c0.151-0.134,0.426-0.373,0.58-0.502l0.002-0.201c-0.138-0.191-0.286-0.346-0.286-0.701v-1.178c0-0.5,0.036-0.958-0.332-1.302
			C11.675,11.144,11.211,11.044,10.847,11.039"/>
	</g>
</g>
</svg>
