<?xml version="1.0" encoding="utf-8"?>
<!-- Generator: Adobe Illustrator 25.2.3, SVG Export Plug-In . SVG Version: 6.00 Build 0)  -->
<svg version="1.1" id="Layer_1" xmlns="http://www.w3.org/2000/svg" xmlns:xlink="http://www.w3.org/1999/xlink" x="0px" y="0px"
	 viewBox="0 0 160 40" style="enable-background:new 0 0 160 40;" xml:space="preserve">
<style type="text/css">
	.st0{fill-rule:evenodd;clip-rule:evenodd;fill:#EDF2F7;}
	.st1{fill:#C1C4C6;}
	.st2{fill-rule:evenodd;clip-rule:evenodd;fill:#1ED760;}
</style>
<g>
	<path class="st0" d="M7.5,0.5h145c3.866,0,7,3.134,7,7v25c0,3.866-3.134,7-7,7H7.5c-3.866,0-7-3.134-7-7v-25
		C0.5,3.634,3.634,0.5,7.5,0.5z"/>
	<path class="st1" d="M7.5,0.5V1h145c1.797,0,3.418,0.727,4.596,1.904C158.273,4.082,159,5.703,159,7.5v25
		c0,1.797-0.727,3.418-1.904,4.596c-1.178,1.177-2.8,1.903-4.596,1.904H7.5c-1.797,0-3.418-0.727-4.596-1.904
		C1.727,35.918,1,34.297,1,32.5l0-25c0-1.797,0.727-3.418,1.904-4.596C4.082,1.727,5.703,1,7.5,1V0.5V0C3.357,0,0,3.357,0,7.5v25
		C0,36.643,3.357,40,7.5,40l0,0h145l0,0c4.143,0,7.5-3.357,7.5-7.5v-25c0-4.143-3.357-7.5-7.5-7.5H7.5V0.5z"/>
	<path d="M43,14.896V9.104h0.91v5.028h2.758v0.764H43z M48.009,9.999c-0.282,0-0.528-0.217-0.528-0.495S47.727,9,48.009,9
		c0.291,0,0.528,0.226,0.528,0.503S48.3,9.999,48.009,9.999z M47.608,14.896v-4.194h0.819v4.194H47.608z M49.304,14.349l0.392-0.573
		c0.3,0.312,0.883,0.599,1.475,0.599c0.619,0,0.946-0.243,0.946-0.599c0-0.417-0.5-0.556-1.065-0.677
		c-0.746-0.165-1.62-0.356-1.62-1.259c0-0.668,0.601-1.242,1.675-1.242c0.755,0,1.302,0.261,1.675,0.599l-0.364,0.547
		c-0.255-0.295-0.746-0.512-1.301-0.512s-0.901,0.208-0.901,0.547c0,0.364,0.474,0.486,1.02,0.607
		c0.765,0.165,1.675,0.365,1.675,1.329c0,0.721-0.619,1.285-1.775,1.285C50.396,15,49.75,14.783,49.304,14.349z M55.114,15
		c-0.692,0-1.047-0.374-1.047-1.033v-2.579h-0.728v-0.686h0.728V9.556h0.819v1.146h0.892v0.686h-0.892v2.405
		c0,0.295,0.146,0.512,0.428,0.512c0.191,0,0.364-0.078,0.446-0.165l0.209,0.591C55.796,14.887,55.542,15,55.114,15z M56.372,12.794
		c0-1.215,0.919-2.197,2.203-2.197c1.32,0,2.139,0.981,2.139,2.266v0.191h-3.477c0.064,0.712,0.61,1.302,1.493,1.302
		c0.464,0,0.974-0.174,1.302-0.495l0.382,0.513C59.977,14.783,59.358,15,58.648,15C57.337,15,56.372,14.114,56.372,12.794z
		 M58.575,11.24c-0.883,0-1.301,0.677-1.347,1.25h2.685C59.895,11.935,59.503,11.24,58.575,11.24z M64.667,14.896v-2.683
		c0-0.695-0.374-0.92-0.938-0.92c-0.51,0-0.974,0.295-1.211,0.607v2.996H61.7v-4.194h0.819v0.591
		c0.292-0.339,0.874-0.695,1.557-0.695c0.928,0,1.411,0.469,1.411,1.354v2.944H64.667z M70.998,15c-1.365,0-2.221-0.99-2.221-2.206
		c0-1.207,0.855-2.197,2.221-2.197c1.375,0,2.221,0.99,2.221,2.197C73.219,14.01,72.373,15,70.998,15z M70.998,14.305
		c0.883,0,1.365-0.712,1.365-1.511c0-0.79-0.482-1.502-1.365-1.502c-0.874,0-1.365,0.712-1.365,1.502
		C69.633,13.593,70.124,14.305,70.998,14.305z M77.181,14.896v-2.683c0-0.695-0.373-0.92-0.938-0.92c-0.51,0-0.974,0.295-1.21,0.607
		v2.996h-0.819v-4.194h0.819v0.591c0.292-0.339,0.874-0.695,1.557-0.695c0.928,0,1.411,0.469,1.411,1.354v2.944H77.181z"/>
	<path class="st2" d="M29.894,18.082c-4.029-2.393-10.675-2.613-14.522-1.445c-0.618,0.188-1.271-0.162-1.458-0.779
		s0.161-1.271,0.779-1.458c4.416-1.34,11.756-1.082,16.394,1.672c0.556,0.33,0.738,1.047,0.409,1.602
		C31.167,18.228,30.448,18.412,29.894,18.082z M29.762,21.626c-0.283,0.458-0.882,0.603-1.34,0.32
		c-3.359-2.064-8.482-2.663-12.456-1.457c-0.515,0.156-1.06-0.135-1.216-0.649c-0.155-0.516,0.136-1.059,0.65-1.215
		c4.54-1.378,10.184-0.711,14.042,1.66C29.9,20.568,30.044,21.168,29.762,21.626z M28.233,25.029
		c-0.225,0.368-0.705,0.484-1.071,0.26c-2.936-1.794-6.63-2.199-10.981-1.206c-0.419,0.097-0.837-0.166-0.933-0.586
		c-0.096-0.419,0.166-0.837,0.586-0.933c4.762-1.088,8.846-0.62,12.141,1.394C28.341,24.183,28.457,24.662,28.233,25.029z M22.5,7
		C15.597,7,10,12.597,10,19.5C10,26.404,15.597,32,22.5,32C29.404,32,35,26.404,35,19.5C35,12.597,29.404,7,22.5,7z"/>
	<path d="M47.188,31.199c2.789,0,4.565-1.42,4.565-3.678c0-1.742-1.029-2.747-3.536-3.278l-1.312-0.274
		c-1.552-0.332-2.167-0.912-2.167-1.784c0-1.096,1.029-1.776,2.432-1.776c1.453,0,2.44,0.738,2.557,1.942h1.801
		c-0.058-2.092-1.793-3.528-4.333-3.528c-2.548,0-4.35,1.411-4.35,3.461c0,1.727,1.087,2.839,3.486,3.345l1.303,0.274
		c1.602,0.349,2.233,0.93,2.233,1.859c0,1.071-1.087,1.851-2.606,1.851c-1.594,0-2.723-0.713-2.889-1.9h-1.81
		C42.681,29.846,44.482,31.199,47.188,31.199z M54.999,33.889v-4.324h0.042c0.498,0.971,1.494,1.585,2.748,1.585
		c2.191,0,3.644-1.751,3.644-4.516s-1.461-4.507-3.677-4.507c-1.262,0-2.266,0.639-2.781,1.643h-0.033v-1.502h-1.735v11.621H54.999z
		 M57.282,29.631c-1.378,0-2.291-1.18-2.291-2.997c0-1.802,0.921-2.997,2.291-2.997c1.419,0,2.308,1.171,2.308,2.997
		C59.589,28.469,58.701,29.631,57.282,29.631z M66.562,31.166c2.499,0,4.142-1.719,4.142-4.532c0-2.806-1.652-4.524-4.142-4.524
		s-4.142,1.719-4.142,4.524C62.42,29.447,64.063,31.166,66.562,31.166z M66.562,29.688c-1.403,0-2.316-1.112-2.316-3.055
		c0-1.935,0.913-3.046,2.316-3.046s2.316,1.111,2.316,3.046C68.878,28.576,67.973,29.688,66.562,29.688z M75.07,31.059
		c0.398,0,0.797-0.033,0.996-0.084v-1.419c-0.116,0.024-0.407,0.042-0.589,0.042c-0.73,0-1.062-0.341-1.062-1.096v-4.814h1.66v-1.42
		h-1.66v-2.067h-1.801v2.067h-1.27v1.42h1.27v5.014C72.613,30.386,73.302,31.059,75.07,31.059z M78.499,20.856
		c0.573,0,1.029-0.465,1.029-1.029c0-0.573-0.457-1.029-1.029-1.029s-1.038,0.457-1.038,1.029
		C77.461,20.392,77.926,20.856,78.499,20.856z M79.395,31v-8.732h-1.793V31H79.395z M83.554,31v-7.312h1.743v-1.403h-1.768v-0.821
		c0-0.772,0.365-1.163,1.145-1.163c0.241,0,0.482,0.017,0.656,0.05v-1.328c-0.232-0.042-0.639-0.083-1.004-0.083
		c-1.777,0-2.574,0.797-2.574,2.491v0.854h-1.203v1.403h1.203V31H83.554z M87.58,34.254c1.809,0,2.672-0.681,3.42-2.797l3.27-9.189
		h-1.893l-2.207,7.105h-0.033l-2.209-7.105h-1.941l3.154,8.74l-0.158,0.54c-0.273,0.896-0.723,1.245-1.553,1.245
		c-0.148,0-0.447,0-0.58-0.033v1.453C86.982,34.237,87.43,34.254,87.58,34.254z"/>
</g>
</svg>
