<?xml version="1.0" encoding="utf-8"?>
<!-- Generator: Adobe Illustrator 25.2.3, SVG Export Plug-In . SVG Version: 6.00 Build 0)  -->
<svg version="1.1" id="Layer_1" xmlns="http://www.w3.org/2000/svg" xmlns:xlink="http://www.w3.org/1999/xlink" x="0px" y="0px"
	 viewBox="0 0 160 40" style="enable-background:new 0 0 160 40;" xml:space="preserve">
<style type="text/css">
	.st0{fill-rule:evenodd;clip-rule:evenodd;fill:#EDF2F7;}
	.st1{fill:#C1C4C6;}
	.st2{fill-rule:evenodd;clip-rule:evenodd;fill:#3392C5;}
	.st3{fill-rule:evenodd;clip-rule:evenodd;fill:#622268;}
	.st4{fill-rule:evenodd;clip-rule:evenodd;fill:#FBC818;}
	.st5{fill-rule:evenodd;clip-rule:evenodd;fill:#EC8A22;}
	.st6{fill-rule:evenodd;clip-rule:evenodd;fill:#C53726;}
</style>
<g>
	<path class="st0" d="M7.5,0.5h145c3.866,0,7,3.134,7,7v25c0,3.866-3.134,7-7,7H7.5c-3.866,0-7-3.134-7-7v-25
		C0.5,3.634,3.634,0.5,7.5,0.5z"/>
	<path class="st1" d="M7.5,0.5V1h145c1.797,0,3.418,0.727,4.596,1.904C158.273,4.082,159,5.703,159,7.5v25
		c0,1.797-0.727,3.418-1.904,4.596c-1.178,1.177-2.8,1.903-4.596,1.904H7.5c-1.797,0-3.418-0.727-4.596-1.904
		C1.727,35.918,1,34.297,1,32.5l0-25c0-1.797,0.727-3.418,1.904-4.596C4.082,1.727,5.703,1,7.5,1V0.5V0C3.357,0,0,3.357,0,7.5v25
		C0,36.643,3.357,40,7.5,40l0,0h145l0,0c4.143,0,7.5-3.357,7.5-7.5v-25c0-4.143-3.357-7.5-7.5-7.5H7.5V0.5z"/>
	<path d="M43,14.896V9.104h0.91v5.028h2.758v0.764H43z M48.009,9.999c-0.282,0-0.528-0.217-0.528-0.495S47.727,9,48.009,9
		c0.291,0,0.528,0.226,0.528,0.503S48.3,9.999,48.009,9.999z M47.608,14.896v-4.194h0.819v4.194H47.608z M49.304,14.349l0.392-0.573
		c0.3,0.312,0.883,0.599,1.475,0.599c0.619,0,0.946-0.243,0.946-0.599c0-0.417-0.5-0.556-1.065-0.677
		c-0.746-0.165-1.62-0.356-1.62-1.259c0-0.668,0.601-1.242,1.675-1.242c0.755,0,1.302,0.261,1.675,0.599l-0.364,0.547
		c-0.255-0.295-0.746-0.512-1.301-0.512s-0.901,0.208-0.901,0.547c0,0.364,0.474,0.486,1.02,0.607
		c0.765,0.165,1.675,0.365,1.675,1.329c0,0.721-0.619,1.285-1.775,1.285C50.396,15,49.75,14.783,49.304,14.349z M55.114,15
		c-0.692,0-1.047-0.374-1.047-1.033v-2.579h-0.728v-0.686h0.728V9.556h0.819v1.146h0.892v0.686h-0.892v2.405
		c0,0.295,0.146,0.512,0.428,0.512c0.191,0,0.364-0.078,0.446-0.165l0.209,0.591C55.796,14.887,55.542,15,55.114,15z M56.372,12.794
		c0-1.215,0.919-2.197,2.203-2.197c1.32,0,2.139,0.981,2.139,2.266v0.191h-3.477c0.064,0.712,0.61,1.302,1.493,1.302
		c0.464,0,0.974-0.174,1.302-0.495l0.382,0.513C59.977,14.783,59.358,15,58.648,15C57.337,15,56.372,14.114,56.372,12.794z
		 M58.575,11.24c-0.883,0-1.301,0.677-1.347,1.25h2.685C59.895,11.935,59.503,11.24,58.575,11.24z M64.667,14.896v-2.683
		c0-0.695-0.374-0.92-0.938-0.92c-0.51,0-0.974,0.295-1.211,0.607v2.996H61.7v-4.194h0.819v0.591
		c0.292-0.339,0.874-0.695,1.557-0.695c0.928,0,1.411,0.469,1.411,1.354v2.944H64.667z M70.998,15c-1.365,0-2.221-0.99-2.221-2.206
		c0-1.207,0.855-2.197,2.221-2.197c1.375,0,2.221,0.99,2.221,2.197C73.219,14.01,72.373,15,70.998,15z M70.998,14.305
		c0.883,0,1.365-0.712,1.365-1.511c0-0.79-0.482-1.502-1.365-1.502c-0.874,0-1.365,0.712-1.365,1.502
		C69.633,13.593,70.124,14.305,70.998,14.305z M77.181,14.896v-2.683c0-0.695-0.373-0.92-0.938-0.92c-0.51,0-0.974,0.295-1.21,0.607
		v2.996h-0.819v-4.194h0.819v0.591c0.292-0.339,0.874-0.695,1.557-0.695c0.928,0,1.411,0.469,1.411,1.354v2.944H77.181z"/>
	<rect x="10" y="15" class="st2" width="5" height="15"/>
	<rect x="15" y="13" class="st3" width="5" height="15"/>
	<rect x="20" y="15" class="st4" width="5" height="15"/>
	<rect x="25" y="12" class="st5" width="5" height="15"/>
	<rect x="30" y="14" class="st6" width="5" height="15"/>
	<path d="M47.188,31.199c2.789,0,4.565-1.42,4.565-3.678c0-1.742-1.029-2.747-3.536-3.278l-1.312-0.274
		c-1.552-0.332-2.167-0.912-2.167-1.784c0-1.096,1.029-1.776,2.432-1.776c1.453,0,2.44,0.738,2.557,1.942h1.801
		c-0.058-2.092-1.793-3.528-4.333-3.528c-2.548,0-4.35,1.411-4.35,3.461c0,1.727,1.087,2.839,3.486,3.345l1.303,0.274
		c1.602,0.349,2.233,0.93,2.233,1.859c0,1.071-1.087,1.851-2.606,1.851c-1.594,0-2.723-0.713-2.889-1.9h-1.81
		C42.681,29.846,44.482,31.199,47.188,31.199z M56.186,31.059c0.398,0,0.797-0.033,0.996-0.084v-1.419
		c-0.116,0.024-0.407,0.042-0.589,0.042c-0.73,0-1.062-0.341-1.062-1.096v-4.814h1.66v-1.42h-1.66v-2.067h-1.801v2.067h-1.27v1.42
		h1.27v5.014C53.729,30.386,54.418,31.059,56.186,31.059z M59.614,20.856c0.573,0,1.029-0.465,1.029-1.029
		c0-0.573-0.457-1.029-1.029-1.029s-1.038,0.457-1.038,1.029C58.577,20.392,59.042,20.856,59.614,20.856z M60.511,31v-8.732h-1.793
		V31H60.511z M65.325,31.059c0.398,0,0.797-0.033,0.996-0.084v-1.419c-0.116,0.024-0.407,0.042-0.589,0.042
		c-0.73,0-1.062-0.341-1.062-1.096v-4.814h1.66v-1.42h-1.66v-2.067h-1.801v2.067h-1.27v1.42h1.27v5.014
		C62.868,30.386,63.557,31.059,65.325,31.059z M71.534,31.166c2.1,0,3.586-1.262,3.777-3.121h-1.727
		c-0.208,1.013-0.93,1.619-2.034,1.619c-1.395,0-2.316-1.113-2.316-3.03c0-1.876,0.913-3.03,2.299-3.03
		c1.17,0,1.868,0.739,2.05,1.669h1.71c-0.158-1.718-1.527-3.163-3.777-3.163c-2.482,0-4.109,1.752-4.109,4.524
		C67.409,29.456,69.036,31.166,71.534,31.166z M78.44,31v-5.047c0-1.378,0.813-2.291,2.142-2.291c1.262,0,1.909,0.771,1.909,2.059
		V31h1.802v-5.628c0-1.976-1.146-3.254-3.063-3.254c-1.328,0-2.283,0.589-2.764,1.61h-0.042v-4.707h-1.776V31H78.44z M89.746,31.166
		c2,0,3.512-1.137,3.76-2.73h-1.701c-0.24,0.764-0.996,1.277-2.018,1.277c-1.436,0-2.349-1.004-2.349-2.523v-0.107h6.167v-0.614
		c0-2.647-1.51-4.358-3.934-4.358c-2.466,0-4.043,1.826-4.043,4.566C85.629,29.432,87.182,31.166,89.746,31.166z M91.812,25.828
		h-4.365c0.091-1.319,0.971-2.273,2.225-2.273C90.925,23.555,91.771,24.492,91.812,25.828z M96.785,31v-5.229
		c0-1.237,0.714-2.009,1.867-2.009c0.35,0,0.664,0.041,0.806,0.1v-1.668c-0.133-0.025-0.356-0.066-0.614-0.066
		c-1.029,0-1.81,0.605-2.1,1.627h-0.042v-1.486h-1.71V31H96.785z"/>
</g>
</svg>
