<?xml version="1.0" encoding="utf-8"?>
<!-- Generator: Adobe Illustrator 25.2.3, SVG Export Plug-In . SVG Version: 6.00 Build 0)  -->
<svg version="1.1" id="Layer_1" xmlns="http://www.w3.org/2000/svg" xmlns:xlink="http://www.w3.org/1999/xlink" x="0px" y="0px"
	 viewBox="0 0 160 40" style="enable-background:new 0 0 160 40;" xml:space="preserve">
<style type="text/css">
	.st0{fill-rule:evenodd;clip-rule:evenodd;fill:#EDF2F7;}
	.st1{fill:#C1C4C6;}
	.st2{fill:#2299F8;}
</style>
<g>
	<path class="st0" d="M7.5,0.5h145c3.866,0,7,3.134,7,7v25c0,3.866-3.134,7-7,7H7.5c-3.866,0-7-3.134-7-7v-25
		C0.5,3.634,3.634,0.5,7.5,0.5z"/>
	<path class="st1" d="M7.5,0.5V1h145c1.797,0,3.418,0.727,4.596,1.904C158.273,4.082,159,5.703,159,7.5v25
		c0,1.797-0.727,3.418-1.904,4.596c-1.178,1.177-2.8,1.903-4.596,1.904H7.5c-1.797,0-3.418-0.727-4.596-1.904
		C1.727,35.918,1,34.297,1,32.5l0-25c0-1.797,0.727-3.418,1.904-4.596C4.082,1.727,5.703,1,7.5,1V0.5V0C3.357,0,0,3.357,0,7.5v25
		C0,36.643,3.357,40,7.5,40l0,0h145l0,0c4.143,0,7.5-3.357,7.5-7.5v-25c0-4.143-3.357-7.5-7.5-7.5H7.5V0.5z"/>
	<path d="M43,14.896V9.104h0.91v5.028h2.758v0.764H43z M48.009,9.999c-0.282,0-0.528-0.217-0.528-0.495S47.727,9,48.009,9
		c0.291,0,0.528,0.226,0.528,0.503S48.3,9.999,48.009,9.999z M47.608,14.896v-4.194h0.819v4.194H47.608z M49.304,14.349l0.392-0.573
		c0.3,0.312,0.883,0.599,1.475,0.599c0.619,0,0.946-0.243,0.946-0.599c0-0.417-0.5-0.556-1.065-0.677
		c-0.746-0.165-1.62-0.356-1.62-1.259c0-0.668,0.601-1.242,1.675-1.242c0.755,0,1.302,0.261,1.675,0.599l-0.364,0.547
		c-0.255-0.295-0.746-0.512-1.301-0.512s-0.901,0.208-0.901,0.547c0,0.364,0.474,0.486,1.02,0.607
		c0.765,0.165,1.675,0.365,1.675,1.329c0,0.721-0.619,1.285-1.775,1.285C50.396,15,49.75,14.783,49.304,14.349z M55.114,15
		c-0.692,0-1.047-0.374-1.047-1.033v-2.579h-0.728v-0.686h0.728V9.556h0.819v1.146h0.892v0.686h-0.892v2.405
		c0,0.295,0.146,0.512,0.428,0.512c0.191,0,0.364-0.078,0.446-0.165l0.209,0.591C55.796,14.887,55.542,15,55.114,15z M56.372,12.794
		c0-1.215,0.919-2.197,2.203-2.197c1.32,0,2.139,0.981,2.139,2.266v0.191h-3.477c0.064,0.712,0.61,1.302,1.493,1.302
		c0.464,0,0.974-0.174,1.302-0.495l0.382,0.513C59.977,14.783,59.358,15,58.648,15C57.337,15,56.372,14.114,56.372,12.794z
		 M58.575,11.24c-0.883,0-1.301,0.677-1.347,1.25h2.685C59.895,11.935,59.503,11.24,58.575,11.24z M64.667,14.896v-2.683
		c0-0.695-0.374-0.92-0.938-0.92c-0.51,0-0.974,0.295-1.211,0.607v2.996H61.7v-4.194h0.819v0.591
		c0.292-0.339,0.874-0.695,1.557-0.695c0.928,0,1.411,0.469,1.411,1.354v2.944H64.667z M70.998,15c-1.365,0-2.221-0.99-2.221-2.206
		c0-1.207,0.855-2.197,2.221-2.197c1.375,0,2.221,0.99,2.221,2.197C73.219,14.01,72.373,15,70.998,15z M70.998,14.305
		c0.883,0,1.365-0.712,1.365-1.511c0-0.79-0.482-1.502-1.365-1.502c-0.874,0-1.365,0.712-1.365,1.502
		C69.633,13.593,70.124,14.305,70.998,14.305z M77.181,14.896v-2.683c0-0.695-0.373-0.92-0.938-0.92c-0.51,0-0.974,0.295-1.21,0.607
		v2.996h-0.819v-4.194h0.819v0.591c0.292-0.339,0.874-0.695,1.557-0.695c0.928,0,1.411,0.469,1.411,1.354v2.944H77.181z"/>
	<path d="M44.963,31v-4.092h2.573c2.349,0,4.001-1.611,4.001-3.951c0-2.333-1.619-3.935-3.943-3.935h-4.491V31H44.963z
		 M47.097,25.348h-2.133v-4.757h2.142c1.61,0,2.532,0.863,2.532,2.374S48.715,25.348,47.097,25.348z M55.505,31.149
		c1.146,0,2.25-0.614,2.756-1.585h0.042V31h1.718v-6.018c0-1.752-1.353-2.873-3.47-2.873c-2.158,0-3.503,1.162-3.603,2.74h1.693
		c0.158-0.781,0.805-1.279,1.843-1.279c1.096,0,1.751,0.582,1.751,1.553v0.672l-2.391,0.142c-2.075,0.116-3.246,1.054-3.246,2.581
		C52.6,30.087,53.795,31.149,55.505,31.149z M56.003,29.73c-0.963,0-1.594-0.498-1.594-1.262c0-0.748,0.606-1.221,1.677-1.295
		l2.15-0.133v0.688C58.236,28.867,57.257,29.73,56.003,29.73z M63.549,31v-5.088c0-1.354,0.813-2.25,2.075-2.25
		c1.245,0,1.859,0.723,1.859,2.033V31h1.801v-5.652c0-2.001-1.104-3.229-3.03-3.229c-1.345,0-2.274,0.614-2.748,1.61h-0.042v-1.461
		h-1.71V31H63.549z M74.29,31.149c1.27,0,2.266-0.64,2.781-1.636h0.033V31h1.743V19.022h-1.801v4.699h-0.033
		c-0.49-0.963-1.486-1.594-2.739-1.594c-2.191,0-3.652,1.751-3.652,4.507S72.082,31.149,74.29,31.149z M74.763,29.631
		c-1.419,0-2.308-1.154-2.308-2.997c0-1.835,0.888-2.997,2.308-2.997c1.378,0,2.299,1.188,2.299,2.997
		C77.062,28.46,76.141,29.631,74.763,29.631z M84.434,31.166c2.498,0,4.143-1.719,4.143-4.532c0-2.806-1.652-4.524-4.143-4.524
		s-4.142,1.719-4.142,4.524C80.292,29.447,81.936,31.166,84.434,31.166z M84.434,29.688c-1.402,0-2.316-1.112-2.316-3.055
		c0-1.935,0.914-3.046,2.316-3.046s2.316,1.111,2.316,3.046C86.75,28.576,85.845,29.688,84.434,29.688z M91.755,31v-5.229
		c0-1.237,0.714-2.009,1.868-2.009c0.348,0,0.664,0.041,0.805,0.1v-1.668c-0.133-0.025-0.357-0.066-0.614-0.066
		c-1.029,0-1.81,0.605-2.101,1.627h-0.041v-1.486h-1.71V31H91.755z M98.097,31.149c1.146,0,2.249-0.614,2.756-1.585h0.042V31h1.718
		v-6.018c0-1.752-1.353-2.873-3.47-2.873c-2.158,0-3.503,1.162-3.603,2.74h1.693c0.157-0.781,0.806-1.279,1.843-1.279
		c1.096,0,1.752,0.582,1.752,1.553v0.672l-2.391,0.142c-2.076,0.116-3.246,1.054-3.246,2.581
		C95.191,30.087,96.387,31.149,98.097,31.149z M98.595,29.73c-0.963,0-1.594-0.498-1.594-1.262c0-0.748,0.606-1.221,1.677-1.295
		l2.15-0.133v0.688C100.828,28.867,99.848,29.73,98.595,29.73z"/>
	<path class="st2" d="M34.947,15.13c-0.435-4.538-4.521-8.092-9.304-8.092H14.01v23.925h5.994c0.826,0,1.499-0.671,1.499-1.496
		v-4.485h4.495c2.528,0,4.954-1.071,6.653-2.938C34.376,20.15,35.191,17.695,34.947,15.13z"/>
</g>
</svg>
