<svg xmlns="http://www.w3.org/2000/svg" id="prefix__Group_8_Copy" width="20" height="20" data-name="Group 8 Copy" viewBox="0 0 20 20">
    <defs>
        <clipPath id="prefix__clip-path">
            <path id="prefix__Clip_2" d="M0 0h20v20H0z" class="prefix__cls-1" data-name="Clip 2"/>
        </clipPath>
        <style>
            .prefix__cls-1{fill:none}.prefix__cls-3{fill:#dadada}
        </style>
    </defs>
    <g id="prefix__Group_3" data-name="Group 3">
        <path id="prefix__Clip_2-2" d="M0 0h20v20H0z" class="prefix__cls-1" data-name="Clip 2"/>
        <g id="prefix__Group_3-2" clip-path="url(#prefix__clip-path)" data-name="Group 3">
            <path id="prefix__Fill_1" d="M10 20c-2.715 0-3.064 0-4.128-.043a7.036 7.036 0 0 1-2.425-.467 4.8 4.8 0 0 1-1.788-1.15 4.78 4.78 0 0 1-1.148-1.787 7.033 7.033 0 0 1-.468-2.425C0 13.064 0 12.715 0 10s0-3.064.043-4.128a7.034 7.034 0 0 1 .468-2.425 4.785 4.785 0 0 1 1.148-1.788A4.784 4.784 0 0 1 3.447.511 7.034 7.034 0 0 1 5.872.043C6.936 0 7.285 0 10 0s3.064 0 4.127.043a7.033 7.033 0 0 1 2.425.468 4.78 4.78 0 0 1 1.788 1.148 4.8 4.8 0 0 1 1.15 1.788 7.036 7.036 0 0 1 .467 2.425C20 6.936 20 7.285 20 10s0 3.064-.043 4.127a7.036 7.036 0 0 1-.467 2.425 5.006 5.006 0 0 1-2.937 2.937 7.036 7.036 0 0 1-2.425.467C13.064 20 12.715 20 10 20zm0-18.213c-1.645 0-2.38.016-2.971.028-.37.008-.661.014-1.072.014a5.813 5.813 0 0 0-1.873.34 3.631 3.631 0 0 0-1.149.766 2.616 2.616 0 0 0-.765 1.15 6.083 6.083 0 0 0-.34 1.873C1.787 7.022 1.787 7.3 1.787 10s0 2.979.043 4.042a5.8 5.8 0 0 0 .34 1.873 3.623 3.623 0 0 0 .766 1.149 2.608 2.608 0 0 0 1.149.766 6.088 6.088 0 0 0 1.873.341c1.064.043 1.346.043 4.043.043s2.979 0 4.042-.043a5.8 5.8 0 0 0 1.873-.341 3.623 3.623 0 0 0 1.149-.766 2.6 2.6 0 0 0 .766-1.149 6.071 6.071 0 0 0 .341-1.873c.043-1.063.043-1.345.043-4.042s0-2.979-.043-4.043a5.814 5.814 0 0 0-.341-1.873 3.631 3.631 0 0 0-.766-1.149 2.613 2.613 0 0 0-1.149-.766 6.067 6.067 0 0 0-1.873-.34C12.979 1.787 12.7 1.787 10 1.787z" class="prefix__cls-3" data-name="Fill 1"/>
        </g>
    </g>
    <path id="prefix__Fill_4" d="M4.47 8.94a4.473 4.473 0 0 1-3.163-7.633 4.473 4.473 0 0 1 6.326 6.326A4.442 4.442 0 0 1 4.47 8.94zm0-7.425a2.918 2.918 0 1 0 2.918 2.918A2.9 2.9 0 0 0 4.47 1.515z" class="prefix__cls-3" data-name="Fill 4" transform="translate(5.53 5.579)"/>
    <path id="prefix__Fill_6" d="M1.358 0A1.358 1.358 0 1 1 0 1.358 1.358 1.358 0 0 1 1.358 0" class="prefix__cls-3" data-name="Fill 6" transform="translate(13.902 3.423)"/>
</svg>
