<?xml version="1.0" encoding="utf-8"?>
<!-- Generator: Adobe Illustrator 26.0.3, SVG Export Plug-In . SVG Version: 6.00 Build 0)  -->
<svg version="1.1" id="Layer_1" xmlns="http://www.w3.org/2000/svg" xmlns:xlink="http://www.w3.org/1999/xlink" x="0px" y="0px"
	 width="13.9px" height="12.4px" viewBox="0 0 13.9 12.4" style="enable-background:new 0 0 13.9 12.4;" xml:space="preserve">
<style type="text/css">
	.st0{fill:#0063C3;}
</style>
<path class="st0" d="M10.8,6.7v4.5c0,0.6-0.5,1.2-1.2,1.2H1.2c-0.6,0-1.2-0.5-1.2-1.2V2.7c0-0.6,0.5-1.2,1.2-1.2h6
	c0.2,0,0.3,0.1,0.4,0.2l0.4,0.4c0.4,0.4,0.1,1-0.4,1h-6v7.7h7.7V7.1c0-0.2,0.1-0.3,0.2-0.4l0.4-0.4C10.2,6,10.8,6.2,10.8,6.7z
	 M13.9,0.9C13.9,0.4,13.5,0,13,0H9.2C8.8,0,8.5,0.3,8.5,0.7v0.4c0,0.4,0.3,0.7,0.7,0.7l1.6,0l-6,6c-0.2,0.2-0.2,0.6,0,0.8l0.6,0.6
	c0.2,0.2,0.6,0.2,0.8,0l6-6l0,1.6c0,0.4,0.3,0.7,0.7,0.7h0.4c0.4,0,0.7-0.3,0.7-0.7V0.9z"/>
</svg>
