<svg xmlns="http://www.w3.org/2000/svg" xmlns:xlink="http://www.w3.org/1999/xlink" viewBox="0 0 88 78"><defs><style>.cls-1{fill:none;clip-rule:evenodd;}.cls-2{fill:#dbdbdb;}.cls-2,.cls-4,.cls-5,.cls-6,.cls-8{fill-rule:evenodd;}.cls-3{clip-path:url(#clip-path);}.cls-4{fill:#ccc;}.cls-5{fill:#0063ae;}.cls-6{fill:#fff;opacity:0.1;}.cls-7,.cls-8{fill:#005480;}.cls-7{opacity:0.58;}.cls-9{clip-path:url(#clip-path-2);}.cls-10{clip-path:url(#clip-path-3);}</style><clipPath id="clip-path"><polygon class="cls-1" points="18 6 8.17 6 8.17 10.43 18 10.43 18 6 18 6"/></clipPath><clipPath id="clip-path-2"><polygon class="cls-1" points="49 6 39.17 6 39.17 10.43 49 10.43 49 6 49 6"/></clipPath><clipPath id="clip-path-3"><polygon class="cls-1" points="80 6 70.17 6 70.17 10.43 80 10.43 80 6 80 6"/></clipPath></defs><g id="CONTENT"><polygon class="cls-2" points="18 6 8.17 6 8.17 10.43 18 10.43 18 6 18 6"/><g class="cls-3"><polygon class="cls-4" points="13 6 8.17 6 8.17 10.43 13 10.43 13 6 13 6"/></g><polygon class="cls-5" points="20 3 6.03 3 6.03 6.86 20 6.86 20 3 20 3"/><polygon class="cls-6" points="13 3 6.03 3 6.03 6.86 13 6.86 13 3 13 3"/><rect class="cls-7" x="3" y="10" width="19" height="65" rx="3.46"/><path class="cls-8" d="M13,10H6.46A3.46,3.46,0,0,0,3,13.46V71.54A3.46,3.46,0,0,0,6.46,75H13Z"/><polygon class="cls-2" points="49 6 39.17 6 39.17 10.43 49 10.43 49 6 49 6"/><g class="cls-9"><polygon class="cls-4" points="44 6 39.17 6 39.17 10.43 44 10.43 44 6 44 6"/></g><polygon class="cls-5" points="51 3 37.03 3 37.03 6.86 51 6.86 51 3 51 3"/><polygon class="cls-6" points="44 3 37.03 3 37.03 6.86 44 6.86 44 3 44 3"/><rect class="cls-7" x="34" y="10" width="19" height="65" rx="3.46"/><path class="cls-8" d="M44,10H37.46A3.46,3.46,0,0,0,34,13.46V71.54A3.46,3.46,0,0,0,37.46,75H44Z"/><polygon class="cls-2" points="80 6 70.17 6 70.17 10.43 80 10.43 80 6 80 6"/><g class="cls-10"><polygon class="cls-4" points="75 6 70.17 6 70.17 10.43 75 10.43 75 6 75 6"/></g><polygon class="cls-5" points="82 3 68.03 3 68.03 6.86 82 6.86 82 3 82 3"/><polygon class="cls-6" points="75 3 68.03 3 68.03 6.86 75 6.86 75 3 75 3"/><rect class="cls-7" x="65" y="10" width="19" height="65" rx="3.46"/><path class="cls-8" d="M75,10H68.46A3.46,3.46,0,0,0,65,13.46V71.54A3.46,3.46,0,0,0,68.46,75H75Z"/><polygon class="cls-4" points="81.16 24.64 68 24.64 68 61 81.16 61 81.16 24.64 81.16 24.64"/><polygon class="cls-4" points="50.16 24.64 37 24.64 37 61 50.16 61 50.16 24.64 50.16 24.64"/><polygon class="cls-4" points="19.16 24.64 6 24.64 6 61 19.16 61 19.16 24.64 19.16 24.64"/></g></svg>