<svg xmlns="http://www.w3.org/2000/svg" viewBox="0 0 83 86"><defs><style>.cls-1{fill:#f0f4f7;}.cls-2{fill:#0e1e28;}.cls-2,.cls-4,.cls-7,.cls-8{opacity:0.1;}.cls-3,.cls-8{fill:#0063ae;}.cls-3{opacity:0.2;}.cls-4{fill:#10152c;}.cls-5,.cls-6,.cls-7{fill:#005480;}.cls-6{opacity:0.87;}</style></defs><g id="CONTENT"><polygon class="cls-1" points="78.52 28.46 4.51 28.46 4.51 82.73 63.79 82.73 78.52 68.01 78.52 28.46"/><rect class="cls-2" x="14.34" y="65.94" width="34.86" height="7.09"/><rect class="cls-2" x="14.34" y="53.17" width="54.35" height="7.09"/><rect class="cls-2" x="14.34" y="40.39" width="54.35" height="7.09"/><polygon class="cls-3" points="78.52 28.46 41.52 28.46 41.52 82.73 63.79 82.73 78.52 68.01 78.52 28.46"/><rect class="cls-4" x="4.51" y="28.46" width="37" height="54.27"/><rect class="cls-5" x="14.34" y="65.94" width="6.02" height="7.09"/><rect class="cls-5" x="14.34" y="53.17" width="6.02" height="7.09"/><rect class="cls-5" x="14.34" y="40.39" width="6.02" height="7.09"/><polyline class="cls-5" points="78.52 28.46 78.52 11.77 41.56 11.77 41.56 28.46"/><rect class="cls-6" x="4.51" y="11.77" width="37" height="16.69"/><path class="cls-1" d="M67.45,17.19a2,2,0,1,1-2-2A2,2,0,0,1,67.45,17.19Z"/><path class="cls-1" d="M51.5,17.19a2,2,0,1,1-2-2A2,2,0,0,1,51.5,17.19Z"/><circle class="cls-1" cx="33.54" cy="17.19" r="2.02"/><circle class="cls-1" cx="17.6" cy="17.19" r="2.02"/><path class="cls-5" d="M16.09,6.35V17.19a1.51,1.51,0,1,0,3,0V6.35a1.51,1.51,0,1,0-3,0Z"/><path class="cls-5" d="M32,6.35V17.19a1.51,1.51,0,0,0,3,0V6.35a1.51,1.51,0,1,0-3,0Z"/><path class="cls-5" d="M48,6.35V17.19a1.52,1.52,0,0,0,3,0V6.35a1.52,1.52,0,1,0-3,0Z"/><path class="cls-5" d="M63.92,6.35V17.19a1.51,1.51,0,1,0,3,0V6.35a1.51,1.51,0,1,0-3,0Z"/><path class="cls-7" d="M32,17.19a1.51,1.51,0,0,0,3,0V11.77H32Z"/><polygon class="cls-8" points="63.79 82.73 78.52 68.01 63.79 68.01 63.79 82.73"/></g></svg>