<svg xmlns="http://www.w3.org/2000/svg" xmlns:xlink="http://www.w3.org/1999/xlink" viewBox="0 0 84 76"><defs><style>.cls-1{fill:url(#New_Gradient_Swatch_9);}.cls-2,.cls-3,.cls-4{fill:#005480;}.cls-13,.cls-15,.cls-3{opacity:0.1;}.cls-4,.cls-8{opacity:0.05;}.cls-5,.cls-6{fill:#f0f4f7;}.cls-14,.cls-5,.cls-7{opacity:0.15;}.cls-15,.cls-7,.cls-8,.cls-9{fill:#10152c;}.cls-9{opacity:0.2;}.cls-10{fill:#567ea1;}.cls-11{opacity:0.5;}.cls-12{fill:#1a2444;}.cls-13{fill:#fff;}</style><linearGradient id="New_Gradient_Swatch_9" x1="103.57" y1="94.74" x2="18.97" y2="10.14" gradientUnits="userSpaceOnUse"><stop offset="0" stop-color="#a2bad3"/><stop offset="1" stop-color="#6285a7"/></linearGradient></defs><g id="CONTENT"><path class="cls-1" d="M26.57,17.5l0,.52-1.7-1.7A6.51,6.51,0,0,0,26.57,17.5Z"/><path class="cls-2" d="M7.76,65,9.64,54.75a5.23,5.23,0,0,1,2.52-3.57L34.6,38.28h14L71,51.18a5.2,5.2,0,0,1,2.52,3.57L75.45,65Z"/><path class="cls-3" d="M73.56,56.14A5.22,5.22,0,0,0,71,52.57L48.61,39.67h-7V66.36H75.45Z"/><path class="cls-4" d="M34.6,38.28,12.16,51.18a5.23,5.23,0,0,0-2.52,3.57L7.76,65H41.6V38.28Z"/><path class="cls-5" d="M55.93,44.42l3.23,2.43c0,5.36-6.36,16.84-7.08,18.11H47.79c1.86-5.47,3.93-16.38,2.74-25.58l6.38,3.68Z"/><path class="cls-5" d="M27.27,44.42,24,46.85C24,52.21,30.4,63.69,31.12,65h4.29c-1.86-5.47-3.92-16.38-2.73-25.58l-6.39,3.68Z"/><path class="cls-6" d="M34.6,38.28l-1.92,1.1c-1.19,9.2.87,20.11,2.73,25.58H47.79c1.86-5.47,3.93-16.38,2.74-25.58l-1.92-1.1Z"/><path class="cls-7" d="M50.53,39.38l-1.92-1.1h-7V65h6.19C49.65,59.49,51.72,48.58,50.53,39.38Z"/><path class="cls-8" d="M34.6,38.28l-1.92,1.1c-1.19,9.2.87,20.11,2.73,25.58H41.6V38.28Z"/><polygon class="cls-9" points="41.6 44.06 34.91 49.11 41.6 45.01 48.29 49.11 41.6 44.06"/><polygon class="cls-10" points="41.6 44.06 38.11 46.72 39.6 48.7 37.95 64.96 45.25 64.96 43.6 48.7 45.1 46.72 41.6 44.06"/><g class="cls-11"><polygon class="cls-12" points="44.04 64.96 45.14 63.86 44.88 61.29 41.2 64.96 44.04 64.96"/><polygon class="cls-12" points="44.24 54.99 38.37 60.86 38.05 64.02 44.5 57.56 44.24 54.99"/><polygon class="cls-12" points="43.6 48.7 43.6 48.7 39.15 53.15 38.83 56.3 43.86 51.27 43.6 48.7"/><polygon class="cls-12" points="44.81 47.1 41.14 44.41 39.47 45.68 43.6 48.7 44.81 47.1"/></g><polygon class="cls-7" points="43.6 48.7 45.1 46.72 41.6 44.06 41.6 64.96 45.25 64.96 43.6 48.7"/><polygon class="cls-13" points="38.11 46.72 39.6 48.7 37.95 64.96 41.6 64.96 41.6 44.06 38.11 46.72"/><path class="cls-2" d="M21.64,6.89c0,5.45,2.07,9.21,4.94,10.61l.35,9H56.27l.33-8.26A11,11,0,0,0,45.67,6.89Z"/><path class="cls-3" d="M56.6,18.26A11,11,0,0,0,45.67,6.89H41.6V26.52H56.27Z"/><path class="cls-14" d="M21.64,6.89c0,5.45,2.07,9.21,4.93,10.61l.36,9H41.6V6.89Z"/><path class="cls-6" d="M28.87,18.07V23.5a2.94,2.94,0,0,0-2.31,3.16,6.87,6.87,0,0,0,2.31,4.54l.58,4.8a4,4,0,0,0,1.79,2.85l5.29,3.41a9.39,9.39,0,0,0,10.15,0L52,38.85A4,4,0,0,0,53.75,36l.58-4.8a6.88,6.88,0,0,0,2.32-4.54,3,3,0,0,0-2.32-3.16V18.07Z"/><path class="cls-15" d="M54.33,23.5V18.07H41.6V43.75a9.34,9.34,0,0,0,5.08-1.49L52,38.85A4,4,0,0,0,53.75,36l.58-4.8a6.88,6.88,0,0,0,2.32-4.54A3,3,0,0,0,54.33,23.5Z"/><path class="cls-13" d="M28.87,18.07V23.5a2.94,2.94,0,0,0-2.31,3.16,6.87,6.87,0,0,0,2.31,4.54l.58,4.8a4,4,0,0,0,1.79,2.85l5.29,3.41a9.28,9.28,0,0,0,5.07,1.49V18.07Z"/></g></svg>