<svg xmlns="http://www.w3.org/2000/svg" viewBox="0 0 46 94"><defs><style>.cls-1,.cls-2{fill:#005480;}.cls-1{opacity:0.74;}</style></defs><g id="CONTENT"><path class="cls-1" d="M18.94,65.1l2.22-1.59.12-.09.2-.14.51-.36a36.69,36.69,0,0,1-5.51-4.77h12.7a20.46,20.46,0,0,0,2.2-2.52H14.52a15.16,15.16,0,0,1-2.4-6.94H34A14.71,14.71,0,0,0,34.11,47c0-.3,0-.59,0-.88h-22a15.24,15.24,0,0,1,2-6.94H31.9a17.18,17.18,0,0,0-2-2.53H15.82A34.77,34.77,0,0,1,22,31.13c.69-.51,1.4-1,2.1-1.51,1-.73,3.06-2.17,4.07-2.91,5.64-4.11,10.55-9,10.55-17.34v-1h0v-2H34.16V8.3H14.55V9.37c0,.5,0,1,.06,1.45H34.05a15.07,15.07,0,0,1-2.28,6.94H17.15a19.56,19.56,0,0,0,2.11,2.52h10.6a50.19,50.19,0,0,1-8.67,7.11C14.42,32.17,7.41,37.11,7.41,47,7.41,55.88,13,60.76,18.94,65.1Z"/><polygon class="cls-2" points="8.67 8.33 8.67 8.15 8.67 8.13 8.67 8.33"/><path class="cls-2" d="M19,26.52,20,25.75l2-1.41c-4.87-3.76-8.73-8-8.73-15v-1l0-2H8.72l-.05,1.8V9.37C8.67,17.6,13.47,22.4,19,26.52Z"/><path class="cls-1" d="M28.46,67.57l-.85.6-.24.17-2,1.41a29.8,29.8,0,0,1,5.12,4.81h-12a17,17,0,0,0-1.91,2.53H32.21A15.2,15.2,0,0,1,34.1,84H14.56c0,.22,0,.45,0,.68s0,.47,0,.72l0,1v.09l19.48,0V88.2h4.56l.08-2.64c0-.3,0-.58,0-.85C38.74,76.49,34,71.69,28.46,67.57Z"/><path class="cls-2" d="M13.31,85.48c0-.28,0-.53,0-.77,0-7,3.86-11.2,8.73-15,1.34-1,2.76-2,4.19-3,.75-.53,1.51-1.06,2.25-1.6C34.46,60.76,40,55.88,40,47S34.45,33.32,28.46,29c-.78.57-1.56,1.12-2.34,1.67l-.7.5c5.43,4,9.94,8.33,9.94,15.88s-4.51,11.88-9.94,15.88c-1,.72-2,1.43-3,2.14-1.17.82-2.34,1.65-3.49,2.51C13.46,71.69,8.67,76.49,8.67,84.71c0,.27,0,.55,0,.85l0,1,.11,1.68,4.68,0-.16-1.84Z"/></g></svg>