<svg xmlns="http://www.w3.org/2000/svg" xmlns:xlink="http://www.w3.org/1999/xlink" viewBox="0 0 73 92"><defs><style>.cls-1{fill:#f0f4f7;}.cls-2{fill:url(#New_Gradient_Swatch_8);}.cls-3{fill:url(#New_Gradient_Swatch_8-2);}.cls-4{fill:url(#New_Gradient_Swatch_8-3);}.cls-5{fill:url(#New_Gradient_Swatch_8-4);}.cls-6{fill:url(#New_Gradient_Swatch_8-5);}.cls-7{fill:url(#New_Gradient_Swatch_8-6);}.cls-8{fill:url(#New_Gradient_Swatch_8-7);}.cls-9{fill:url(#New_Gradient_Swatch_8-8);}.cls-10{fill:url(#New_Gradient_Swatch_8-9);}.cls-11{fill:url(#New_Gradient_Swatch_8-10);}.cls-12{fill:url(#New_Gradient_Swatch_8-11);}.cls-13,.cls-14,.cls-15{fill:#005480;}.cls-14{opacity:0.15;}.cls-15{opacity:0.1;}</style><linearGradient id="New_Gradient_Swatch_8" x1="83.72" y1="85.28" x2="15.3" y2="16.86" gradientUnits="userSpaceOnUse"><stop offset="0" stop-color="#fff"/><stop offset="1" stop-color="#767a80"/></linearGradient><linearGradient id="New_Gradient_Swatch_8-2" x1="90.68" y1="78.33" x2="22.26" y2="9.9" xlink:href="#New_Gradient_Swatch_8"/><linearGradient id="New_Gradient_Swatch_8-3" x1="87.63" y1="81.43" x2="19.18" y2="12.98" xlink:href="#New_Gradient_Swatch_8"/><linearGradient id="New_Gradient_Swatch_8-4" x1="79.84" y1="89.16" x2="11.42" y2="20.74" xlink:href="#New_Gradient_Swatch_8"/><linearGradient id="New_Gradient_Swatch_8-5" x1="76.77" y1="92.26" x2="8.33" y2="23.82" xlink:href="#New_Gradient_Swatch_8"/><linearGradient id="New_Gradient_Swatch_8-6" x1="39.89" y1="41.46" x2="22.99" y2="24.56" xlink:href="#New_Gradient_Swatch_8"/><linearGradient id="New_Gradient_Swatch_8-7" x1="81.73" y1="99.18" x2="24.53" y2="41.99" xlink:href="#New_Gradient_Swatch_8"/><linearGradient id="New_Gradient_Swatch_8-8" x1="91.14" y1="89.74" x2="33.97" y2="32.56" xlink:href="#New_Gradient_Swatch_8"/><linearGradient id="New_Gradient_Swatch_8-9" x1="72.32" y1="108.62" x2="15.11" y2="51.41" xlink:href="#New_Gradient_Swatch_8"/><linearGradient id="New_Gradient_Swatch_8-10" x1="81.73" y1="99.18" x2="24.54" y2="41.99" xlink:href="#New_Gradient_Swatch_8"/><linearGradient id="New_Gradient_Swatch_8-11" x1="71.17" y1="31.91" x2="43.4" y2="4.14" xlink:href="#New_Gradient_Swatch_8"/></defs><g id="CONTENT"><polygon class="cls-1" points="52.45 6.32 66.17 20.05 66.17 85.36 6.29 85.36 6.29 6.32 52.45 6.32"/><path class="cls-2" d="M37.82,26.81a1,1,0,0,0,.55-1.34l-.72-1.74a1,1,0,0,0-.16-.27L66.17,52.14V83.32L21.9,39.05a1,1,0,0,0,.26.16l1.74.72a1,1,0,0,0,1.34-.56L26,37.65a9.53,9.53,0,0,0,2.92,0l.72,1.72a1,1,0,0,0,1.34.56l1.74-.72a1,1,0,0,0,.55-1.33l-.72-1.75a8.8,8.8,0,0,0,2.07-2.06l1.73.73a1,1,0,0,0,1.34-.57l.72-1.74a1,1,0,0,0-.55-1.33l-1.74-.72a8.36,8.36,0,0,0,0-2.91Z"/><path class="cls-3" d="M33,19l4.47,4.47a1,1,0,0,0-1.18-.29l-1.74.72a8.4,8.4,0,0,0-2.06-2.06l.72-1.74A1,1,0,0,0,33,19Z"/><path class="cls-4" d="M25.08,18.32,27,20.21a5.8,5.8,0,0,0-1,.12l-.72-1.74A.81.81,0,0,0,25.08,18.32Z"/><path class="cls-5" d="M17,26.81l1.75.71a7.05,7.05,0,0,0-.11,1l-1.9-1.9A1.4,1.4,0,0,0,17,26.81Z"/><path class="cls-6" d="M21.61,37.88a1,1,0,0,0,.29,1.17l-4.43-4.43h0a1,1,0,0,0,1,.19l1.74-.73a8.76,8.76,0,0,0,2.06,2.06Z"/><path class="cls-7" d="M28.43,26.51A2.67,2.67,0,0,1,29.9,30a2.7,2.7,0,0,1-3.49,1.47,2.67,2.67,0,0,1,2-4.95Z"/><path class="cls-8" d="M53,45.07,66.17,58.24V85.36H42.53L27.62,70.45a1,1,0,0,0,1.45,0L31,68.52a14.29,14.29,0,0,0,4.81,2v2.71a1,1,0,0,0,1,1h4.1a1,1,0,0,0,1-1V70.51a14,14,0,0,0,4.79-2l1.93,1.93a1,1,0,0,0,1.44,0L53,67.54a1,1,0,0,0,0-1.44l-1.92-1.93a14.28,14.28,0,0,0,2-4.79h2.71a1,1,0,0,0,1-1V54.25a1,1,0,0,0-1-1H53.06a14.35,14.35,0,0,0-2-4.79L53,46.52A1,1,0,0,0,53,45.07Z"/><path class="cls-9" d="M41.64,38.66l5.24,5.26-.16.16a14.42,14.42,0,0,0-4.79-2V39.38A1.06,1.06,0,0,0,41.64,38.66Z"/><path class="cls-10" d="M26.63,64.17l-.16.16-5.26-5.24a1.09,1.09,0,0,0,.74.29h2.7A14.28,14.28,0,0,0,26.63,64.17Z"/><path class="cls-11" d="M38.86,62.09a5.78,5.78,0,1,1,5.78-5.78A5.78,5.78,0,0,1,38.86,62.09Z"/><polygon class="cls-12" points="66.17 20.05 66.17 33.77 52.45 20.05 66.17 20.05"/><path class="cls-13" d="M55.77,53.23h-2.7a14.6,14.6,0,0,0-2-4.79L53,46.52a1,1,0,0,0,0-1.45l-2.9-2.9a1,1,0,0,0-1.45,0l-1.91,1.92a14.44,14.44,0,0,0-4.8-2V39.39a1,1,0,0,0-1-1h-4.1a1,1,0,0,0-1,1V42.1a14.39,14.39,0,0,0-4.79,2l-1.92-1.92a1,1,0,0,0-1.45,0l-2.9,2.9a1,1,0,0,0,0,1.45l1.92,1.92a14.39,14.39,0,0,0-2,4.79H21.94a1,1,0,0,0-1,1v4.11a1,1,0,0,0,1,1h2.7a14.67,14.67,0,0,0,2,4.8l-1.92,1.91a1,1,0,0,0,0,1.45l2.9,2.9a1,1,0,0,0,1.45,0L31,68.53a14.6,14.6,0,0,0,4.79,2v2.7a1,1,0,0,0,1,1h4.1a1,1,0,0,0,1-1v-2.7a14.65,14.65,0,0,0,4.8-2l1.91,1.91a1,1,0,0,0,1.45,0l2.9-2.9a1,1,0,0,0,0-1.45l-1.91-1.92a14.51,14.51,0,0,0,2-4.79h2.7a1,1,0,0,0,1-1V54.25A1,1,0,0,0,55.77,53.23ZM38.86,62.09a5.78,5.78,0,1,1,5.78-5.78A5.78,5.78,0,0,1,38.86,62.09Z"/><path class="cls-13" d="M37.82,31.16l-1.74-.72a8.67,8.67,0,0,0,0-2.92l1.74-.72a1,1,0,0,0,.55-1.34l-.72-1.74a1,1,0,0,0-1.34-.55l-1.73.72a8.84,8.84,0,0,0-2.07-2.07l.72-1.73a1,1,0,0,0-.55-1.34L30.94,18a1,1,0,0,0-1.34.55l-.72,1.74a8.67,8.67,0,0,0-2.92,0l-.72-1.74A1,1,0,0,0,23.9,18l-1.74.72a1,1,0,0,0-.55,1.34l.72,1.73a9,9,0,0,0-2.07,2.07l-1.73-.72a1,1,0,0,0-1.34.55l-.72,1.74A1,1,0,0,0,17,26.8l1.74.72a8.67,8.67,0,0,0,0,2.92L17,31.16a1,1,0,0,0-.55,1.34l.72,1.74a1,1,0,0,0,1.34.55l1.73-.72a8.84,8.84,0,0,0,2.07,2.07l-.72,1.74a1,1,0,0,0,.56,1.33l1.73.72a1,1,0,0,0,1.34-.55L26,37.64a8.67,8.67,0,0,0,2.92,0l.72,1.74a1,1,0,0,0,1.34.55l1.74-.72a1,1,0,0,0,.55-1.33l-.72-1.74a8.84,8.84,0,0,0,2.07-2.07l1.73.72a1,1,0,0,0,1.34-.55l.72-1.74A1,1,0,0,0,37.82,31.16Zm-11.41.3A2.67,2.67,0,1,1,29.9,30,2.68,2.68,0,0,1,26.41,31.46Z"/><polygon class="cls-14" points="66.17 20.05 52.45 6.32 36.23 6.32 36.23 85.36 66.17 85.36 66.17 20.05"/><rect class="cls-15" x="6.29" y="6.32" width="29.94" height="79.03"/><polygon class="cls-1" points="52.45 20.05 66.17 20.05 52.45 6.33 52.45 20.05"/></g></svg>