<svg xmlns="http://www.w3.org/2000/svg" viewBox="0 0 110 96"><defs><style>.cls-1,.cls-2{fill:#005480;}.cls-2{opacity:0.58;}</style></defs><g id="CONTENT"><path class="cls-1" d="M44.33,35.87a13.5,13.5,0,0,0-3.5.48l1,1.28a4.75,4.75,0,0,1-1,6.63l-.53.39a4.75,4.75,0,0,1-6.63-1l-.84-1.15A13.36,13.36,0,0,0,55.22,57l-.37-.05a4.75,4.75,0,0,1-4-5.37l.1-.67a4.75,4.75,0,0,1,5-4l.33,0,1.21.17A13.36,13.36,0,0,0,44.33,35.87Z"/><path class="cls-2" d="M28.46,66.43a2.84,2.84,0,0,0,.62,4l.54.41a2.85,2.85,0,0,0,4-.62l5-6.81a15.51,15.51,0,0,1-5.26-3.58Zm3.95-38.26a14.25,14.25,0,0,1-5.14,3.73l7.88,10.65a2.85,2.85,0,0,0,4,.59l.55-.41a2.85,2.85,0,0,0,.59-4ZM56,48.77a2.86,2.86,0,0,0-3.22,2.4l-.1.68a2.85,2.85,0,0,0,2.41,3.21L68.54,57c0-.27,0-.53,0-.8a16.38,16.38,0,0,1,1.37-5.43Z"/><path class="cls-1" d="M35.12,71.31a4.76,4.76,0,0,1-3.82,1.93,4.66,4.66,0,0,1-2.79-.91L28,71.94a4.75,4.75,0,0,1-1-6.62l.53-.73c-.26,0-.52,0-.78,0A11,11,0,1,0,36.11,70Z"/><path class="cls-1" d="M34.07,18.8A12.32,12.32,0,1,1,21.76,6.48,12.31,12.31,0,0,1,34.07,18.8Z"/><path class="cls-1" d="M99.69,58.54A14.66,14.66,0,1,1,86.16,42.83,14.66,14.66,0,0,1,99.69,58.54Z"/></g></svg>