<svg xmlns="http://www.w3.org/2000/svg" viewBox="0 0 110 75"><defs><style>.cls-1{fill:#005480;fill-rule:evenodd;}.cls-2,.cls-4{fill:#fff;}.cls-2,.cls-9{opacity:0.15;}.cls-11,.cls-3,.cls-4{opacity:0.1;}.cls-5{fill:#f0f4f7;}.cls-6{fill:#a2bad3;}.cls-7{fill:#567ea1;}.cls-10,.cls-11,.cls-8,.cls-9{fill:#10152c;}.cls-8{opacity:0.2;}.cls-10{opacity:0.5;}</style></defs><g id="CONTENT"><path class="cls-1" d="M11.49,58.05v2.67a3.64,3.64,0,0,0,3.64,3.64H96.79a3.64,3.64,0,0,0,3.63-3.64V58.05Z"/><path class="cls-2" d="M11.49,58.05v2.67a3.64,3.64,0,0,0,3.64,3.64H56V58.05Z"/><path class="cls-1" d="M92.34,13.31A3.84,3.84,0,0,0,88.5,9.48H23.41a3.84,3.84,0,0,0-3.83,3.83V58.05H92.34Z"/><path class="cls-3" d="M92.34,13.31A3.84,3.84,0,0,0,88.5,9.48H56V58.05H92.34Z"/><path class="cls-4" d="M23.41,9.48a3.84,3.84,0,0,0-3.83,3.83V58.05H56V9.48Z"/><rect class="cls-5" x="23.41" y="13.31" width="65.09" height="42.63"/><rect class="cls-5" x="23.41" y="42.83" width="65.09" height="13.12"/><rect class="cls-6" x="23.41" y="19.87" width="65.09" height="22.95"/><rect class="cls-7" x="23.41" y="13.31" width="65.09" height="6.56"/><rect class="cls-8" x="58.58" y="46.1" width="24.76" height="6.56" rx="0.76"/><rect class="cls-9" x="28.57" y="50.84" width="21.04" height="1.76"/><rect class="cls-9" x="28.57" y="46.18" width="24.76" height="2.62"/><rect class="cls-9" x="58.58" y="36.15" width="21.89" height="1.76"/><rect class="cls-9" x="58.58" y="32.8" width="23.41" height="1.76"/><rect class="cls-9" x="58.58" y="29.45" width="21.04" height="1.76"/><rect class="cls-9" x="58.58" y="24.79" width="24.76" height="2.62"/><rect class="cls-8" x="28.57" y="24.13" width="24.76" height="14.43" rx="0.76"/><rect class="cls-10" x="28.57" y="15.03" width="54.77" height="2.62" rx="0.42"/><rect class="cls-11" x="55.96" y="13.31" width="32.54" height="42.63"/><rect class="cls-4" x="23.41" y="13.31" width="32.54" height="42.63"/><rect class="cls-5" x="51.97" y="60.27" width="7.97" height="1.85" rx="0.88"/><path class="cls-11" d="M59.07,60.27H56v1.86h3.11a.88.88,0,0,0,.87-.88v-.1A.88.88,0,0,0,59.07,60.27Z"/><path class="cls-4" d="M52.85,60.27a.88.88,0,0,0-.88.88v.1a.88.88,0,0,0,.88.88H56V60.27Z"/></g></svg>