<svg xmlns="http://www.w3.org/2000/svg" xmlns:xlink="http://www.w3.org/1999/xlink" viewBox="0 0 78 88"><defs><style>.cls-1{fill:url(#New_Gradient_Swatch_12);}.cls-2{fill:#005480;}.cls-3,.cls-9{opacity:0.1;}.cls-4,.cls-9{fill:#fff;}.cls-4,.cls-8{opacity:0.15;}.cls-5{fill:#f0f4f7;}.cls-6{fill:#567ea1;}.cls-7{fill:#1a2444;}.cls-10{fill:#0063ae;}</style><linearGradient id="New_Gradient_Swatch_12" x1="134.01" y1="100.97" x2="15.47" y2="-17.56" gradientUnits="userSpaceOnUse"><stop offset="0" stop-color="#f9c80a"/><stop offset="1" stop-color="#c08007"/></linearGradient></defs><g id="CONTENT"><path class="cls-1" d="M43.58,10.37h-.35a2.69,2.69,0,0,0-.6-.95Z"/><rect class="cls-2" x="10.72" y="10.37" width="55.68" height="67.98" rx="4.72"/><path class="cls-3" d="M61.67,10.37H38.56v68H61.67a4.72,4.72,0,0,0,4.72-4.73V15.1A4.72,4.72,0,0,0,61.67,10.37Z"/><path class="cls-4" d="M15.44,10.37a4.72,4.72,0,0,0-4.72,4.73V73.63a4.72,4.72,0,0,0,4.72,4.73H38.56v-68Z"/><rect class="cls-5" x="17.46" y="16.56" width="42.18" height="54.99"/><rect class="cls-3" x="23.06" y="63.22" width="30.98" height="2.87"/><rect class="cls-3" x="23.06" y="57.17" width="30.98" height="2.87"/><rect class="cls-3" x="23.06" y="24.3" width="30.98" height="2.87"/><rect class="cls-3" x="23.06" y="31.45" width="7.66" height="9.11"/><rect class="cls-3" x="34.73" y="31.45" width="7.66" height="6.37"/><rect class="cls-3" x="46.39" y="31.45" width="7.66" height="3.74"/><rect class="cls-6" x="46.39" y="35.19" width="7.66" height="18.15"/><rect class="cls-7" x="34.73" y="37.82" width="7.66" height="15.52"/><rect class="cls-6" x="23.06" y="40.56" width="7.66" height="12.78"/><rect class="cls-8" x="38.56" y="16.56" width="21.09" height="54.99"/><rect class="cls-9" x="17.46" y="16.56" width="21.09" height="54.99"/><path class="cls-10" d="M54.32,18.31h0A4.29,4.29,0,0,0,50,14H45.77a2.36,2.36,0,0,1-2.36-2.36v-.34a2.7,2.7,0,0,0-2.7-2.7H36.4a2.7,2.7,0,0,0-2.7,2.7v.34A2.36,2.36,0,0,1,31.34,14H27.08a4.29,4.29,0,0,0-4.29,4.28H54.32Z"/><path class="cls-3" d="M54.32,18.31A4.29,4.29,0,0,0,50,14H45.77a2.36,2.36,0,0,1-2.36-2.36v-.34a2.7,2.7,0,0,0-2.7-2.7H38.56v9.69H54.32Z"/><path class="cls-9" d="M22.79,18.31A4.29,4.29,0,0,1,27.08,14h4.26a2.36,2.36,0,0,0,2.36-2.36v-.34a2.7,2.7,0,0,1,2.7-2.7h2.16v9.69H22.79Z"/></g></svg>