<svg xmlns="http://www.w3.org/2000/svg" viewBox="0 0 76 79"><defs><style>.cls-1{fill:#a2bad3;}.cls-2,.cls-6{opacity:0.2;}.cls-3,.cls-6{fill:#fff;}.cls-3,.cls-5{opacity:0.1;}.cls-4{fill:#005480;}</style></defs><g id="CONTENT"><path class="cls-1" d="M66.8,37.4A28.07,28.07,0,1,1,38.74,9.33,28.06,28.06,0,0,1,66.8,37.4Z"/><path class="cls-2" d="M38.74,9.33V65.46a28.07,28.07,0,0,0,0-56.13Z"/><path class="cls-3" d="M10.67,37.4A28.07,28.07,0,0,0,38.74,65.46V9.33A28.07,28.07,0,0,0,10.67,37.4Z"/><path class="cls-4" d="M38.74,7.43a30,30,0,1,0,30,30A30,30,0,0,0,38.74,7.43ZM55.56,35.61a48.88,48.88,0,0,0-2-12.68,30.09,30.09,0,0,0,4.86-3.1,26.3,26.3,0,0,1,6.65,15.78Zm-15-24.35c3.41,1,6.46,4.59,8.56,9.76a29.08,29.08,0,0,1-8.56,1.79Zm8,1.64a26.3,26.3,0,0,1,7.3,4.41,25.49,25.49,0,0,1-3.49,2.23A27.07,27.07,0,0,0,48.54,12.9ZM37,11.26V22.81A29,29,0,0,1,28.4,21C30.5,15.85,33.54,12.21,37,11.26ZM25.12,19.54a26.37,26.37,0,0,1-3.48-2.23,26.25,26.25,0,0,1,7.29-4.41A27.07,27.07,0,0,0,25.12,19.54ZM37,26.39v9.22H25.47a46.25,46.25,0,0,1,1.76-11.22A32.86,32.86,0,0,0,37,26.39Zm0,12.79v9.23a32.53,32.53,0,0,0-9.72,2,46.25,46.25,0,0,1-1.76-11.22ZM37,52V63.53c-3.41-1-6.45-4.58-8.55-9.76A29,29,0,0,1,37,52Zm-8.05,9.9a26.45,26.45,0,0,1-7.26-4.4,25.62,25.62,0,0,1,3.47-2.23A27.15,27.15,0,0,0,28.9,61.88Zm11.62,1.65V52a29,29,0,0,1,8.55,1.79C47,59,43.93,62.58,40.52,63.53Zm11.84-8.28a26.37,26.37,0,0,1,3.48,2.23,26.35,26.35,0,0,1-7.27,4.4A27.15,27.15,0,0,0,52.36,55.25ZM40.52,48.41V39.18H52A45.77,45.77,0,0,1,50.24,50.4,32.53,32.53,0,0,0,40.52,48.41Zm0-12.8V26.39a32.86,32.86,0,0,0,9.72-2A45.84,45.84,0,0,1,52,35.61ZM19.06,19.83a30,30,0,0,0,4.85,3.1,49.31,49.31,0,0,0-2,12.68h-9.5A26.24,26.24,0,0,1,19.06,19.83ZM12.41,39.18H21.9a49.53,49.53,0,0,0,2,12.69A29.2,29.2,0,0,0,19.06,55,26.24,26.24,0,0,1,12.41,39.18ZM58.42,55a29.28,29.28,0,0,0-4.85-3.09,49.09,49.09,0,0,0,2-12.69h9.5A26.33,26.33,0,0,1,58.42,55Z"/><path class="cls-5" d="M36.88,7.43V67.36a30,30,0,0,0,0-59.93Z"/><path class="cls-6" d="M8.78,37.4a30,30,0,0,0,30,30V7.43A30,30,0,0,0,8.78,37.4Z"/></g></svg>