<svg xmlns="http://www.w3.org/2000/svg" xmlns:xlink="http://www.w3.org/1999/xlink" viewBox="0 0 96 78"><defs><style>.cls-1{isolation:isolate;}.cls-2{fill:url(#New_Gradient_Swatch_9);}.cls-3,.cls-5,.cls-7{fill:#005480;}.cls-4,.cls-5,.cls-6{opacity:0.1;}.cls-6{fill:#fff;}.cls-7{opacity:0.58;}.cls-8{mix-blend-mode:multiply;fill:url(#New_Gradient_Swatch_8);}.cls-9{fill:#f0f4f7;}</style><linearGradient id="New_Gradient_Swatch_9" x1="125.57" y1="129.8" x2="26.04" y2="30.27" gradientUnits="userSpaceOnUse"><stop offset="0" stop-color="#a2bad3"/><stop offset="1" stop-color="#6285a7"/></linearGradient><linearGradient id="New_Gradient_Swatch_8" x1="91.31" y1="81.11" x2="6.7" y2="-3.5" gradientUnits="userSpaceOnUse"><stop offset="0" stop-color="#fff"/><stop offset="1" stop-color="#767a80"/></linearGradient></defs><g class="cls-1"><g id="CONTENT"><path class="cls-2" d="M13.06,16.45v1.66l-2-2a1.25,1.25,0,0,0,.87.36Z"/><path class="cls-3" d="M11.9,65a1.23,1.23,0,0,0-1.23,1.24v1.86a1.24,1.24,0,0,0,1.23,1.24h74a1.24,1.24,0,0,0,1.23-1.24V66.26A1.24,1.24,0,0,0,85.88,65Z"/><path class="cls-4" d="M85.88,65h-37v4.34h37a1.24,1.24,0,0,0,1.23-1.24V66.26A1.24,1.24,0,0,0,85.88,65Z"/><path class="cls-3" d="M11.9,12.11a1.23,1.23,0,0,0-1.23,1.24v1.86a1.24,1.24,0,0,0,1.23,1.24h74a1.24,1.24,0,0,0,1.23-1.24V13.35a1.24,1.24,0,0,0-1.23-1.24Z"/><path class="cls-5" d="M85.88,12.11h-37v4.34h37a1.24,1.24,0,0,0,1.23-1.24V13.35A1.24,1.24,0,0,0,85.88,12.11Z"/><path class="cls-6" d="M11.9,12.11a1.23,1.23,0,0,0-1.23,1.24v1.86a1.24,1.24,0,0,0,1.23,1.24h37V12.11Z"/><path class="cls-3" d="M46.41,12.11h5V10.56a1.25,1.25,0,0,0-1.24-1.24H47.65a1.24,1.24,0,0,0-1.24,1.24Z"/><path class="cls-6" d="M47.65,9.32a1.24,1.24,0,0,0-1.24,1.24v1.55h2.48V9.32Z"/><rect class="cls-7" x="13.06" y="16.45" width="71.66" height="48.57"/><polygon class="cls-8" points="84.71 28.69 84.71 65.02 29.4 65.02 22.27 57.9 34.18 45.98 40.46 48.95 53.26 36.15 62.85 40.27 73.01 30.11 73.68 32.85 78.22 22.19 84.71 28.69"/><polygon class="cls-9" points="78.22 22.2 67.56 26.74 70.31 27.41 61.98 35.74 52.39 31.61 39.66 44.35 33.38 41.38 19.57 55.19 22.27 57.9 34.18 45.98 40.46 48.95 53.26 36.15 62.84 40.27 73.01 30.11 73.67 32.86 78.22 22.2"/><rect class="cls-4" x="48.89" y="16.45" width="35.83" height="48.57"/><rect class="cls-6" x="13.06" y="16.45" width="35.83" height="48.57"/></g></g></svg>