<svg xmlns="http://www.w3.org/2000/svg" viewBox="0 0 57 91"><defs><style>.cls-1{fill:#f0f4f7;}.cls-2,.cls-5,.cls-7{fill:#10152c;}.cls-2{opacity:0.28;}.cls-3,.cls-6{fill:#005480;}.cls-4{fill:#fff;}.cls-4,.cls-5{opacity:0.1;}.cls-6{opacity:0.43;}.cls-7{opacity:0.05;}.cls-8{fill:#0063ae;}</style></defs><g id="CONTENT"><path class="cls-1" d="M50.19,43.83A24.25,24.25,0,0,0,26,19.62v8.1A16.12,16.12,0,1,1,26,60H8.09v5.17H26V78.93H41.91L39.8,63.69A24.2,24.2,0,0,0,50.19,43.83Z"/><path class="cls-2" d="M50.19,43.83A24.25,24.25,0,0,0,26,19.62v8.1A16.12,16.12,0,1,1,26,60v19H41.91L39.8,63.69A24.2,24.2,0,0,0,50.19,43.83Z"/><rect class="cls-2" x="8.09" y="59.95" width="17.88" height="5.17"/><path class="cls-3" d="M46.43,78.93H5.52A1.09,1.09,0,0,0,4.42,80v6.34h43.1V80A1.09,1.09,0,0,0,46.43,78.93Z"/><path class="cls-4" d="M5.52,78.93A1.09,1.09,0,0,0,4.42,80v6.34H26V78.93Z"/><rect class="cls-1" x="14.42" y="43.84" width="7.43" height="5.31"/><rect class="cls-5" x="18.13" y="43.84" width="3.71" height="5.31"/><rect class="cls-6" x="14.42" y="43.84" width="3.71" height="5.31"/><rect class="cls-3" x="10.29" y="9.94" width="15.68" height="33.89"/><rect class="cls-4" x="10.29" y="9.94" width="7.84" height="33.89"/><path class="cls-1" d="M22.4,4.21H13.86a.45.45,0,0,0-.46.45V9.94h9.45V4.66A.45.45,0,0,0,22.4,4.21Z"/><path class="cls-2" d="M22.85,9.94V4.66a.45.45,0,0,0-.45-.45H18.13V9.94Z"/><path class="cls-6" d="M18.13,4.21H13.86a.45.45,0,0,0-.46.45V9.94h4.73Z"/><circle class="cls-1" cx="25.97" cy="22.32" r="5.4" transform="translate(3.42 48.1) rotate(-89.5)"/><path class="cls-7" d="M26,16.93V27.72a5.4,5.4,0,1,0,0-10.79Z"/><path class="cls-6" d="M20.58,22.32A5.39,5.39,0,0,0,26,27.72V16.93A5.39,5.39,0,0,0,20.58,22.32Z"/><path class="cls-8" d="M28.24,22.32A2.27,2.27,0,1,1,26,20.05,2.27,2.27,0,0,1,28.24,22.32Z"/><path class="cls-4" d="M23.7,22.32A2.28,2.28,0,0,0,26,24.6V20.05A2.27,2.27,0,0,0,23.7,22.32Z"/></g></svg>