<?xml version="1.0" encoding="utf-8"?><svg xmlns="http://www.w3.org/2000/svg" xmlns:xlink="http://www.w3.org/1999/xlink"><symbol viewBox="0 0 0 0" id="amgen-minus" xmlns="http://www.w3.org/2000/svg"/><symbol class="absvg-inline--fa abfa-angle-down abfa-w-10" viewBox="0 0 320 512" id="angle-down-regular" xmlns="http://www.w3.org/2000/svg"><path d="M151.5 347.8L3.5 201c-4.7-4.7-4.7-12.3 0-17l19.8-19.8c4.7-4.7 12.3-4.7 17 0L160 282.7l119.7-118.5c4.7-4.7 12.3-4.7 17 0l19.8 19.8c4.7 4.7 4.7 12.3 0 17l-148 146.8c-4.7 4.7-12.3 4.7-17 0z"/></symbol><symbol class="acsvg-inline--fa acfa-angle-left acfa-w-6" viewBox="0 0 192 512" id="angle-left-regular" xmlns="http://www.w3.org/2000/svg"><path d="M4.2 247.5L151 99.5c4.7-4.7 12.3-4.7 17 0l19.8 19.8c4.7 4.7 4.7 12.3 0 17L69.3 256l118.5 119.7c4.7 4.7 4.7 12.3 0 17L168 412.5c-4.7 4.7-12.3 4.7-17 0L4.2 264.5c-4.7-4.7-4.7-12.3 0-17z"/></symbol><symbol class="adsvg-inline--fa adfa-angle-right-curved adfa-w-6" viewBox="0 0 96.38058 181.61084" id="angle-right-curved" xmlns="http://www.w3.org/2000/svg"><path d="M28.325 181.61L.057 153.31c.004-.004 5.753-5.746 11.824-11.83l.5-.499c.353-.355.76-.763 1.208-1.22 5.332-5.427 16.128-16.21 24.012-24.084 3.907-3.904 7.201-7.193 8.957-8.959a47.1 47.1 0 0 0 9.026-12.289 9.153 9.153 0 0 0 .17-6.958 51.099 51.099 0 0 0-9.409-12.847C29.845 58.123 0 28.29 0 28.29L28.279 0s29.848 29.836 46.35 46.339a90.008 90.008 0 0 1 17.344 24.137l.43.94a48.91 48.91 0 0 1-.763 40.333 88.273 88.273 0 0 1-16.717 23.172 4722.598 4722.598 0 0 1-9.054 9.056c-7.828 7.818-18.547 18.526-23.75 23.82-.519.53-.988 1-1.395 1.409l-.543.545c-6.085 6.095-11.856 11.86-11.856 11.86z"/></symbol><symbol class="aesvg-inline--fa aefa-angle-right aefa-w-6" viewBox="0 0 192 512" id="angle-right-regular" xmlns="http://www.w3.org/2000/svg"><path d="M187.8 264.5L41 412.5c-4.7 4.7-12.3 4.7-17 0L4.2 392.7c-4.7-4.7-4.7-12.3 0-17L122.7 256 4.2 136.3c-4.7-4.7-4.7-12.3 0-17L24 99.5c4.7-4.7 12.3-4.7 17 0l146.8 148c4.7 4.7 4.7 12.3 0 17z"/></symbol><symbol class="afsvg-inline--fa affa-angle-up affa-w-10" viewBox="0 0 320 512" id="angle-up-regular" xmlns="http://www.w3.org/2000/svg"><path d="M168.5 164.2l148 146.8c4.7 4.7 4.7 12.3 0 17l-19.8 19.8c-4.7 4.7-12.3 4.7-17 0L160 229.3 40.3 347.8c-4.7 4.7-12.3 4.7-17 0L3.5 328c-4.7-4.7-4.7-12.3 0-17l148-146.8c4.7-4.7 12.3-4.7 17 0z"/></symbol><symbol viewBox="0 0 512 512" id="arrow-up-line" xmlns="http://www.w3.org/2000/svg"><path d="M38.1 300.9l19.8 19.8c4.7 4.7 12.3 4.7 17 0L230 165.6V498c0 6.6 5.4 12 12 12h28c6.6 0 12-5.4 12-12V165.6l155.1 155.1c4.7 4.7 12.3 4.7 17 0l19.8-19.8c4.7-4.7 4.7-12.3 0-17L264.5 74.5c-4.7-4.7-12.3-4.7-17 0L38.1 283.9c-4.7 4.7-4.7 12.3 0 17zM461.4 4H50.6c-8.8 0-16 5.7-16 12.8v25.5c0 7 7.2 12.8 16 12.8h410.8c8.8 0 16-5.7 16-12.8V16.8c0-7.1-7.1-12.8-16-12.8z"/></symbol><symbol class="ahsvg-inline--fa ahfa-arrow-up ahfa-w-14" viewBox="0 0 448 512" id="arrow-up-regular" xmlns="http://www.w3.org/2000/svg"><path d="M6.101 261.899L25.9 281.698c4.686 4.686 12.284 4.686 16.971 0L198 126.568V468c0 6.627 5.373 12 12 12h28c6.627 0 12-5.373 12-12V126.568l155.13 155.13c4.686 4.686 12.284 4.686 16.971 0l19.799-19.799c4.686-4.686 4.686-12.284 0-16.971L232.485 35.515c-4.686-4.686-12.284-4.686-16.971 0L6.101 244.929c-4.687 4.686-4.687 12.284 0 16.97z"/></symbol><symbol class="aisvg-inline--fa aifa-bars aifa-w-14" viewBox="0 0 448 512" id="bars-regular" xmlns="http://www.w3.org/2000/svg"><path d="M436 124H12c-6.627 0-12-5.373-12-12V80c0-6.627 5.373-12 12-12h424c6.627 0 12 5.373 12 12v32c0 6.627-5.373 12-12 12zm0 160H12c-6.627 0-12-5.373-12-12v-32c0-6.627 5.373-12 12-12h424c6.627 0 12 5.373 12 12v32c0 6.627-5.373 12-12 12zm0 160H12c-6.627 0-12-5.373-12-12v-32c0-6.627 5.373-12 12-12h424c6.627 0 12 5.373 12 12v32c0 6.627-5.373 12-12 12z"/></symbol><symbol class="ajsvg-inline--fa ajfa-check ajfa-w-16" viewBox="0 0 512 512" id="check-regular" xmlns="http://www.w3.org/2000/svg"><path d="M435.848 83.466L172.804 346.51l-96.652-96.652c-4.686-4.686-12.284-4.686-16.971 0l-28.284 28.284c-4.686 4.686-4.686 12.284 0 16.971l133.421 133.421c4.686 4.686 12.284 4.686 16.971 0l299.813-299.813c4.686-4.686 4.686-12.284 0-16.971l-28.284-28.284c-4.686-4.686-12.284-4.686-16.97 0z"/></symbol><symbol class="aksvg-inline--fa akfa-times akfa-w-10" viewBox="0 0 320 512" id="close-light" xmlns="http://www.w3.org/2000/svg"><path d="M193.94 256L296.5 153.44l21.15-21.15c3.12-3.12 3.12-8.19 0-11.31l-22.63-22.63c-3.12-3.12-8.19-3.12-11.31 0L160 222.06 36.29 98.34c-3.12-3.12-8.19-3.12-11.31 0L2.34 120.97c-3.12 3.12-3.12 8.19 0 11.31L126.06 256 2.34 379.71c-3.12 3.12-3.12 8.19 0 11.31l22.63 22.63c3.12 3.12 8.19 3.12 11.31 0L160 289.94 262.56 392.5l21.15 21.15c3.12 3.12 8.19 3.12 11.31 0l22.63-22.63c3.12-3.12 3.12-8.19 0-11.31L193.94 256z"/></symbol><symbol class="alsvg-inline--fa alfa-dollar-sign alfa-w-16" viewBox="0 0 512 512" id="dollar-sign" xmlns="http://www.w3.org/2000/svg"><path d="M289.95 449.67V512h-56.206v-60.102c-53.426-1.676-95.166-15.589-131.345-52.32l50.092-50.083c23.37 23.379 55.092 32.275 88.481 33.389V282.156l-17.809-2.228c-33.389-4.448-60.102-16.694-76.796-33.389-18.923-18.923-28.38-43.96-28.38-77.358 0-63.997 43.407-111.299 115.755-119.089V0h56.206v49.531c45.074 2.79 79.577 16.694 109.632 45.636l-48.978 48.416c-18.361-17.809-45.626-25.037-68.444-26.713v96.833l21.142 3.342c36.179 5.562 58.996 15.58 75.691 31.169 21.142 20.028 30.608 48.416 30.608 83.472.002 67.892-50.09 109.632-119.649 117.984zm-48.978-332.239c-32.275 4.448-48.416 24.484-48.416 48.969 0 10.018 3.342 20.589 11.685 28.389 8.904 8.343 21.151 13.352 36.731 15.58v-92.938zm80.7 183.095c-11.133-10.58-25.046-12.247-39.512-14.475v95.719c33.389-3.895 51.75-20.589 51.75-47.855 0-13.914-3.895-25.599-12.238-33.389z"/></symbol><symbol class="amsvg-inline--fa amfa-envelope amfa-w-16" viewBox="0 0 512 512" id="email-regular" xmlns="http://www.w3.org/2000/svg"><path d="M464 64H48C21.49 64 0 85.49 0 112v288c0 26.51 21.49 48 48 48h416c26.51 0 48-21.49 48-48V112c0-26.51-21.49-48-48-48zm0 48v40.805c-22.422 18.259-58.168 46.651-134.587 106.49-16.841 13.247-50.201 45.072-73.413 44.701-23.208.375-56.579-31.459-73.413-44.701C106.18 199.465 70.425 171.067 48 152.805V112h416zM48 400V214.398c22.914 18.251 55.409 43.862 104.938 82.646 21.857 17.205 60.134 55.186 103.062 54.955 42.717.231 80.509-37.199 103.053-54.947 49.528-38.783 82.032-64.401 104.947-82.653V400H48z"/></symbol><symbol class="ansvg-inline--fa anfa-facebook-f anfa-w-9" viewBox="0 0 264 512" id="facebook-f-brands" xmlns="http://www.w3.org/2000/svg"><path d="M76.7 512V283H0v-91h76.7v-71.7C76.7 42.4 124.3 0 193.8 0c33.3 0 61.9 2.5 70.2 3.6V85h-48.2c-37.8 0-45.1 18-45.1 44.3V192H256l-11.7 91h-73.6v229"/></symbol><symbol class="aosvg-inline--fa aofa-film-strip aofa-w-16" viewBox="0 0 512 512" id="film-strip" xmlns="http://www.w3.org/2000/svg"><path d="M67.455 23.091h22.182v465.818H67.455z"/><path d="M12 78.545h66.545v22.182H12zm0 66.546h66.545v22.182H12zm0 66.545h66.545v22.182H12zm66.545 33.273h354.91v22.182H78.545zm0-232.909h354.91v22.182H78.545zM12 278.182h66.545v22.182H12zm0 66.546h66.545v22.182H12zm0 66.545h66.545v22.182H12z"/><path d="M422.364 23.091h22.182v465.818h-22.182z"/><path d="M433.455 78.545H500v22.182h-66.545zm0 66.546H500v22.182h-66.545zm0 66.545H500v22.182h-66.545zm0 66.546H500v22.182h-66.545zm0 66.546H500v22.182h-66.545zm0 66.545H500v22.182h-66.545z"/><path d="M500 500H12C5.875 500 .909 495.034.909 488.909V23.091C.909 16.965 5.875 12 12 12h488c6.125 0 11.091 4.965 11.091 11.091v465.818c0 6.125-4.966 11.091-11.091 11.091zM23.091 477.818h465.818V34.182H23.091v443.636z"/></symbol><symbol class="apsvg-inline--fa apfa-linkedin-in apfa-w-14" viewBox="0 0 448 512" id="linkedin-in-brands" xmlns="http://www.w3.org/2000/svg"><path d="M100.3 448H7.4V148.9h92.9V448zM53.8 108.1C24.1 108.1 0 83.5 0 53.8S24.1 0 53.8 0s53.8 24.1 53.8 53.8-24.1 54.3-53.8 54.3zM448 448h-92.7V302.4c0-34.7-.7-79.2-48.3-79.2-48.3 0-55.7 37.7-55.7 76.7V448h-92.8V148.9h89.1v40.8h1.3c12.4-23.5 42.7-48.3 87.9-48.3 94 0 111.3 61.9 111.3 142.3V448h-.1z"/></symbol><symbol viewBox="0 0 30 30" id="minus-circle-filled" xmlns="http://www.w3.org/2000/svg"><path d="M30 15c0 8.3-6.7 15-15 15S0 23.3 0 15 6.7 0 15 0s15 6.7 15 15zM6.3 13.6v2.7c0 .6.4 1 1 1h15.4c.6 0 1-.4 1-1v-2.7c0-.6-.4-1-1-1H7.3c-.5 0-1 .5-1 1z"/></symbol><symbol class="arsvg-inline--fa arfa-minus-circle arfa-w-16" viewBox="0 0 512 512" id="minus-circle-regular" xmlns="http://www.w3.org/2000/svg"><path d="M140 284c-6.6 0-12-5.4-12-12v-32c0-6.6 5.4-12 12-12h232c6.6 0 12 5.4 12 12v32c0 6.6-5.4 12-12 12H140zm364-28c0 137-111 248-248 248S8 393 8 256 119 8 256 8s248 111 248 248zm-48 0c0-110.5-89.5-200-200-200S56 145.5 56 256s89.5 200 200 200 200-89.5 200-200z"/></symbol><symbol class="assvg-inline--fa asfa-minus asfa-w-12" viewBox="0 0 384 512" id="minus-regular" xmlns="http://www.w3.org/2000/svg"><path d="M368 224H16c-8.84 0-16 7.16-16 16v32c0 8.84 7.16 16 16 16h352c8.84 0 16-7.16 16-16v-32c0-8.84-7.16-16-16-16z"/></symbol><symbol class="atsvg-inline--fa atfa-play-circle atfa-w-16" viewBox="0 0 512 512" id="play-circle-solid" xmlns="http://www.w3.org/2000/svg"><path d="M256 8C119 8 8 119 8 256s111 248 248 248 248-111 248-248S393 8 256 8zm115.7 272l-176 101c-15.8 8.8-35.7-2.5-35.7-21V152c0-18.4 19.8-29.8 35.7-21l176 107c16.4 9.2 16.4 32.9 0 42z"/></symbol><symbol viewBox="0 0 30 30" id="plus-circle-filled" xmlns="http://www.w3.org/2000/svg"><path d="M30 15c0 8.3-6.7 15-15 15S0 23.3 0 15 6.7 0 15 0s15 6.7 15 15zm-7.3-2.4h-5.3V7.3c0-.6-.4-1-1-1h-2.7c-.6 0-1 .4-1 1v5.3H7.3c-.6 0-1 .4-1 1v2.7c0 .6.4 1 1 1h5.3v5.3c0 .6.4 1 1 1h2.7c.6 0 1-.4 1-1v-5.3h5.3c.6 0 1-.4 1-1v-2.7c.1-.5-.4-1-.9-1z"/></symbol><symbol class="avsvg-inline--fa avfa-plus-circle avfa-w-16" viewBox="0 0 512 512" id="plus-circle-regular" xmlns="http://www.w3.org/2000/svg"><path d="M384 240v32c0 6.6-5.4 12-12 12h-88v88c0 6.6-5.4 12-12 12h-32c-6.6 0-12-5.4-12-12v-88h-88c-6.6 0-12-5.4-12-12v-32c0-6.6 5.4-12 12-12h88v-88c0-6.6 5.4-12 12-12h32c6.6 0 12 5.4 12 12v88h88c6.6 0 12 5.4 12 12zm120 16c0 137-111 248-248 248S8 393 8 256 119 8 256 8s248 111 248 248zm-48 0c0-110.5-89.5-200-200-200S56 145.5 56 256s89.5 200 200 200 200-89.5 200-200z"/></symbol><symbol viewBox="0 0 48 48" id="plus-regular" xmlns="http://www.w3.org/2000/svg"><path d="M26.9 20.4h20.4v7.1H26.9V48h-7.1V27.6H-.3v-7.1h20.1V0h7.1v20.4z"/></symbol><symbol class="axsvg-inline--fa axfa-print axfa-w-16" viewBox="0 0 512 512" id="print-regular" xmlns="http://www.w3.org/2000/svg"><path d="M400 264c-13.25 0-24 10.74-24 24 0 13.25 10.75 24 24 24s24-10.75 24-24c0-13.26-10.75-24-24-24zm32-88V99.88c0-12.73-5.06-24.94-14.06-33.94l-51.88-51.88c-9-9-21.21-14.06-33.94-14.06H110.48C93.64 0 80 14.33 80 32v144c-44.18 0-80 35.82-80 80v128c0 8.84 7.16 16 16 16h64v96c0 8.84 7.16 16 16 16h320c8.84 0 16-7.16 16-16v-96h64c8.84 0 16-7.16 16-16V256c0-44.18-35.82-80-80-80zM128 48h192v48c0 8.84 7.16 16 16 16h48v64H128V48zm256 416H128v-64h256v64zm80-112H48v-96c0-17.64 14.36-32 32-32h352c17.64 0 32 14.36 32 32v96z"/></symbol><symbol viewBox="0 0 0 0" id="quantum" xmlns="http://www.w3.org/2000/svg"/><symbol class="azsvg-inline--fa azfa-search azfa-w-16" viewBox="0 0 512 512" id="search-regular" xmlns="http://www.w3.org/2000/svg"><path d="M508.5 468.9L387.1 347.5c-2.3-2.3-5.3-3.5-8.5-3.5h-13.2c31.5-36.5 50.6-84 50.6-136C416 93.1 322.9 0 208 0S0 93.1 0 208s93.1 208 208 208c52 0 99.5-19.1 136-50.6v13.2c0 3.2 1.3 6.2 3.5 8.5l121.4 121.4c4.7 4.7 12.3 4.7 17 0l22.6-22.6c4.7-4.7 4.7-12.3 0-17zM208 368c-88.4 0-160-71.6-160-160S119.6 48 208 48s160 71.6 160 160-71.6 160-160 160z"/></symbol><symbol class="babone-comp-slider_arrow_svg" viewBox="0 0 62 20" id="slider-arrows"><path class="babone-comp-slider_arrow_inner" d="M7.771 20l-1.358-1.311-.057-.055-.156-.154c-.6-.58-1.818-1.762-2.719-2.621l-1.038-1A9.83 9.83 0 0 1 .537 12.3a5.214 5.214 0 0 1-.08-4.439l.046-.1A9.936 9.936 0 0 1 2.477 5.11L7.771 0 11 3.117l-5.283 5.1a5.624 5.624 0 0 0-1.072 1.41.947.947 0 0 0 .023.77 5.24 5.24 0 0 0 1.026 1.355c.206.2.571.562 1.027.991.9.87 2.134 2.06 2.739 2.654a1.266 1.266 0 0 0 .137.133l.057.055L11 16.883zm46.462 0l-3.226-3.117 1.349-1.3.057-.055.138-.135c.608-.6 1.841-1.785 2.74-2.652l1.023-.987a5.207 5.207 0 0 0 1.03-1.353.971.971 0 0 0 .019-.766 5.632 5.632 0 0 0-1.074-1.415L51 3.115 54.227 0l5.29 5.1A9.933 9.933 0 0 1 61.5 7.761l.049.1a5.215 5.215 0 0 1-.087 4.441 9.746 9.746 0 0 1-1.908 2.552l-1.033 1c-.894.86-2.117 2.04-2.711 2.623l-.159.155-.062.06L54.233 20z"/></symbol><symbol viewBox="0 0 82 40" id="slider-arrows-new" xmlns="http://www.w3.org/2000/svg"><path d="M17.771 30l-1.358-1.311-.057-.055-.16-.154a293.412 293.412 0 0 0-2.715-2.621l-1.038-1a9.83 9.83 0 0 1-1.906-2.559 5.214 5.214 0 0 1-.08-4.439l.046-.1a9.936 9.936 0 0 1 1.974-2.654L17.771 10 21 13.117l-5.283 5.1a5.624 5.624 0 0 0-1.072 1.41.947.947 0 0 0 .023.77 5.24 5.24 0 0 0 1.026 1.355c.206.2.571.562 1.027.991.9.87 2.134 2.06 2.739 2.654a1.266 1.266 0 0 0 .137.133l.057.055L21 26.883zm46.462 0l-3.226-3.117 1.349-1.3.057-.055.138-.135c.608-.6 1.841-1.785 2.74-2.652l1.023-.987a5.207 5.207 0 0 0 1.03-1.353.971.971 0 0 0 .019-.766 5.632 5.632 0 0 0-1.074-1.415L61 13.115 64.227 10l5.29 5.1a9.933 9.933 0 0 1 1.98 2.658l.049.1a5.215 5.215 0 0 1-.087 4.441 9.746 9.746 0 0 1-1.908 2.552l-1.033 1c-.894.86-2.117 2.04-2.711 2.623l-.159.155-.062.06L64.233 30z"/></symbol><symbol class="bcgambit_baa_arrow_svg" viewBox="-32.438 -7 70.25 28" id="slider-arrows-og" xmlns="http://www.w3.org/2000/svg"><path class="bcgambit_baa_arrow_inner" d="M15.312-7v28l22-14-22-14zm-26.25 28V-7l-22 14 22 14z"/></symbol><symbol class="bdsvg-inline--fa bdfa-twitter bdfa-w-16" viewBox="0 0 512 512" id="twitter-brands" xmlns="http://www.w3.org/2000/svg"><path d="M459.37 151.716c.325 4.548.325 9.097.325 13.645 0 138.72-105.583 298.558-298.558 298.558-59.452 0-114.68-17.219-161.137-47.106 8.447.974 16.568 1.299 25.34 1.299 49.055 0 94.213-16.568 130.274-44.832-46.132-.975-84.792-31.188-98.112-72.772 6.498.974 12.995 1.624 19.818 1.624 9.421 0 18.843-1.3 27.614-3.573-48.081-9.747-84.143-51.98-84.143-102.985v-1.299c13.969 7.797 30.214 12.67 47.431 13.319-28.264-18.843-46.781-51.005-46.781-87.391 0-19.492 5.197-37.36 14.294-52.954 51.655 63.675 129.3 105.258 216.365 109.807-1.624-7.797-2.599-15.918-2.599-24.04 0-57.828 46.782-104.934 104.934-104.934 30.213 0 57.502 12.67 76.67 33.137 23.715-4.548 46.456-13.32 66.599-25.34-7.798 24.366-24.366 44.833-46.132 57.827 21.117-2.273 41.584-8.122 60.426-16.243-14.292 20.791-32.161 39.308-52.628 54.253z"/></symbol><symbol viewBox="0 0 0 0" id="xgeva" xmlns="http://www.w3.org/2000/svg"/><symbol class="bfsvg-inline--fa bffa-email bffa-w-16" viewBox="0 0 512 512" id="xgeva-email" xmlns="http://www.w3.org/2000/svg"><path d="M512 114.2c0-12-4.7-22.8-12.2-30.9-.1-.1-.1-.2-.1-.2l-.1-.1c-8.2-8.6-19.7-14.1-32.5-14.1H45c-12.8 0-24.3 5.5-32.5 14.1l-.1.1c-.1.1-.1.2-.1.2C4.7 91.4 0 102.2 0 114.2v283.6c0 11.9 4.7 22.7 12.2 30.8.1.1.1.2.2.3 0 .1.1.1.2.1 8.2 8.6 19.6 14 32.5 14h422c12.8 0 24.3-5.5 32.5-14.1 0 0 .1 0 .1-.1.1-.1.1-.1.1-.2 7.5-8.1 12.3-18.9 12.3-30.9V114.2zM323.7 256l166.8-151.3c1.2 2.9 1.9 6.1 1.9 9.5v283.6c0 3.4-.7 6.6-1.9 9.5L323.7 256zM467 88.6c3.4 0 6.7.7 9.7 2l-203.9 185c-4.8 4.3-10.8 6.5-16.8 6.5s-12-2.2-16.8-6.5L35.3 90.6c3-1.3 6.3-2 9.7-2h422zM21.5 407.3c-1.2-2.9-1.9-6.1-1.9-9.5V114.2c0-3.4.7-6.6 1.9-9.5L188.3 256 21.5 407.3zM45 423.4c-3.4 0-6.7-.7-9.7-2L203 269.3l23 20.9c8.5 7.7 19.3 11.6 30 11.6h.1c10.7 0 21.4-3.9 29.9-11.6l23-20.9 167.7 152.1c-3 1.3-6.3 2-9.7 2H45z"/></symbol><symbol class="bgsvg-inline--fa bgfa-youtube bgfa-w-18" viewBox="0 0 576 512" id="youtube-brands" xmlns="http://www.w3.org/2000/svg"><path d="M549.655 124.083c-6.281-23.65-24.787-42.276-48.284-48.597C458.781 64 288 64 288 64S117.22 64 74.629 75.486c-23.497 6.322-42.003 24.947-48.284 48.597-11.412 42.867-11.412 132.305-11.412 132.305s0 89.438 11.412 132.305c6.281 23.65 24.787 41.5 48.284 47.821C117.22 448 288 448 288 448s170.78 0 213.371-11.486c23.497-6.321 42.003-24.171 48.284-47.821 11.412-42.867 11.412-132.305 11.412-132.305s0-89.438-11.412-132.305zm-317.51 213.508V175.185l142.739 81.205-142.739 81.201z"/></symbol></svg>