<svg xmlns="http://www.w3.org/2000/svg" width="24.7" height="20" viewBox="0 0 24.7 20">
    <defs>
        <clipPath id="prefix__clip-path">
            <path id="prefix__Clip_2" d="M0 0h24.7v20H0z" class="prefix__cls-1" data-name="Clip 2"/>
        </clipPath>
        <style>
            .prefix__cls-1{fill:none}
        </style>
    </defs>
    <g id="prefix__Group_3_Copy_3" data-name="Group 3 Copy 3">
        <path id="prefix__Clip_2-2" d="M0 0h24.7v20H0z" class="prefix__cls-1" data-name="Clip 2"/>
        <g id="prefix__Group_3_Copy_3-2" clip-path="url(#prefix__clip-path)" data-name="Group 3 Copy 3">
            <path id="prefix__Fill_1" fill="#dadada" d="M24.7 2.35a11.323 11.323 0 0 1-2.9.8A4.761 4.761 0 0 0 24 .35a10.408 10.408 0 0 1-3.2 1.25A4.979 4.979 0 0 0 17.1 0a5.036 5.036 0 0 0-5.05 5.05 4.262 4.262 0 0 0 .15 1.15A14.285 14.285 0 0 1 1.8.95a4.876 4.876 0 0 0-.7 2.55 5.052 5.052 0 0 0 2.25 4.2 5.112 5.112 0 0 1-2.3-.65v.05a5.045 5.045 0 0 0 4.05 4.95 5.452 5.452 0 0 1-1.35.2 5.538 5.538 0 0 1-.95-.1 5.064 5.064 0 0 0 4.7 3.5 10.2 10.2 0 0 1-6.3 2.15 9.731 9.731 0 0 1-1.2-.05A14.207 14.207 0 0 0 7.75 20a14.3 14.3 0 0 0 14.4-14.4v-.65a9.035 9.035 0 0 0 2.55-2.6" data-name="Fill 1"/>
        </g>
    </g>
</svg>
