<?xml version="1.0" encoding="utf-8"?>
<!-- Generator: Adobe Illustrator 18.1.1, SVG Export Plug-In . SVG Version: 6.00 Build 0)  -->
<!DOCTYPE svg PUBLIC "-//W3C//DTD SVG 1.1//EN" "http://www.w3.org/Graphics/SVG/1.1/DTD/svg11.dtd">
<svg version="1.1" id="Layer_1" xmlns="http://www.w3.org/2000/svg" xmlns:xlink="http://www.w3.org/1999/xlink" x="0px" y="0px"
	 viewBox="-85.3 230 782.7 332" enable-background="new -85.3 230 782.7 332" xml:space="preserve">
<g>
	<g>
		<g>
			<g>
				<g>
					<path fill="#0060A9" d="M169.6,332.9l4.4-9.1h-47.3c2.6,2,1.6,7.5,0.2,10.7c-1.4,3.2-27.5,56.8-29.5,61.2s-4.9,7.3-7.9,8.9h56
						l5.5-11.1c-2.2,2.2-10.1,4.6-14.1,4.6c-4,0-28.9,0-28.9,0l17-35.8c0,0,14.8,0,18.2,0c3.2,0,6.1,0.2,8.5,2.6l5.5-11.5
						c-3.4,2-7.9,2.2-12.5,2.2c-3,0-16.4,0-16.4,0l12.5-25.7c0,0,16,0,18.6,0C162.1,329.9,167.6,330.5,169.6,332.9z"/>
					<path fill="#0060A9" d="M197.9,323.6h-19c1.4,0.6,1.2,4.9,0,7.3c-1.2,2.4-17,35.6-20.2,42.2c-9.5,20,9.7,32.5,21.6,32.5
						c26.9,0,33.5-19.8,36-24.9c3-6.3,20.4-43.1,22.8-48.3c2.4-5.1,4.8-8.3,6.1-8.7h-13.9c1,0.6,0.6,5.7-0.8,8.7
						c-1.4,3-19.8,42.6-21.6,46.3c-6.9,14.6-12.5,20.6-28.7,20.6c-4.9,0-19.4-3.4-10.3-23.6c3.2-6.9,18.8-39.4,21-43.5
						S195,324.9,197.9,323.6z"/>
					<path fill="#0060A9" d="M246.4,366.1c8.3-17.6,17-36.2,17-36.2s8.5,0,12.7,0c11.5,0,10.5,9.9,7.5,17.8
						c-4.4,11.7-12.5,18.4-21.4,18.4C257.1,366.1,246.4,366.1,246.4,366.1l-2.8,5.9c0,0,14.1,0,19,0c20.6,0,27.9-11.7,32.9-23.4
						c3.8-8.9,0.4-25.3-18.4-25.3c-7.9,0-27.3,0-27.3,0c2,1.8,2.2,5.1-0.4,10.7c-4.2,8.5-26.7,56.8-28.7,61c-2,4-5.7,8.9-8.1,9.5h19
						c-1.2-1.4-1.4-4,0.4-7.9c0.6-1.6,5.7-12.3,11.5-24.5L246.4,366.1z"/>
					<path fill="#0060A9" d="M314.5,400.6c-16.2,0-24.1-14.8-4.9-45.1c13.7-21.6,27.1-28.7,40.8-28.7c12.1,0,17.6,12.7,6.3,37.8
						C351.9,375,339.1,400.6,314.5,400.6l0.6,5.5c22.8,0,43.3-17.4,53.6-41c7.9-17.6,3.8-43.7-19.8-43.7
						c-17.2,0-36.2,10.1-49.1,28.7c-22.6,32.7-11.3,56.2,15.2,56.2L314.5,400.6z"/>
					<path fill="#0060A9" d="M429.9,321.8c-19.4,0-38.6,14.6-48.5,30.1c-23.6,36.6-4.9,54,13.9,54c8.1,0,16.6-3.4,23.2-7.3
						c4.8-2.8,11.1-4,14.4-4.2c-1.6-1.2-0.4-4.4,0.6-6.3c1.2-2.2,6.7-14.1,7.7-16.2c1-2.2,4.6-5.5,5.9-5.9h-19.8
						c1.6,0.6,3,2.6,2,5.5c-1.2,3-5.3,12.7-7.1,15.8c-4,6.9-17.2,12.9-25.7,12.9c-27.1,0-13.1-30.1-4.2-43.7
						c8.7-13.5,20.8-29.1,37.8-29.1c12.1,0,17.4,13.3,17,18.2l7.9-8.3C452.5,331.3,443.2,321.8,429.9,321.8z"/>
					<path fill="#0060A9" d="M510.1,332.9l4.4-9.1h-47.3c2.6,2,1.6,7.5,0.2,10.7c-1.4,3.2-27.5,56.8-29.5,61.2s-5.1,7.3-7.9,8.9
						h52.5l5.5-11.1c-2.2,2.2-10.1,4.6-14.1,4.6c-4,0-25.5,0-25.5,0l17-35.8c0,0,13.3,0,16.4,0s6.1,0.2,8.5,2.6l5.5-11.5
						c-3.4,2-7.9,2.2-12.5,2.2c-3,0-14.6,0-14.6,0l12.5-25.7c0,0,16,0,18.6,0C502.5,329.9,508.1,330.5,510.1,332.9z"/>
					<path fill="#0060A9" d="M533.4,324.2h-14.1c2.2,0.8,3.6,5.3,4.4,7.5c0,0-23.9,51.1-28.3,60c-4.2,8.5-8.3,12.9-10.1,12.9H500
						c-1.2-1-2.4-2,1.8-11.3c4.2-9.3,24.3-52.8,24.3-52.8l20.8,66.7c0,0,31.9-67.7,34.6-73.4c2.8-5.9,5.9-9.7,7.5-9.7H575
						c1.6,1,2.6,3.6,1.2,6.7c-1.4,3.2-24.5,51.7-24.5,51.7L533.4,324.2z"/>
					<path fill="#0060A9" d="M67.3,324.2H53.2c2.2,0.8,3.6,5.3,4.4,7.5c0,0-23.9,51.1-28.3,60c-4.2,8.5-8.3,12.9-10.1,12.9h14.6
						c-1.2-1-2.4-2,1.8-11.3c4.2-9.5,24.3-52.8,24.3-52.8l20.8,66.7c0,0,31.9-67.7,34.6-73.4c2.8-5.9,5.9-9.7,7.5-9.7h-14.1
						c1.6,1,2.6,3.6,1.2,6.7c-1.4,3.2-24.5,51.7-24.5,51.7L67.3,324.2z"/>
				</g>
				<g>
					<g>
						<path fill="#0060A9" d="M26.5,427.3c-2,0,45.7,0.2,46.7,0c1-0.2-2.6,4.9-2.8,6.5c-2-2.6-7.5-2.6-8.1-2.6
							c-0.6,0-23.4,0.2-23.4,0.2l-5.9,13.9c0,0,17,0,19.2,0s7.1-1,8.1-1.8c-4.2,8.3-4.2,7.7-4.2,7.7c0-1.8-3.6-2-5.1-2.2
							c-1.6-0.2-19.8-0.2-19.8-0.2s-5.9,12.3-6.5,14.3c-0.6,2.2-0.4,4.8,1.6,5.3c-5.1,0-17.8,0-17.8,0c3.4-1.4,3.8-2.8,4.6-3.8
							c0.8-1,15.2-33.1,15.2-33.1C29.5,429.5,28.1,427.5,26.5,427.3z"/>
						<path fill="#0060A9" d="M106.5,427.3c2.8,0,15.2,0,17.2,0c-1.2,1-3.2,0.8-5.5,4.9c-2.4,4.2-15,31.7-15,31.7s15.6,0.4,20.8,0
							c4.9-0.4,10.9-0.6,14.3-3.2c1,1.4-2.8,5.7-3.4,7.5c-3.2,0-45.1,0-46.7,0c-1.6-1.2,0.4,0,2-1.6c0.2-0.2,2.2-2,2.8-3.4
							c0.6-1.4,14.1-30.1,14.1-30.1C107.5,431,107.9,430,106.5,427.3z"/>
						<path fill="#0060A9" d="M379.2,431c-4-4.8-36.4-9.5-39.4,8.9c-1.6,10.1,25.3,11.7,22.8,19.2c-4.8,13.7-28.9,4.9-30.7-1.6
							c-4.2,5.5-4.6,6.7-4.6,6.7c9.7,6.7,38.4,8.5,43.9-4.2c7.7-17.8-25.1-12.7-21.2-24.7c2.8-8.1,19.6-4.9,23.6,0.8
							C376.9,433.6,376.1,433.8,379.2,431z"/>
						<path fill="#0060A9" d="M402.6,431.6c-3,6.7-14.1,31.5-14.4,32.1c-1,1.4-2.4,3.2-4.9,4.6c2.4-0.2,11.9,0,16.8,0
							c-1.8-0.8-2-3.6-0.8-6.1c0.4-1,8.3-19.4,10.9-24.7v0.2c1.6-3.6,1.6-3.4,3.2-6.1c14.1,0.2,15.8,0.6,17.6,2.6
							c0.2-1.8,2.4-4.9,3-6.9c-4.9,0.4-43.7,0-48.7,0c-0.8,1.8-2.8,4.9-3.4,6.9c1.2-1.2,5.1-2.4,6.9-2.4
							C390.7,431.6,402.6,431.6,402.6,431.6L402.6,431.6z"/>
						<path fill="#0060A9" d="M286.8,441.5c-11.5,10.7-24.3,22.6-25.5,23.6c-0.2,0.2-1.8,1.6-1.8,1.6c-1.2,0.4-1.6,0.6-2.8,0.4
							c-2.4-1.6-3-3.2-5.5-6.5c-2.6-3.2-5.3-7.1-16.6-9.7c37.6-3.4,22.6-21.4,11.5-23c-8.5-1.2-23-0.6-32.5-0.6c1,1.4,2,2.4,1,4.4
							c-0.4,1-1.4,3.6-3.2,6.9l10.3,0.8l3.6-8.1c13.1-0.4,24.7-1.2,21.4,8.9c-3.6,10.1-29.1,7.9-29.1,7.9l4.2-8.7l-10.7-0.8
							c-4.6,10.3-11.5,27.5-13.9,28.7c-0.8,0.4-2.2,0.4-1.8,1.2c0.4,0,13.3,0,17.6,0c-1.8-1.4-2.6-3-2.4-4.2
							c0.2-1.2,5.3-12.5,5.3-12.5s-0.8,0,7.5,0c11.7-1.4,20.8,16.6,20.8,16.6s8.5,0,13.1,0h-0.2c2.6,0,11.9,0,12.9,0
							c0,0-1,0.4-0.4-2.6c0.6-2.2,10.5-10.9,10.5-10.9h27.3c0,0,3.2,6.5,3.6,8.9c0.4,2.4-1.2,3.8-2.2,4.6c1.8,0,16.2,0,17.4,0
							s1.2,0.2,0.6-0.8c-1-0.6-2.6-0.6-3.8-2.8c-2.4-1.8-17.6-40.4-17.6-40.4S296.3,432.6,286.8,441.5l4,3l8.5-7.9l6.5,14.8h-22.4
							l7.3-6.9L286.8,441.5z"/>
						<path fill="#0060A9" d="M6.3,436.4c4.6-6.1,10.1-9.3,17-12.7c0.4-0.2,0.8,0.6,1.4,1.2C4.6,438,2.8,450.8,4.4,469.4
							c-0.6,0-1.6,0.2-1.8,0C-1.8,456.6-1,446.3,6.3,436.4z"/>
						<path fill="#0060A9" d="M535,456.4c-3.6,6.7-8.5,10.7-15,15c-0.2,0.2-0.8-0.6-1.6-1c18-15.4,18.4-27.5,13.9-46.9
							c0.6,0,1.6-0.4,1.6-0.2C540.2,435.4,540.9,445.5,535,456.4z"/>
						<path fill="#0060A9" d="M438.4,427.5c1.8,0,17.4,0,17.4,0c-3.2,2-4.4,3.2-4.9,4.4c-0.6,1.2-14.4,29.1-14.6,32.5
							c0,3.4,1.4,3.4,2.4,3.6c0,0.4-0.2,0.6-2,0.6c-1.4,0-14.3,0-15.4,0c-0.6,0-2-0.2,0-0.8c1.6-0.4,3.2-1.8,4.8-4.6
							s13.9-30.1,14.1-31.5C440.4,430.2,439.8,428.9,438.4,427.5z"/>
						<path fill="#0060A9" d="M465.1,427.5c7.7,0,12.9,0,14.4,0c0.8,3.2,5.3,27.3,5.3,27.3l29.3-27.3c0,0,13.7,0,15.6,0
							c0.4,0.8-1-0.8-2.4,2c-1.4,2.8-15.2,30.1-15,34.8c0.2,4.8,2.4,4.2,1.6,4.4c-4.4,0-11.9,0-15.2,0c-2,0-1.6-0.2,0.2-1.4
							c1.6-1.2,3-4,3.4-5.3c0.4-1.4,13.1-28.1,13.1-28.1l-37.2,36l-7.9-36.8c0,0-13.5,28.7-14.4,31.3c-0.8,2.6-0.2,3.8,0.4,4.4
							c-3.4,0-12.1,0-13.1,0c0-1,1.4-0.6,1.8-1c0.6-0.4,3.4-2.6,4.4-4.2c0.8-1.6,15-30.7,15.8-31.9c0.6-1.2,1-2.2,0.2-3
							C464.1,427.5,463.9,427.5,465.1,427.5z"/>
						<path fill="#0060A9" d="M79.2,427.5c1.8,0,17.6,0,17.6-0.2c-3.2,2-4.4,3.2-4.9,4.4c-0.8,1.2-14.6,29.1-14.6,32.5
							s1.4,3.4,2.4,3.6c0,0.4-0.6,0.6-2,0.6c-1.6,0-14.3,0-15.4,0c-1,0-1.6-0.2,0-0.8c1.6-0.4,3.2-1.8,4.8-4.6
							c1.6-2.8,13.9-30.1,14.1-31.5C81.2,430.2,80.8,428.9,79.2,427.5z"/>
						<path fill="#0060A9" d="M177.7,467.8c1.4-0.4,6.3-3.2,13.7-4.2c-0.8-2.6,1.6-11.7,8.5-15.8c-11.1,0-18.4,0.2-18.4,0.2
							c5.7,1.8,0.6,19-15.8,17.8c-25.5-1.8-14.4-19.6-13.1-21.4c1.2-1.6,23.8-29.5,43-5.3c3-3,3-2.8,6.7-4.9
							c-1.4-3.2-30.9-18.6-55.2,2.6c-23,19.8,6.9,31.7,7.9,31.9C166.1,471,176.4,468.4,177.7,467.8z"/>
					</g>
				</g>
			</g>
			<path fill="#0060A9" d="M612,327.9c0,4.2-3.4,7.5-7.5,7.5c-4.2,0-7.5-3.4-7.5-7.5c0-4.2,3.4-7.3,7.5-7.3
				C608.6,320.6,612,324,612,327.9z M598.1,328.1c0,3.6,2.8,6.3,6.3,6.3c3.6,0,6.3-2.8,6.3-6.3s-2.8-6.3-6.3-6.3
				C601.1,321.8,598.1,324.5,598.1,328.1z M608.2,332.3h-1.2l-2.4-3.8h-1.8v3.8h-1.2v-8.5h3.8c0.6,0,1.4,0,2,0.4
				c0.6,0.4,1,1.2,1,1.8c0,1.6-1.2,2.2-2.6,2.4L608.2,332.3z M604.3,327.5c1.2,0,3,0.2,3-1.6c0-1.2-1.2-1.4-2.2-1.4h-2.4v3H604.3z"
				/>
		</g>
	</g>
</g>
</svg>
