<svg xmlns="http://www.w3.org/2000/svg" width="14.869" height="19" viewBox="0 0 14.869 19">
    <g id="prefix__Group_461" data-name="Group 461" transform="translate(-1.587 -.264)">
        <path id="prefix__Path_832" fill="#0063c3" d="M2.024.264A.436.436 0 0 0 1.587.7v18.128a.435.435 0 0 0 .436.436h14a.437.437 0 0 0 .437-.436V6.004l-.008-.042-.012-.042-.016-.039-.024-.041-.028-.04-.028-.034-.016-.017-5.36-5.355a.438.438 0 0 0-.308-.13H2.024zm.436.873h7.764V6.06a.438.438 0 0 0 .436.437h4.925v11.894H2.46zm8.637.618l3.871 3.873H11.1zM8.01 7.817a1.106 1.106 0 0 0-.326.034 1.082 1.082 0 0 0-.791.9A2.31 2.31 0 0 0 7.2 9.982a9.75 9.75 0 0 0 .929 1.21 10.819 10.819 0 0 1-.19 1.408 10.958 10.958 0 0 1-.539 1.314 9.888 9.888 0 0 0-1.411.585 2.3 2.3 0 0 0-.879.907 1.082 1.082 0 0 0 1.414 1.413 2.273 2.273 0 0 0 .907-.877 9.711 9.711 0 0 0 .585-1.411 10.832 10.832 0 0 1 1.313-.54 11.155 11.155 0 0 1 1.41-.19 9.666 9.666 0 0 0 1.211.93 2.292 2.292 0 0 0 1.224.306 1.08 1.08 0 0 0 .518-1.928 2.288 2.288 0 0 0-1.213-.351 10.081 10.081 0 0 0-1.514.2 11.247 11.247 0 0 1-1.124-.868 11.267 11.267 0 0 1-.869-1.124 9.869 9.869 0 0 0 .2-1.514 2.313 2.313 0 0 0-.351-1.216 1.06 1.06 0 0 0-.809-.42zm0 .8c.081-.014.091.014.151.1a1.791 1.791 0 0 1 .2.793c.009.144-.072.4-.076.565-.087-.14-.284-.32-.347-.45a1.767 1.767 0 0 1-.225-.787c.014-.137 0-.142.192-.194.047-.012.081-.022.109-.027zm.815 3.479c.175.192.253.387.439.574s.382.265.574.442c-.254.055-.462.025-.718.094s-.42.2-.667.278c.08-.248.208-.417.276-.673s.041-.46.1-.715zm3.6 1.478a1.763 1.763 0 0 1 .795.2c.112.08.123.07.072.262s-.058.175-.2.189a1.754 1.754 0 0 1-.783-.225c-.13-.064-.309-.264-.453-.351.167 0 .421-.086.565-.076zm-5.456 1.385c-.08.148-.136.409-.215.529a1.75 1.75 0 0 1-.571.587c-.125.058-.122.072-.261-.069s-.125-.134-.067-.261a1.75 1.75 0 0 1 .587-.568c.12-.08.381-.137.528-.219z" data-name="Path 832"/>
    </g>
</svg>
