<?xml version="1.0" encoding="utf-8"?>
<!-- Generator: Adobe Illustrator 18.1.1, SVG Export Plug-In . SVG Version: 6.00 Build 0)  -->
<!DOCTYPE svg PUBLIC "-//W3C//DTD SVG 1.1//EN" "http://www.w3.org/Graphics/SVG/1.1/DTD/svg11.dtd">
<svg version="1.1" id="Layer_1" xmlns="http://www.w3.org/2000/svg" xmlns:xlink="http://www.w3.org/1999/xlink" x="0px" y="0px"
	 viewBox="-106 142 824 508" enable-background="new -106 142 824 508" xml:space="preserve">
<g>
	<path fill="#D95936" d="M111.4,300.9v101.4H136v-38.7c0-18.1,4.9-36.1,23.6-34.8v-29.3c0,0-2.1-0.4-4.2-0.4
		c-11.5,0.4-18.3,10.2-20.8,21h-0.4v-18.9h-22.7V300.9z"/>
	<path fill="#D95936" d="M243.7,402.3c-1.3-4.9-1.7-10-1.7-15.1v-47.4c0-12.1,0.9-23.4-7.9-31.7c-6.8-6.8-18.3-9.1-27-9.1
		c-17.9,0-38,7.2-40.6,31.7l23.4,2.6c0-10,6.8-14.9,14.7-14.9c3.6,0,7.9,1.5,10,4.9c2.5,3.8,2.1,8.9,2.1,13.4v2.3
		c-10.4,1.3-24,1.9-33.6,6.4c-11.3,4.9-19.1,15.1-19.1,30.2c0,19.1,11.7,28.7,26.8,28.7c12.8,0,20.2-5.7,27.2-17.9
		c-0.2,5.1,0.2,10.6,1.3,15.7h24.4V402.3z M216.8,357.9c0,7.2,0.2,13.2-3.4,19.5c-2.8,5.1-7.4,8.3-12.3,8.3
		c-6.8,0-10.8-5.3-10.8-13.4c0-14.9,17.2-17.4,26.6-18.5V357.9L216.8,357.9z"/>
	<path fill="#D95936" d="M255.6,402.3h24.6v-54.4c0-6.4,0.4-12.1,2.8-18.1c1.9-4.7,6-7.7,10.4-7.7c12.3,0,11.3,15.1,11.3,25.5v54.4
		h24.6v-62.5c0-9.1,0-21.9-4.7-29.5c-5.1-8.3-13-11.3-21-11.3c-12.3,0-19.3,6.2-24.4,19.1h-0.4v-17.2h-23.4v101.6H255.6z"/>
	<path fill="#D95936" d="M498.7,325.6c-6-18.9-16.8-26.6-33.6-26.6c-18.1,0-36.8,8.9-36.3,34c0.2,12.8,7.9,19.8,16.1,24
		c5.1,2.8,20,6.4,25.9,7.2c4.5,0.6,9.6,3.8,9.6,10.6c0,7.6-10.2,9.6-14.9,9.6c-7.9,0-17.6-3-19.1-15.3l-21.5,3.4
		c3.8,23.4,21.7,31.9,39.5,31.9c9.3,0,18.7-1.9,26.6-8.3c7.2-6.2,11.9-15.5,11.5-26.1c-1.9-39.5-51-24.2-51-43.1
		c0-7.4,7.7-8.9,12.8-8.9c8.1,0,14.5,4,16.6,13.6L498.7,325.6L498.7,325.6z"/>
	<path fill="#D95936" d="M69.5,265.4H38.2L1.5,402.3h23.6l7.2-28.1h38.2l7,28.1h27.8L69.5,265.4L69.5,265.4z M38.2,350.8l13.6-54.6
		l13,54.6H38.2L38.2,350.8z"/>
	<path fill="#D95936" d="M419.9,356.6c0.2-13.8-1.7-28.1-8.7-39.7c-7-11.5-19.3-18.1-31.2-18.1c-26.6,0-41.4,24.2-41.4,54.2
		c0,30.2,16.6,51.2,42.1,51.2c28.9,0,37.2-27.6,38-32.3l-20.8-3.8c-1.5,9.4-8.7,15.1-16.4,15.1c-10.6,0-16.4-9.8-16.4-21.7l0.2-4.9
		H419.9L419.9,356.6z M365.1,339.2c0.8-11.5,5.1-21.2,15.9-21.2c10.6,0,13.8,10.2,14.2,21.2H365.1L365.1,339.2z"/>
	<path fill="#D95936" d="M536.3,411.2v-20c3.8,8.9,11.5,13.2,19.8,13.2c24.9,0,32.5-27.6,32.5-52.5c0-12.3-1.1-24.6-6.4-35.3
		c-5.7-11.5-13.8-17.6-25.1-17.6c-10.8,0-17.6,5.7-22.1,17l-0.4-14.9h-22.9v111.6c0,5.1,0,10.2-1.5,15.3h25.3
		C536.6,422.7,536.3,416.3,536.3,411.2L536.3,411.2z M536.3,345.5c0-5.9-0.2-12.1,2.3-17.6c2.1-4.9,6.2-8.3,11.1-8.3
		c12.3,0,13.2,21,13.2,31.2c0,10.4-0.4,32.5-13.2,32.5c-4.2,0-8.7-3.2-11-7.6c-2.8-5.5-2.3-14.2-2.3-20.6L536.3,345.5L536.3,345.5z"
		/>
	<path d="M519.8,464.5h7.2v-8.1h-7.2v-5.3c0-3.6,1.7-5.7,6.4-5.5l1.3-8.3c-2.1-0.2-4.7-0.4-6.6-0.4c-8.3,0-12.3,4-12.3,11.5v8.5
		h-6.2v8.1h6.2v36.6c0,5.1-0.9,6.6-0.9,6.6h11.5c0,0,0.8-1.1,0.8-6.4v-37.2H519.8z"/>
	<path d="M454.5,470.1c0.6-4.9,1.7-7.4,5.3-7.4c2.1,0,3.6,2.5,3.6,6.6v6.6c-12.3,0.9-20.2,7.9-20.4,20c0,5.3,1.7,13.2,10.4,13.2
		c3,0,7.9-1.9,10.4-6.8l0.8,6h11c-0.8-3.4-1.3-7.4-1.3-9.1v-28.7c0-7.2-1.9-14.7-14.2-14.7c-8.9,0-15.1,4.9-15.1,13.8L454.5,470.1
		L454.5,470.1z M463.5,497.9c-0.4,1.3-3,3.4-4.9,3.4c-2.8,0-5.5-2.8-5.5-6.6c0-8.1,3.8-12.3,10.6-13.4v16.6H463.5z"/>
	<path d="M542.1,470.1c0.6-4.9,1.7-7.4,5.3-7.4c2.1,0,3.6,2.5,3.6,6.6v6.6c-12.3,0.9-20.2,7.9-20.4,20c0,5.3,1.7,13.2,10.4,13.2
		c3,0,7.9-1.9,10.4-6.8l0.8,6h11.1c-0.8-3.4-1.3-7.4-1.3-9.1v-28.7c0-7.2-1.9-14.7-14.2-14.7c-8.9,0-15.1,4.9-15.1,13.8L542.1,470.1
		L542.1,470.1z M551,497.9c-0.4,1.3-3,3.4-4.9,3.4c-2.8,0-5.5-2.8-5.5-6.6c0-8.1,3.8-12.3,10.6-13.4v16.6H551z"/>
	<path d="M74.4,470.1c0.6-4.9,1.7-7.4,5.3-7.4c2.1,0,3.6,2.5,3.6,6.6v6.6c-12.3,0.9-20.2,7.9-20.4,20c0,5.3,1.7,13.2,10.4,13.2
		c3,0,7.9-1.9,10.4-6.8l0.8,6h11c-0.9-3.4-1.3-7.4-1.3-9.1v-28.7c0-7.2-1.9-14.7-14.2-14.7c-8.9,0-15.1,4.9-15.1,13.8L74.4,470.1
		L74.4,470.1z M83.3,497.9c-0.4,1.3-3,3.4-4.9,3.4c-2.8,0-5.5-2.8-5.5-6.6c0-8.1,3.8-12.3,10.6-13.4v16.6H83.3z"/>
	<path d="M326.6,485.4v-4.7c0-10.4-3.4-25.1-15.7-25.1c-7.7,0-16.2,6.8-16.2,26.8c0,19.8,8.3,26.6,16.2,26.6c8.5,0,13.8-4,15.7-13.8
		l-7.4-2.1c-1.7,5.3-3,8.3-7,8.3c-2.8,0-6.2-3.2-5.9-12.8v-3h20.4V485.4z M306.4,477.1v-2.1c0-8.1,1.7-12.1,4.9-12.1
		c3.2-0.2,5.7,3,5.7,12.1v2.1H306.4L306.4,477.1z"/>
	<path d="M207.4,485.4v-4.7c0-10.4-3.4-25.1-15.7-25.1c-7.6,0-16.1,6.8-16.1,26.8c0,19.8,8.3,26.6,16.1,26.6c8.5,0,13.8-4,15.7-13.8
		L200,493c-1.7,5.3-3,8.3-7,8.3c-2.8,0-6.2-3.2-6-12.8v-3h20.4V485.4z M187.2,477.1v-2.1c0-8.1,1.7-12.1,4.9-12.1
		c3.2-0.2,5.7,3,5.7,12.1v2.1H187.2L187.2,477.1z"/>
	<path d="M146.8,440.9c0-3.6,0.9-6.6,0.9-6.6h-11c0,0-0.9,0.9-0.9,6.6v66.7h4.2l2.8-5.5c2.1,3.8,5.3,6.4,9.8,6.4
		c6.4,0,15.5-1.9,15.5-26.8c0-22.1-5.3-26.4-12.3-26.4c-3.6,0-6.6,2.3-8.9,4.7L146.8,440.9L146.8,440.9z M146.8,465.2
		c0.6-1.1,2.3-3.2,3.8-3.2c5.1-0.2,6.8,4.5,6.8,21.7c0,12.8-1.7,18.9-6.2,18.9c-1.1,0-4.5-1.5-4.5-5.5V465.2L146.8,465.2z"/>
	<path d="M227,456.5h-11.1v61.2c0,3.6-0.9,6-0.9,6h11.1c0,0,0.9-1.3,0.9-6.4v-12.1l1.1-0.4c1.5,1.9,4.2,4,7.2,4
		c9.1,0,13-9.4,13-26.8c0-17.2-2.8-26.3-11.9-26.3c-4.9,0-6.4,2.3-8.7,5.1l-0.9-0.4v-3.8H227z M236.5,482.6
		c0,17.6-1.7,19.1-5.3,19.1c-1.7,0-3.8-1.3-4.2-2.3v-34c0.8-0.6,2.3-2.1,4-2.1C235,463.3,236.5,463.7,236.5,482.6L236.5,482.6z"/>
	<path d="M277.3,482c0,17.6-2.5,19.3-5.7,19.3c-3,0-5.7-2.1-5.7-19.3c0-16.8,2.8-19.5,5.7-19.5C274.8,462.4,277.3,465.2,277.3,482
		L277.3,482z M288.2,482c0-20-6.8-26.6-16.4-26.6s-16.6,6.8-16.6,26.8c0,19.3,7,26.4,16.6,26.4C281.3,508.7,288.2,501.9,288.2,482
		L288.2,482z"/>
	<path d="M331.1,464.5h5.7v34.6c0,7.2,4.9,9.4,10.6,9.4c2.5,0,4.7-0.2,8.9-0.9V499c-0.8,0-1.7,0.2-3.2,0.2c-5.1,0.2-5.3-3.4-5.3-5.1
		v-29.5h7.9v-8.1h-7.9v-18.9l-11.3,3.4v15.5h-5.7v8.1H331.1z"/>
	<path d="M364.2,507.9h11.1v-51.4h-11.1V507.9L364.2,507.9z M364.2,445.4h11.1v-11h-11.1V445.4L364.2,445.4z"/>
	<path d="M385.3,507.9h11.3v-40.6c0.8-1.1,2.5-3,4.2-3c2.3,0,4.5,0.4,4.5,6v37.4h11.3v-41.4c0-7-2.5-10.6-8.7-10.6
		c-4.2,0-7.9,3.4-10.8,6.4l-0.6-0.2v-5.3H385v51.4H385.3z"/>
	<path d="M484.3,501.5c0,5.1,0.9,6.4,0.9,6.4h11c0,0-0.8-2.5-0.8-6.4v-67.1h-11.1V501.5L484.3,501.5z"/>
	<path d="M570.1,431.4c9.1,12.5,16.6,31.7,16.6,47.8s-7.7,35.1-16.8,47.6l-4.9-3.4c7.2-10.6,13-27.8,13-44
		c0-16.1-5.3-32.1-13.2-44.4L570.1,431.4L570.1,431.4z"/>
	<path d="M104.6,507.9h11.1V476c0-3.8,4.5-7.6,8.1-8.1c1.1-0.2,3.2-0.2,4.9,0.2v-12.8c-5.9,0.4-9.8,4.9-11.9,9.6l-1.1-0.6v-8.1
		h-11.1V507.9L104.6,507.9z"/>
	<path d="M44.8,503.8l0.8,4h10.8c-0.8-3.4-1.1-8.7-1.1-10.4v-63.1h-11v25.1l-0.8,0.2c-1.5-1.9-3.8-4-7.7-4
		c-9.1,0-12.8,9.1-12.8,26.6c0,16.8,3,26.6,11.5,26.6c4.9,0,7-2.8,9.6-5.5L44.8,503.8L44.8,503.8z M44.4,499
		c-0.6,1.1-2.5,2.5-4.2,2.5c-3.6,0-5.9-2.3-5.9-19.3c0-16.6,2.1-20,6.4-20c1.7,0,3.4,2.1,3.8,3V499L44.4,499z"/>
	<path d="M16.8,431.2C7.4,443.9,0,462.8,0,479s7.6,35.1,16.8,47.6l4.9-3.4c-7.2-10.6-13.2-28-13.2-44.2c0-16.1,5.3-32.1,13.2-44.4
		L16.8,431.2L16.8,431.2z"/>
	<path fill="#D95936" d="M591.8,306.4c0,5.7,4.7,10.2,10.2,10.2c5.5,0,10-4.2,10-10.2c0-5.7-4.7-10-10-10
		C596.5,296.4,591.8,300.7,591.8,306.4L591.8,306.4z M593.7,306.4c0-4.9,3.6-8.5,8.3-8.5c4.7,0,8.3,3.6,8.3,8.5
		c0,4.9-3.6,8.7-8.3,8.7C597.3,314.9,593.7,311.3,593.7,306.4L593.7,306.4z M598,312.4h1.9v-5.1h1.9l3.2,5.1h1.9l-3.4-5.1
		c1.7-0.2,3.2-1.1,3.2-3.2c0-2.3-1.3-3.4-4-3.4h-4.5v11.7H598z M599.9,302h2.3c1.3,0,2.6,0.2,2.6,1.7c0,1.9-1.5,1.9-3.2,1.9h-1.9
		V302H599.9z"/>
</g>
</svg>
