<?xml version="1.0" encoding="utf-8"?>
<!-- Generator: Adobe Illustrator 18.1.1, SVG Export Plug-In . SVG Version: 6.00 Build 0)  -->
<!DOCTYPE svg PUBLIC "-//W3C//DTD SVG 1.1//EN" "http://www.w3.org/Graphics/SVG/1.1/DTD/svg11.dtd">
<svg version="1.1" id="Layer_1" xmlns="http://www.w3.org/2000/svg" xmlns:xlink="http://www.w3.org/1999/xlink" x="0px" y="0px"
	 viewBox="-90 231 792 330" enable-background="new -90 231 792 330" xml:space="preserve">
<g id="Layer_1_1_">
	<g>
		<path fill="#00B6B8" d="M115.9,380c-9.5,11.9-24.7,20.1-40.1,23.6C40.3,412,7.5,400.1,1.3,378c-4-14.1,1.5-34.6,26.2-46.3
			c3.1-1.5,8.4-3.3,12.3-4.6c0.4,1.3,1.1,2.6,1.5,4c0.4,0.9,0.7,1.8,0.9,2.6c-2.9,0.9-6.6,2.2-10.4,4.2
			c-13.4,7.7-19.2,21.2-16.5,33.7c2.4,11.2,11.9,19.4,25.6,23.1c0,0,13.2,4.8,36.4,0.7c29.8-5.5,43.9-25.1,38.6-45.6
			c-0.4-2-2-4.6-3.1-5.5c-2.4-2,9.7-12.1,11.9-8.2C130,346.1,128.7,363.7,115.9,380z"/>
		
			<ellipse transform="matrix(0.3647 -0.9311 0.9311 0.3647 -255.7025 273.723)" fill="#1870B8" cx="72.7" cy="324.2" rx="13.4" ry="11.7"/>
		<path fill="#1870B8" d="M41,394.8c7.7-15.2,10.1-38.1,0.2-63.7c-7.5-19.4-11.5-23.4-8.8-25.3c4.2-3.1,15.6,14.3,25.8,31.7
			c4.2,7.1,9,11.5,16.3,7.3c10.4-6,21.4-15.9,29.3-20.7c14.1-8.8,26.4-13.7,27.3-9.9c0.7,2.6-24.2,13-41.2,41
			c-5.7,9.5-12.3,26.7-12.8,40.1C54.2,399.6,41,394.8,41,394.8z"/>
	</g>
</g>
<g id="Layer-1">
	<g>
		<path fill="#00B6B8" d="M166.4,420.4c-6.6,10.8-9.9,20.7-9.9,31.1s3.5,20.1,9.9,30.9h-5.1c-7.5-10.8-11.2-20.9-11.2-30.9
			s3.7-20.3,11.2-31.1H166.4z"/>
		<path fill="#00B6B8" d="M197.5,452.5c0,8.4-4,12.6-8.8,12.6c-5.1,0-9-4.6-9-12.6c0-8.2,4.2-12.1,9.3-12.1
			C193.7,440.4,197.5,444.4,197.5,452.5z M179.6,466.9c2.2,2.4,5.5,4.6,10.8,4.6c8.8,0,15.4-7.1,15.4-19.4
			c0-11.7-6.8-18.5-15.2-18.5c-3.3,0-8.4,1.1-11.7,6v-5.1h-7.3v51.1h7.9L179.6,466.9L179.6,466.9z"/>
		<path fill="#00B6B8" d="M218.8,449.2c0.9-6.6,4.6-9.3,8.8-9.3c5.1,0,7.7,3.5,8.2,9.5L218.8,449.2z M243.3,451.6
			c0-10.8-5.5-18.1-15.4-18.1s-17.2,7.3-17.2,18.7c0,11.7,6.6,19.4,17.9,19.4c4.2,0,8.6-0.9,11.9-2.2v-7.3
			c-3.1,1.8-7.3,3.1-10.4,3.1c-5.7,0-10.8-3.3-11.5-10.4h24.7V451.6z"/>
		<path fill="#00B6B8" d="M311.4,424.3c-1.3-0.4-2.6-0.9-3.5-0.9c-3.5-0.2-5.3,1.5-5.3,6.6v4.4h8.2v6.4h-8.2V471h-7.9v-30.2h-7.3
			v-6.4h7.3v-4.6c0-8.4,4.4-13,11.7-13c1.3,0,3.7,0.4,5.3,0.7L311.4,424.3z"/>
		<path fill="#00B6B8" d="M365.6,440.2c5.3,0,9,4,9,12.1c0,7.7-4.2,11.9-9,11.9c-4.6,0-8.6-4-8.6-12.1
			C357,445,360.3,440.2,365.6,440.2z M375.3,439.3c-2.2-4-7.3-5.5-11.2-5.5c-9.3,0-15.4,6.8-15.4,19c0,11.2,6.8,18.5,15.4,18.5
			c5.3,0,8.8-2.6,11-5.5v2c0,7.7-3.7,12.1-11.5,12.1c-4.6,0-7.1-1.3-11-3.1l-0.7,7.5c3.5,1.3,8.4,2.4,12.6,2.4
			c12.1,0,18.3-7.3,18.3-20.1v-32.2h-7.5V439.3z"/>
		<path fill="#00B6B8" d="M412.3,441.9c-0.9-0.2-2.6-0.7-3.7-0.7c-5.5,0-8.4,4.4-8.4,11.5V471h-7.9v-36.6h7.3v4.8
			c1.5-2.6,4.6-5.5,9.3-5.5c0.7,0,2.6,0,3.5,0.2V441.9z"/>
		<path fill="#00B6B8" d="M437.2,453.6v1.8c0,6.2-4.2,9.7-9,9.7c-2.9,0-5.5-1.8-5.5-5.3c0-4,3.5-6.4,11.5-6.4h3.1V453.6z M445,449
			c0-9.7-4.6-15.2-13.9-15.2c-4.2,0-8.8,1.1-12.6,2.9v6.8c3.5-2,7.5-3.3,10.6-3.3c4.2,0,7.7,2.4,7.7,7.3c0,0.2,0,0.4,0,0.7h-3.7
			c-13.2,0-19,5.1-19,12.6c0,6.6,5.1,11,11.9,11c4,0,8.8-1.5,11.2-4.8v4.4h7.3V449H445z"/>
		<path fill="#00B6B8" d="M475.1,442.6c-2.9-1.5-6.4-2.4-9.5-2.4c-3.7,0-5.3,1.5-5.3,3.3c0,2.2,2.2,3.3,6.4,5.5
			c6.4,2.9,9.9,5.7,9.9,11.5c0,6.8-6,11.2-15,11.2c-3.1,0-7.1-0.7-9.9-2l0.2-7.1c3.1,1.5,7.5,2.9,10.1,2.9c4.4-0.2,6.2-2,6.2-4.4
			c0-2.6-2.2-3.7-6.2-5.7c-6.4-3.1-9.9-6.2-9.9-11c0-5.3,4.6-9.9,13.7-9.9c2.6,0,6.4,0.4,9.5,1.5L475.1,442.6z"/>
		<path fill="#00B6B8" d="M494.8,434.5h8.4v6.4h-8.4v17.4c0,4.8,1.1,6.8,4.4,6.8c0.9,0,2.9-0.4,4.2-1.1v6.6c-1.8,0.7-4.2,0.9-6,0.9
			c-8.2,0-10.6-4.4-10.6-12.6v-18.1h-7.1v-6.4h7.1V425l8.2-2v11.5H494.8z"/>
		<path fill="#00B6B8" d="M567.9,433.8c7.3,0,11.9,4.6,11.9,15.4v22h-7.9v-20.5c0-7.1-2-9.7-6-9.7c-5.5,0-8.2,4.6-8.2,11.5v18.7
			h-7.9v-20.5c0-6.8-1.8-9.7-6.4-9.7c-4.8,0-7.9,4.4-7.9,11.5v18.7h-7.9v-36.8h7.5v4.8c3.5-5.1,8.6-5.5,10.8-5.5
			c4.8,0,8.8,2.6,10.4,6.6C558.7,436.2,562.6,433.8,567.9,433.8z"/>
		<path fill="#00B6B8" d="M586.7,420.4c7.5,10.8,11.2,21.2,11.2,31.1s-3.7,20.3-11.2,30.9h-5.1c6.6-10.8,9.9-20.7,9.9-30.9
			c0-10.4-3.5-20.1-9.9-31.1H586.7z"/>
		<rect x="333.2" y="419.5" fill="#00B6B8" width="7.9" height="51.6"/>
		<path fill="#00B6B8" d="M315.8,423h7.9v7.9h-7.9V423z M323.7,434.5V471h-7.9v-36.6H323.7z"/>
		<path fill="#00B6B8" d="M510,423h7.9v7.9H510V423z M517.9,434.5V471H510v-36.6H517.9z"/>
		<path fill="#00B6B8" d="M274.4,439.3c-2.2-4-7.3-5.5-11.2-5.5c-9.3,0-15.4,6.8-15.4,19c0,11.2,6.8,18.5,15.4,18.5
			c5.3,0,8.8-2.6,11-5.5v2c0,7.7-3.7,12.1-11.5,12.1c-4.6,0-7.1-1.3-11-3.1l-0.7,7.5c3.5,1.3,8.4,2.4,12.6,2.4
			c12.1,0,18.3-7.3,18.3-20.1v-32.2h-7.5V439.3z M264.7,440.2c5.3,0,9,4,9,12.1c0,7.7-4.2,11.9-9,11.9c-4.6,0-8.6-4-8.6-12.1
			C256.1,445,259.4,440.2,264.7,440.2z"/>
	</g>
	<g>
		<path fill="#1870B8" d="M285.8,374.3c0-18.1-9-28.9-24.2-28.9c-15.9,0-27.8,13.2-27.8,30.4c0,18.3,9.5,29.5,26,30.2
			c13.7,0.4,24.2-8.8,24.2-8.8l-4.8-8.4c0,0-4.8,5.5-16.3,4.6c-8.2-0.7-13.7-6.4-13.9-16.3c1.8,0,36.6,0,36.6,0v-2.9 M249.9,367.2
			c0.9-7.1,4.6-11.2,10.6-11.2c6.6,0,10.6,4.2,10.8,11.2C269.5,367.2,252.1,367.2,249.9,367.2z"/>
		<path fill="#1870B8" d="M156,325.8v78.5h14.3c0,0,0-52,0-57.5c2.9,4.8,34.4,57.5,34.4,57.5H223v-78.5h-14.3c0,0,0,53.3,0,58.8
			c-3.1-4.6-35.9-58.8-35.9-58.8H156z"/>
		<polygon fill="#1870B8" points="360.8,320.1 360.8,404.3 375.8,404.3 375.8,320.1 		"/>
		<path fill="#1870B8" d="M451.6,351.8c-3.3,3.3-4.8,7.7-4.8,12.8c0.2,7.7,4.4,13,13.7,16.3l2.9,1.1c6.2,2.2,8.6,3.3,8.8,6.8
			c0,1.3-0.4,2.4-1.3,3.3c-1.3,1.3-3.5,2.2-6.2,2.2c-3.5,0-7.5-1.5-12.6-4.6l-0.9-0.4l-5.7,11l0.7,0.4c5.3,3.5,12.1,5.3,19,5.3
			c7.1,0,13-2,16.7-6c3.1-3.3,4.8-7.5,4.6-12.3c-0.2-6.8-4-12.3-10.6-15.2l-6.2-2.4c-6-2.2-9-3.3-9-6.6c0-1.3,0.4-2.4,1.3-3.3
			c1.3-1.3,3.5-2.2,6.2-2.2c3.3,0,7.1,1.5,12.1,4.6l0.9,0.4l6-10.8l-0.7-0.4c-6.2-3.7-12.3-5.5-19.2-5.5
			C460.8,346.1,455.3,348.1,451.6,351.8z"/>
		<path fill="#1870B8" d="M502.7,347.4c-1.3,0-9,0-9,0v11.7c0,0,7.5,0,9,0c0,1.5,0,27.3,0,27.3v1.3c0.2,11.7,5.3,17.6,15.2,17.6
			c4.4,0,9.3-1.3,14.8-4.4l0.7-0.2l-2.9-10.6l-0.9,0.2c-2.9,1.1-5.7,2-7.5,2c-2.6,0-4.4-1.1-4.4-6.2v-0.4c0-0.2,0-22.3,0-26.7
			c1.5,0,13.4,0,13.4,0v-11.7c0,0-13.4,0.2-13.4,0c0-0.2,0-21.6,0-21.6h-15C502.7,325.8,502.7,347.4,502.7,347.4z"/>
		<path fill="#1870B8" d="M331,347.2c0,0,0,24.9,0,33.1c0,2.2-0.4,6-1.8,7.5c-3.5,4.2-7.3,5.1-10.8,5.1c-5.1,0-7.5-3.1-7.5-10.4
			c0-0.2,0-0.4,0-0.4v-34.8h-15.2v39.9v0.7c0.2,11.7,6.2,18.1,16.7,18.1c6.4,0,13-2.9,19.4-8.6c0,2.2,0,7.1,0,7.1h15V347H331V347.2z
			"/>
		<path fill="#1870B8" d="M543.9,354.7l-0.7,0.4l5.7,9l0.7-0.7c5.5-4,11-6.2,15.4-6.2c4.6,0,6.4,2.2,6.6,7.5v1.3c0,0,0,0.7,0,1.3
			c-12.8,0.2-22.3,3.3-27.5,8.8c-3.1,3.3-4.6,7.1-4.6,11.7c0,0.2,0,0.2,0,0.4c0.2,10.4,7.9,17.2,19.4,17.2c5.3,0,10.1-2,15-6.2
			c1.5,3.3,4.6,5.3,9,5.3c4,0,7.5-0.4,12.1-3.3l-2.2-9.3l-1.1,0.7c-1.3,0.7-2.4,0.9-3.3,0.9c-1.5-0.2-2.4-1.1-2.6-7.1v-2.2l0.2-16.5
			v-2.2c-0.2-14.5-5.3-20.1-18.7-20.1C559.5,346.1,552.7,348.7,543.9,354.7 M553.8,387.5v-0.2c0-6.6,5.3-9.5,17.9-9.9
			c0,1.1,0,6.4,0,9.3c0,1.8-0.7,2.6-1.5,3.5c-3.3,3.1-6.8,4.4-9.9,4.4C556.5,394.6,554,391.9,553.8,387.5z"/>
		<path fill="#1870B8" d="M389.4,354.7l-0.7,0.4l5.7,9l0.7-0.7c5.5-4,11-6.2,15.4-6.2c4.6,0,6.4,2.2,6.6,7.5v1.3c0,0,0,0.7,0,1.3
			c-12.8,0.2-22.3,3.3-27.5,8.8c-3.1,3.3-4.6,7.1-4.6,11.7c0,0.2,0,0.2,0,0.4c0.2,10.4,7.9,17.2,19.4,17.2c5.3,0,10.1-2,15-6.2
			c1.5,3.3,4.6,5.3,9,5.3c4,0,7.5-0.4,12.1-3.3l-2.2-9.3l-1.1,0.7c-1.3,0.7-2.4,0.9-3.3,0.9c-1.5-0.2-2.4-1.1-2.6-7.1v-2.2l0.2-16.5
			v-2.2c-0.2-14.5-5.3-20.1-18.7-20.1C405.1,346.1,398.2,348.7,389.4,354.7 M399.6,387.5v-0.2c0-6.6,5.3-9.5,17.9-9.9
			c0,1.1,0,6.4,0,9.3c0,1.8-0.7,2.6-1.5,3.5c-3.3,3.1-6.8,4.4-9.9,4.4C402,394.6,399.6,391.9,399.6,387.5z"/>
	</g>
	<g>
		<path fill="#1870B8" d="M602.3,341c5.3,0,9.7,4.4,9.7,9.7s-4.4,9.7-9.7,9.7c-5.3,0-9.7-4.4-9.7-9.7S597,341,602.3,341z
			 M602.3,358.4c3.7,0,6.8-3.1,6.8-7.5c0-4.4-3.1-7.5-6.8-7.5c-4,0-6.8,3.1-6.8,7.5C595.5,355.3,598.3,358.4,602.3,358.4z
			 M598.3,345.4h4c2.6,0,4.2,0.9,4.2,3.3c0,2-1.1,2.6-2.9,2.9l2.9,4.6h-2.4l-2.6-4.6h-1.1v4.6h-2.2v-10.8H598.3z M602.5,349.8
			c1.1,0,1.8-0.2,1.8-1.3s-1.1-1.3-2-1.3h-1.5v2.6H602.5z"/>
	</g>
</g>
</svg>
