<?xml version="1.0" encoding="utf-8"?>
<!-- Generator: Adobe Illustrator 18.1.1, SVG Export Plug-In . SVG Version: 6.00 Build 0)  -->
<!DOCTYPE svg PUBLIC "-//W3C//DTD SVG 1.1//EN" "http://www.w3.org/Graphics/SVG/1.1/DTD/svg11.dtd">
<svg version="1.1" id="Layer_1" xmlns="http://www.w3.org/2000/svg" xmlns:xlink="http://www.w3.org/1999/xlink" x="0px" y="0px"
	 viewBox="-98 166 808 460" enable-background="new -98 166 808 460" xml:space="preserve">
<path fill="#002F65" d="M108.2,399L28,322.6v75H0v-121h14l77.8,73v-73h28V399H108.2z"/>
<path fill="#002F65" d="M159.9,395.3v36.9h-28v-123h28v6c6.9-5.2,15.7-8,25.8-8c38.1,0,57.2,15.5,57.2,46.6
	c0,14.6-5.2,25.8-15.7,33.5C216.6,395,202.3,399,184,399C175.1,399,167.1,397.9,159.9,395.3z M159.9,330.6v46.6
	c5.2,3.1,10.9,4.6,17.7,4.6c12.9,0,22-2.3,27.8-6.9c5.7-4.6,8.3-11.7,8.3-21.5c0-10.6-2.9-17.7-8.3-22c-5.4-4.3-14.9-6.3-27.5-6.3
	C171.1,324.9,165.1,326.9,159.9,330.6z"/>
<path fill="#002F65" d="M248.6,276l28-4.9v99.6c0,10.9,4.3,17.5,13.2,19.5c-4.3,6-11.7,8.9-22,8.9c-12.6,0-18.9-6.6-18.9-19.5V276
	H248.6z"/>
<path fill="#002F65" d="M360.2,388.7c-2.6,3.1-6.9,5.7-13.2,7.7s-12.9,2.9-19.5,2.9c-12.9,0-22.9-2.3-30-7.2
	c-7.4-4.9-10.9-11.4-10.9-20.3c0-10.3,5.2-18.3,15.5-24c10.3-5.7,24.9-8.6,43.8-8.6c3.1,0,7.2,0.3,11.4,1.1
	c0-10.6-8.9-15.7-26.6-15.7c-10.3,0-19.2,1.4-26,4l-6-16c9.4-3.4,20.9-5.2,34.3-5.2c18.3,0,31.5,3.1,40.1,9.2
	c8.6,6,12.6,17.7,12.6,34.9v18.9c0,11.7,3.1,19.2,9.7,22.3c-2.3,3.1-4.9,4.9-7.7,5.7c-2.9,0.6-6,1.1-9.7,1.1c-4,0-7.7-1.1-10.9-3.4
	C363.7,393.6,361.4,391.3,360.2,388.7z M357.6,355.8c-4.6-0.9-8.3-1.1-10.6-1.1c-21.7,0-32.6,5.4-32.6,16c0,8,6,12,18.3,12
	c16.6,0,24.9-6.3,24.9-18.6V355.8z"/>
<path fill="#002F65" d="M401.4,325.8h-14v-16.6h14v-18l28-7.7v25.5h32.9v16.6h-32.9v38.9c0,6.3,1.4,10.9,4,13.4c2.6,2.6,7.4,4,14,4
	c6.6,0,12.9-1.4,18.6-4v18.9c-6.6,1.7-15.7,2.6-27.8,2.6s-21.2-2.6-27.5-7.4c-6.3-4.9-9.7-12-9.7-21.2v-44.9H401.4z"/>
<path fill="#002F65" d="M580,359.5h-85.5c0.6,7.2,3.7,12.6,9.7,16.6c6,4,14.3,6,24.3,6c12.9,0,22.6-2.6,29.2-7.4l10.9,15.7
	c-9.7,6-24.6,9.2-44.1,9.2c-18.3,0-32.9-4-43.5-11.7c-10.6-8-16-18.9-16-33.2c0-14,5.7-25.2,17.5-33.8c11.7-8.6,25.8-12.9,42.1-12.9
	c17.5,0,31.5,3.7,41.8,11.4c10.6,7.7,15.7,17.5,15.7,29.2C582.2,350.4,581.4,354.4,580,359.5z M495.3,343.8h58.9
	c-2-12.9-11.7-19.2-29.2-19.2C509,324.6,499,330.9,495.3,343.8z"/>
<g>
	<path fill="#002F65" d="M192.3,458.5c0-6.6,0-12.3-0.3-17.7h6.3l0.3,11.2h0.3c1.7-7.7,6.3-12.3,11.2-12.3c0.9,0,1.4,0,2,0.3v9.7
		c-0.9-0.3-1.4-0.3-2.6-0.3c-5.2,0-8.9,5.4-9.7,13.2c-0.3,1.4-0.3,3.1-0.3,4.9v30.3h-7.2L192.3,458.5L192.3,458.5z"/>
	<path fill="#002F65" d="M252.4,468.8c0,20.9-10.3,30.3-19.7,30.3c-10.9,0-19.2-11.2-19.2-29.2c0-19.2,8.9-30,19.7-30
		C244.6,439.6,252.4,451.4,252.4,468.8z M220.9,469.4c0,12.3,5.2,21.7,12,21.7c6.9,0,12-9.2,12-22c0-9.7-3.4-21.7-12-21.7
		C224.6,447.4,220.9,458.5,220.9,469.4z"/>
	<path fill="#002F65" d="M259.5,456.2c0-6,0-10.6-0.3-15.5h6.3l0.3,9.2h0.3c2.3-5.4,6-10.6,12.6-10.6c5.4,0,9.4,4.6,11.2,11.4h0.3
		c1.1-3.1,2.9-5.7,4.6-7.4c2.3-2.6,5.2-4,8.9-4c5.2,0,13.2,4.9,13.2,24.6v33.5h-7.2v-32c0-10.9-2.9-17.5-8.6-17.5
		c-4,0-7.4,4.3-8.6,9.4c-0.3,1.4-0.6,3.4-0.6,5.2v35.2h-7.2v-34c0-9.2-2.9-15.7-8.3-15.7c-4.6,0-7.7,5.2-8.9,10.3
		c-0.3,1.4-0.6,3.1-0.6,5.2v34.3h-7.2v-41.5H259.5z"/>
	<path fill="#002F65" d="M334.5,424.8c0,3.4-1.7,6.3-4.6,6.3c-2.6,0-4.3-2.9-4.3-6.3c0-3.7,2-6.6,4.6-6.6
		C332.5,418.5,334.5,421.3,334.5,424.8z M326.2,497.7v-56.9h7.2v56.9H326.2z"/>
	<path fill="#002F65" d="M343.3,459.4c0-7.2-0.3-13.2-0.3-18.6h6.6l0.3,9.7h0.3c2.9-6.9,7.7-11.2,14.3-11.2
		c9.7,0,16.9,11.7,16.9,28.9c0,20.3-8.9,30.6-18,30.6c-5.2,0-10-3.1-12.3-8.9h-0.3v30.9h-7.4V459.4z M350.8,474.5
		c0,1.4,0.3,2.9,0.3,4.3c1.4,7.2,5.7,12,10.9,12c7.7,0,12-8.9,12-22c0-11.4-4.3-21.2-11.7-21.2c-4.9,0-9.4,5.2-10.9,12.9
		c-0.3,1.1-0.6,2.9-0.6,4.3V474.5z"/>
	<path fill="#002F65" d="M388.3,414.2h7.2v83.3h-7.2V414.2z"/>
	<path fill="#002F65" d="M441.8,468.8c0,20.9-10.3,30.3-19.7,30.3c-10.9,0-19.2-11.2-19.2-29.2c0-19.2,8.9-30,19.7-30
		C434,439.6,441.8,451.4,441.8,468.8z M410.3,469.4c0,12.3,5.2,21.7,12,21.7c6.9,0,12-9.2,12-22c0-9.7-3.4-21.7-12-21.7
		C414,447.4,410.3,458.5,410.3,469.4z"/>
	<path fill="#002F65" d="M448.1,487.1c2,2,6,4,9.4,4c5.2,0,7.7-3.7,7.7-8.6c0-4.9-2-7.7-7.4-10.6c-7.2-3.7-10.6-9.2-10.6-16
		c0-9.2,5.2-16.6,13.7-16.6c4,0,7.4,1.7,9.7,3.4l-1.7,7.4c-1.4-1.4-4.6-3.1-8.3-3.1c-4.3,0-6.6,3.4-6.6,7.7c0,4.6,2.3,6.9,7.7,9.7
		c6.9,3.7,10.6,8.6,10.6,17.2c0,10-5.4,17.2-14.9,17.2c-4.3,0-8.3-1.7-11.2-4L448.1,487.1z"/>
	<path fill="#002F65" d="M488.1,427.3v13.7h10.3v8h-10.3v30.6c0,7.2,1.4,11.2,5.4,11.2c2,0,3.1-0.3,4.3-0.6l0.3,7.7
		c-1.4,0.9-3.7,1.4-6.3,1.4c-3.4,0-6-1.7-7.7-4.6c-2-3.1-2.9-8-2.9-14.9v-31.2H475v-8h6.3v-10.6L488.1,427.3z"/>
	<path fill="#002F65" d="M512.7,424.8c0,3.4-1.7,6.3-4.6,6.3c-2.6,0-4.3-2.9-4.3-6.3c0-3.7,2-6.6,4.6-6.6
		C511,418.5,512.7,421.3,512.7,424.8z M504.7,497.7v-56.9h7.2v56.9H504.7z"/>
	<path fill="#002F65" d="M521.9,456.2c0-6,0-10.6-0.3-15.5h6.3l0.3,9.2h0.3c2.3-5.4,6-10.6,12.6-10.6c5.4,0,9.4,4.6,11.2,11.4h0.3
		c1.1-3.1,2.9-5.7,4.6-7.4c2.3-2.6,5.2-4,8.9-4c5.2,0,13.2,4.9,13.2,24.6v33.5h-7.2v-32c0-10.9-2.9-17.5-8.6-17.5
		c-4,0-7.4,4.3-8.6,9.4c-0.3,1.4-0.6,3.4-0.6,5.2v35.2h-7.2v-34c0-9.2-2.9-15.7-8.3-15.7c-4.6,0-7.7,5.2-8.9,10.3
		c-0.3,1.4-0.6,3.1-0.6,5.2v34.3h-7.2v-41.5H521.9z"/>
</g>
<g>
	<path fill="#002F65" d="M594.8,290c9.7,0,17.5,7.7,17.5,17.5s-7.7,17.7-17.5,17.7s-17.7-7.7-17.7-17.7
		C577.1,298,584.8,290,594.8,290L594.8,290z M594.5,292.9c-7.7,0-14.3,6.6-14.3,14.9s6.3,14.9,14.3,14.9c7.7,0,14-6.6,14-14.9
		C608.9,299.4,602.6,292.9,594.5,292.9L594.5,292.9z M591.4,317.7h-3.1v-19.5c1.7-0.3,3.1-0.6,5.4-0.6c2.9,0,4.9,0.6,6,1.4
		c1.1,0.9,1.7,2.3,1.7,4c0,2.6-1.7,4-3.7,4.6v0.6c1.7,0.3,2.9,2,3.1,4.9c0.6,3.1,0.9,4.3,1.1,4.9h-3.1c-0.6-0.6-0.9-2.3-1.4-5.2
		c-0.3-2.6-1.7-3.4-4.3-3.4h-2.3v8.3H591.4z M591.4,306.9h2.3c2.6,0,4.9-0.9,4.9-3.4c0-1.7-1.1-3.4-4.9-3.4c-1.1,0-1.7,0-2.3,0
		V306.9z"/>
</g>
</svg>
