<?xml version="1.0" encoding="utf-8"?>
<!-- Generator: Adobe Illustrator 24.2.1, SVG Export Plug-In . SVG Version: 6.00 Build 0)  -->
<svg version="1.1" id="Layer_1" xmlns="http://www.w3.org/2000/svg" xmlns:xlink="http://www.w3.org/1999/xlink" x="0px" y="0px"
	 viewBox="0 0 826 544" style="enable-background:new 0 0 826 544;" xml:space="preserve">
<style type="text/css">
	.st0{fill:#00B1AC;}
	.st1{fill:#4F2D7E;}
</style>
<g>
	<rect x="107" y="347.5" class="st0" width="538" height="4.8"/>
</g>
<g>
	<g>
		<path class="st1" d="M148.3,106.7c-12.9,0-23.6,11.2-23.6,23.3c0,15,13.7,22.1,24.6,26.6c16.7,7.1,33.2,13.9,33.2,36.8
			c-0.2,23.8-22.8,39.6-47.6,39.6c-6.1,0-15.7-2.3-21.3-3.5c0.3-6.8-0.3-18.5-0.5-27.6c6.1,8.1,13.7,18.3,27.4,18.3
			c13.2,0,24.6-9.9,24.6-23.8c0-13.2-5.8-16.2-38.5-33c-17.6-9.3-17.6-25-17.6-29.3c0-24.3,19.3-40.6,42.8-40.6c8.6,0,16,2.8,21,5.3
			c-0.3,7.1,0,21.8,0,22.3C169.4,117.1,161.3,106.7,148.3,106.7z"/>
		<path class="st1" d="M252.3,175.7c-0.8,0-34.5,0.5-43.6-1c0.5-9.4,3.5-29.9,21.8-29.9C232.5,145,254.5,145,252.3,175.7z
			 M261.9,210.1c-13.7,8.1-22.3,11.7-30.4,11.7c-4.6,0-15-2.3-20.3-13.9c-4.1-8.6-3.5-17.7-3.5-22.8c4.8-0.3,8.6-0.8,20.3-0.8
			c15.2,0,20.3,0.3,35.7,1c0.3-8.9,0.5-21.3-3.5-30.9c-6.6-16.7-21.8-19.8-29.7-19.8c-16,0-38.8,11.9-38.8,54
			c0,16,3.5,25.6,11.7,34.2s16,10.4,27.4,10.4c10.1,0,15.7-2.3,21.3-4.3L261.9,210.1z"/>
		<path class="st1" d="M291.1,152.8l12.7-12.7c5.1-2.3,10.6-4.8,19.3-4.8c7.6,0,16.7,3.5,20.8,12.7c2.5,5.8,2.5,13.4,2.5,19.3v34.2
			c0,19.3,2.8,25.1,5.3,30.2h-23.1c2-5.3,3.8-10.6,3.8-28.4v-23.6c0-19.3-0.3-31.7-17-31.7c-8.1,0-17.5,3-23.1,8.9
			c-1.3,1.3-1.3,1.8-1.3,7.9v42.8c0,13.9,1,17.7,3.8,24.1H272c2-4.3,5.1-10.4,5.1-24.8V164c0-16-1.5-20.3-7.9-27.6h21.5v16.5h0.4
			V152.8z"/>
		<path class="st1" d="M414.8,152.1c-3.5-2.3-10.1-6.8-20.5-6.8c-13.2,0-17,8.6-17,14.5c0,9.1,8.1,13.2,11.4,15
			c20.5,10.6,31.4,16.2,31.4,31.4c0,7.4-4.3,26.9-36.8,26.9c-11.2,0-17.5-1.8-23.8-3.5c0.5-6.8,0.8-8.6,1-25.1
			c7.9,11.9,12.4,17.5,27.1,17.5c15.7,0,17.5-9.4,17.5-13.4c0-10.1-8.6-13.9-23.1-20.5c-5.8-2.5-20.8-9.1-20.8-27.4
			c0-17.7,18.3-26.4,32.2-26.4c7.9,0,15.2,1.5,21.5,2.8L414.8,152.1z"/>
		<path class="st1" d="M448,205.1c0,16.2,2,22.1,3.8,26.6H430c2-6.8,4.3-13.9,4.3-33.5V161c0-5.8,0-13.4-4.3-24.8h22.6
			c-3.3,13.2-4.6,18.5-4.6,34V205.1z"/>
		<path class="st1" d="M485.3,159.9c5.1-5.1,12.2-10.1,24.1-10.1c17.7,0,24.8,13.9,24.8,30.4c0,27.1-14.5,36.8-28.1,36.8
			c-3.8,0-10.1-0.5-19-4.8c-1.5-0.8-1.5-1.5-1.5-3.8L485.3,159.9z M471.8,229.7c0,11.7-0.5,19.3-4.6,31.7h23.3
			c-5.1-11.7-5.1-15.2-5.1-39c0-2.3,0.5-3.8,1.8-3.8s4.8,4.3,9.6,8.9c1.3,1.3,6.3,1.8,10.9,1.8c15.5,0,42.1-8.1,42.1-49.4
			c0-43.9-33.5-44.4-35.2-44.4c-7.1,0-17.2,3.3-29.7,17.7l0.5-17.5h-22.1c7.1,11.2,8.1,16.7,8.1,28.6L471.8,229.7z"/>
		<path class="st1" d="M603.4,216c-5.1,1.5-11.2,3-19,3c-14.7,0-14.7-11.2-14.7-12.7c0.5-14.7,31.4-25.9,34.2-25.9L603.4,216z
			 M618.1,162.7c0-16-7.4-28.1-27.4-28.1c-11.2,0-19.3,2.3-23.1,3.5l-2.8,17c9.4-6.8,14.5-10.1,22.3-10.1c16.7,0,17.5,15.2,17,27.1
			c-6.6,3.8-11.2,5.6-32.2,13.7c-4.6,1.5-16.7,6.3-16.7,23.6c0,10.6,6.3,22.3,23.6,22.3c2,0,6.6,0,8.4-1c2.5-1.3,13.2-9.4,16-11.4
			v12.2h20.5c-5.8-8.1-6.6-9.4-6.6-28.4L618.1,162.7z"/>
		<path class="st1" d="M691.9,153.6c-5.8-2.8-12.2-4.3-19-4.3c-8.9,0-18.3,3.5-21.3,9.4c-0.8,2-0.8,4.3-0.8,10.1l0.5,36.8
			c0.5,13.9,1.3,18,4.3,25.6H633c2.3-7.9,4.6-14.7,4.3-28.6l-0.5-41.8c-0.3-10.9-1-13.9-7.1-25.1h20.8c-0.3,2.3-0.5,11.4-0.5,17.2
			c2.8-2.8,16.5-12.9,19-15.2c3.5-1,7.1-2.3,12.9-2.3c5.1,0,8.1,1,11.2,1.8L691.9,153.6z"/>
		<path class="st1" d="M451.8,110c0,8.1-5.1,11.9-10.4,11.9s-9.4-4.6-9.4-11.4c0-10.9,8.9-10.9,9.6-10.9
			C445.5,99.4,451.8,101.6,451.8,110z"/>
		<g>
			<path class="st1" d="M707.8,111c6.1,0,11.2,4.8,11.2,11.2s-5.1,11.2-11.2,11.2s-11.2-4.8-11.2-11.2
				C696.4,115.8,701.8,111,707.8,111z M707.8,131.8c5.1,0,9.1-4.1,9.1-9.6c0-5.3-4.1-9.4-9.1-9.4c-5.3,0-9.1,4.1-9.1,9.4
				C698.5,127.5,702.5,131.8,707.8,131.8z M703.5,115.6h5.1c3,0,4.6,1.3,4.6,3.8c0,2.3-1.5,3.3-3.5,3.5l3.8,5.8h-2.3l-3.5-5.6h-2
				v5.6h-2L703.5,115.6L703.5,115.6z M705.6,121.4h2c1.8,0,3.5,0,3.5-2c0-1.8-1.5-2-2.8-2h-2.8L705.6,121.4L705.6,121.4z"/>
		</g>
	</g>
	<g>
		<path class="st1" d="M138.7,324.5c-1.8,0.5-3.5,1-5.1,1c-10.4,0-15-13.2-15-24.6c0-13.4,7.4-25.4,19-25.4c2.3,0,3,0.3,4.3,1
			l-0.3,9.6c-1.8-3.3-4.3-5.3-7.1-5.3c-4.6,0-11.4,5.8-11.4,18.8c0,7.9,2.8,15,6.3,17.2c1.8,1.3,4.6,1.3,5.8,1.3c4.1,0,5.8-1,6.8-2
			L138.7,324.5z"/>
		<g>
			<path class="st1" d="M151.6,311.8c0,8.1,0.8,11.2,1.3,13.4H146c0.8-3.5,1.3-7.1,1.3-17v-18.8c0-3,0-6.8-1.3-12.7h7.1
				c-1,6.6-1.5,9.4-1.5,17.2V311.8z M153.1,263.6c0,4.1-1.8,6.1-3.3,6.1c-1.8,0-3-2.3-3-5.8c0-5.6,3-5.6,3.3-5.6
				C150.9,258.3,153.1,259.3,153.1,263.6z"/>
		</g>
		<path class="st1" d="M164.3,285.4l4.1-6.3c1.5-1,3.3-2.5,6.1-2.5c2.5,0,5.3,1.8,6.6,6.3c0.8,3,0.8,6.8,0.8,9.9v17.5
			c0,9.9,1,12.7,1.8,15.2h-7.4c0.5-2.8,1.3-5.6,1.3-14.5v-11.9c0-9.9,0-16-5.3-16c-2.5,0-5.6,1.5-7.4,4.6c-0.3,0.8-0.3,1-0.3,4.1
			v21.5c0,7.1,0.3,8.9,1.3,12.2h-7.1c0.8-2,1.5-5.3,1.5-12.7V291c0-8.1-0.5-10.1-2.5-13.9h6.8v8.4h-0.3V285.4z"/>
		<path class="st1" d="M230.5,324.5c-1.8,0.5-3.5,1-5.1,1c-10.4,0-15-13.2-15-24.6c0-13.4,7.4-25.4,19-25.4c2.3,0,3,0.3,4.3,1v9.6
			c-1.8-3.3-4.3-5.3-7.1-5.3c-4.6,0-11.4,5.8-11.4,18.8c0,7.9,2.8,15,6.3,17.2c1.8,1.3,4.6,1.3,5.8,1.3c4.1,0,5.8-1,6.8-2
			L230.5,324.5z"/>
		<path class="st1" d="M291.1,324.5c-1.8,0.5-3.5,1-5.1,1c-10.4,0-15-13.2-15-24.6c0-13.4,7.4-25.4,19-25.4c2.3,0,3,0.3,4.3,1
			l-0.3,9.6c-1.8-3.3-4.3-5.3-7.1-5.3c-4.6,0-11.4,5.8-11.4,18.8c0,7.9,2.8,15,6.3,17.2c1.8,1.3,4.6,1.3,5.8,1.3c4.1,0,5.8-1,6.8-2
			L291.1,324.5z"/>
		<path class="st1" d="M315.1,296.3c-0.3,0-10.9,0.3-13.7-0.5c0.3-4.8,1.3-15.2,6.8-15.2C309.1,280.9,315.9,280.9,315.1,296.3z
			 M318.4,313.8c-4.3,4.1-7.1,5.8-9.6,5.8c-1.5,0-4.8-1-6.3-7.1c-1.3-4.3-1.3-9.1-1-11.7c1.5-0.3,2.8-0.3,6.3-0.3
			c4.8,0,6.3,0,11.2,0.5c0-4.6,0.3-10.9-1-15.7c-2-8.6-6.8-9.9-9.4-9.9c-5.1,0-12.2,6.1-12.2,27.4c0,8.1,1.3,12.9,3.8,17.5
			c2.5,4.3,5.1,5.3,8.6,5.3c3.3,0,5.1-1,6.6-2.3L318.4,313.8z"/>
		<path class="st1" d="M329.8,277.1h7.1c1,0,1.3,0,1.8-0.5v6.3h-8.9c0,0.3-0.3,12.2-0.3,21.3c0,12.4,0.8,15.5,4.1,15.5
			c2.3,0,4.3-0.5,5.8-0.8c-1.8,2.8-2.3,3.8-4.1,6.8h-3.8c-3,0-6.3,0-6.3-8.1c0-11.7,0-23.1-0.3-34.5l-5.1,0.3l10.1-18L329.8,277.1z"
			/>
		<path class="st1" d="M454.6,280.6c0-13.4-0.5-18.3-1.5-22.8c2.5-0.8,5.3-1.8,7.6-2.5c-1.3,9.1-1.8,12.4-1.8,22.3V310
			c-0.3,11.2,1.5,9.9,4.3,15.2h-10.1c0.8-3.8,1.3-5.8,1.3-15v-29.7h0.2V280.6z"/>
		<path class="st1" d="M261.9,280.6c0-13.4-0.5-18.3-1.5-22.8c2.5-0.8,5.3-1.8,7.6-2.5c-1.3,9.1-1.8,12.4-1.8,22.3V310
			c-0.3,11.2,1.5,9.9,4.3,15.2h-10.1c0.8-3.8,1.3-5.8,1.3-15v-29.7h0.2V280.6z"/>
		<path class="st1" d="M201.8,317.1c-1.5,0.8-3.5,1.5-6.1,1.5c-4.6,0-4.8-5.6-4.6-6.3c0.3-7.6,9.9-13.2,10.9-13.2L201.8,317.1z
			 M206.4,290c0-8.1-2.3-14.5-8.6-14.5c-3.5,0-6.1,1.3-7.4,1.8l-1,8.9c3-3.5,4.6-5.3,7.1-5.3c5.3,0,5.6,7.9,5.3,13.9
			c-2,2-3.5,2.8-10.1,7.1c-1.5,0.8-5.3,3.3-5.3,12.2c0,5.6,2,11.4,7.6,11.4c0.8,0,2,0,2.8-0.5c0.8-0.8,4.3-4.8,5.1-5.8v6.3h6.6
			c-1.8-4.1-2-4.8-2-14.5L206.4,290z"/>
		<path class="st1" d="M250.7,317.1c-1.5,0.8-3.5,1.5-6.1,1.5c-4.6,0-4.8-5.6-4.6-6.3c0-7.6,9.9-13.2,10.9-13.2L250.7,317.1z
			 M255.6,290c0-8.1-2.3-14.5-8.6-14.5c-3.5,0-6.1,1.3-7.4,1.8l-1,8.9c3-3.5,4.6-5.3,7.1-5.3c5.3,0,5.6,7.9,5.3,13.9
			c-2,2-3.5,2.8-10.1,7.1c-1.5,0.8-5.3,3.3-5.3,12.2c0,5.6,2,11.4,7.6,11.4c0.8,0,2,0,2.8-0.5c0.8-0.8,4.3-4.8,5.1-5.8v6.3h6.6
			c-1.8-4.1-2-4.8-2-14.5v-21H255.6z"/>
		<path class="st1" d="M410.2,317.4c-1.8,0.8-3.5,1.5-6.3,1.5c-4.8,0-4.8-5.6-4.8-6.3c0.3-7.6,10.1-13.2,11.2-13.2v18H410.2z
			 M415,290.3c0-8.1-2.3-14.5-8.9-14.5c-3.5,0-6.3,1.3-7.6,1.8l-1,8.6c3-3.5,4.8-5.3,7.4-5.3c5.6,0,5.6,7.9,5.6,13.9
			c-2.3,2-3.5,2.8-10.4,7.1c-1.5,0.8-5.3,3.3-5.3,12.2c0,5.6,2,11.4,7.6,11.4c0.8,0,2.3,0,2.8-0.5c0.8-0.8,4.3-4.8,5.1-5.8v6.3h6.6
			c-1.8-4.1-2.3-4.8-2.3-14.5L415,290.3z"/>
		<path class="st1" d="M427.2,287c3.8-3.3,4.6-3.8,6.8-3.8c6.1,0,10.1,6.1,10.1,16.5c0,12.4-5.1,20.3-13.2,20.3
			c-1.8,0-2.8-0.5-3.8-1c0.3-1.3,0.3-1.5,0.3-4.3L427.2,287z M422.6,310.5c0,5.6,0,8.4-1.5,14.5h8.9c11.4,0,18.8-10.9,18.8-26.6
			c0-9.9-3.5-21.8-11.4-21.8c-3,0-5.1,1.3-6.6,2c-1.8,4.3-2.5,5.3-3.5,6.6V269c0-1.8,0-4.8,0.5-7.9l1.3-6.6l-8.4,2.5l0.8,3
			c1.3,4.6,1.3,6.1,1.3,10.4v40.1H422.6z"/>
		<path class="st1" d="M484.7,296.6c-0.3,0-11.4,0.3-14.5-0.5c0.3-4.8,1.3-15.2,7.4-15.2C478.2,281.1,485.5,281.1,484.7,296.6z
			 M488,314.1c-4.6,4.1-7.4,5.8-10.1,5.8c-1.5,0-5.1-1-6.8-7.1c-1.3-4.3-1.3-9.1-1-11.7c1.5-0.3,2.8-0.3,6.8-0.3
			c5.1,0,6.8,0,11.9,0.5c0-4.6,0.3-10.9-1.3-15.7c-2.3-8.6-7.4-10.1-9.9-10.1c-5.3,0-12.9,6.1-12.9,27.4c0,8.1,1.3,13.2,3.8,17.5
			c2.8,4.3,5.3,5.3,9.1,5.3c3.3,0,5.3-1,7.1-2.3L488,314.1z"/>
		<path class="st1" d="M501.2,276.6h7.4c1,0,1.3,0,2-0.5v6.3h-9.4c0,0.3-0.3,12.2-0.3,21.3c0,12.4,0.8,15.5,4.3,15.5
			c2.3,0,4.6-0.5,6.1-0.8c-2,2.8-2.3,3.8-4.3,6.8h-4c-3.3,0-6.8,0-6.8-8.1c0-11.7-0.3-23.1-0.3-34.7l-5.3,0.3l10.6-18.3L501.2,276.6
			z"/>
		<path class="st1" d="M532.7,284.7c-1.3-1.3-3.3-3.5-6.8-3.5c-4.3,0-5.6,4.6-5.6,7.4c0,4.6,2.5,6.8,3.8,7.6
			c6.8,5.3,10.4,8.4,10.4,16c0,3.8-1.5,13.7-12.2,13.7c-3.8,0-5.8-1-7.9-1.8c0.3-3.5,0.3-4.3,0.3-12.7c2.5,6.1,4.1,8.9,9.1,8.9
			c5.3,0,5.8-4.8,5.8-6.8c0-5.1-2.8-7.1-7.6-10.4c-2-1.3-6.8-4.6-6.8-13.9c0-9.1,6.1-13.4,10.6-13.4c2.5,0,5.1,0.8,7.1,1.3
			L532.7,284.7z"/>
		<path class="st1" d="M107,296.6c0-17.5,5.1-33,10.6-43.6l2.8,4.1c-4.3,10.4-8.9,24.1-8.9,39.5c0,15,4.3,28.9,8.9,39.5l-2.8,4.1
			C112.1,329,107,313.6,107,296.6z"/>
		<path class="st1" d="M342.8,336.6l-2.8-4.1c4.6-10.6,8.9-24.3,8.9-39.5c0-15.5-4.6-29.2-8.9-39.5l2.8-4.1
			c5.6,10.6,10.6,26.1,10.6,43.6C353.4,310.3,348.4,325.7,342.8,336.6z"/>
		<path class="st1" d="M386.9,310.3c0,7.6,0.5,10.6,1.5,14.7h-8.1c1.5-6.3,1.5-11.4,1.5-14.7v-49.7c-5.8,0.5-10.4,1-14.7,4.6l2-10.1
			h32.7c-0.8,2-1.8,5.3-2.5,9.4c-3-2.8-4.3-3-12.4-3.8c-0.3,3.3-0.3,8.1-0.3,11.4v38.3L386.9,310.3L386.9,310.3z"/>
	</g>
	<g>
		<path class="st1" d="M108,427.2c1.3,1.3,3.8,2.8,6.3,2.8c4.6,0,7.6-5.3,7.6-13.9c0-9.1-3.5-14.5-8.9-14.5h-1v-6.3h1
			c3,0,7.9-3.8,7.9-12.4c0-6.8-2.3-10.6-5.8-10.6c-2,0-4.1,1.8-5.3,3.3l-1-6.3c1.5-2,4.6-4.1,7.9-4.1c6.1,0,9.6,7.1,9.6,16
			c0,6.8-2.3,13.2-6.6,16.2v0.3c3.8,1.8,7.6,7.4,7.6,18.3c0,11.4-4.6,20.5-12.4,20.5c-2.8,0-5.8-1.3-7.6-3.3L108,427.2z"/>
		<path class="st1" d="M141.7,429.9c-4.3,0-6.1-11.9-6.1-28.6s1.8-28.6,6.1-28.6c4.1,0,5.8,12.4,5.8,28.6
			C147.6,418,145.8,429.9,141.7,429.9L141.7,429.9z M141.5,437c6.3,0,11.2-10.4,11.2-35.7c0-22.3-3.8-35.5-10.6-35.5
			c-7.1,0-11.4,12.4-11.4,35.7C130.6,424.1,134.6,437,141.5,437L141.5,437z"/>
		<path class="st1" d="M156.9,410.2c0-4.1-0.3-6.1-0.3-9.1h3l0.3,4.3l0,0c1-2.8,2.5-4.8,4.8-4.8c2,0,3.8,1.5,4.6,5.3l0,0
			c0.5-1.8,1.3-3,2.3-4.1c0.8-1,1.8-1.3,3-1.3c3,0,5.3,3.5,5.3,12.4V436h-3.3v-21.8c0-4.6-0.5-8.9-3-8.9c-1.5,0-2.8,2-3.3,5.1
			c0,1-0.3,2-0.3,3.3V436h-3.3v-22.8c0-3.8-0.5-7.9-3-7.9c-1.5,0-2.8,2-3.3,5.6c0,1-0.3,2-0.3,3V436h-3.3
			C156.9,436,156.9,410.2,156.9,410.2z"/>
		<path class="st1" d="M194.5,423.4c0,1,0,2-0.3,3.3c-0.8,4.3-2,5.1-3,5.1c-2,0-3.8-4.1-3.8-12.9c0-7.6,1.3-13.2,3.8-13.2
			c2,0,2.8,3,3,5.3c0.3,0.8,0.3,1.8,0.3,2.5V423.4z M198,412.2c0-5.3,0.3-8.4,0.3-10.9h-3l-0.3,4.1l0,0c-0.5-2-1.8-4.6-4.1-4.6
			c-3.3,0-6.8,5.3-6.8,18.3c0,10.1,2.5,17.2,6.3,17.2c1.8,0,3.3-1.5,4.3-4.3l0,0v3.5c0,7.9-1.8,10.6-4.6,10.6
			c-1.8,0-3.3-0.8-4.1-1.5l-0.8,4.3c1,1,3,1.8,4.8,1.8c2.5,0,4.6-1.3,5.8-3.8c1.5-2.5,2.3-6.1,2.3-15.2v-19.5L198,412.2L198,412.2z"
			/>
		<path class="st1" d="M210.2,421.3c-2,0-3.5-1.5-3.5-3.5s1.5-3.5,3.5-3.5s3.5,1.5,3.5,3.5C214,419.8,212.5,421.3,210.2,421.3
			L210.2,421.3z"/>
		<path class="st1" d="M235,430.5c-3.5,0-6.3-6.6-6.3-20.8c0-2,0.3-3.5,0.5-4.1c1.3-5.1,3.5-7.6,5.6-7.6c3.5,0,5.8,5.3,5.8,15.7
			C240.6,425.9,238.1,430.5,235,430.5L235,430.5z M243.1,365.5c-0.8,0-1.8,0.3-3.3,0.8c-3.8,1.3-7.9,5.1-10.4,11.2
			c-3.3,7.4-5.6,18-5.6,31.4c0,16,3.8,28.4,11.4,28.4c6.8,0,10.6-10.6,10.6-23.8S242,392,236.4,392c-3.3,0-5.6,2.8-7.4,6.6h-0.3
			c1-10.6,4.1-22.3,11.2-25.1c1.3-0.5,2.3-0.8,3-0.8C243.1,372.6,243.1,365.5,243.1,365.5z"/>
		<path class="st1" d="M260.6,429.9c-4.3,0-6.1-11.9-6.1-28.6s1.8-28.6,6.1-28.6c4.1,0,5.8,12.4,5.8,28.6
			C266.5,418,264.7,429.9,260.6,429.9L260.6,429.9z M260.1,437c6.3,0,11.2-10.4,11.2-35.7c0-22.3-3.8-35.5-10.6-35.5
			c-7.1,0-11.4,12.4-11.4,35.7C249.2,424.1,253.5,437,260.1,437L260.1,437z"/>
		<path class="st1" d="M275.8,410.2c0-4.1-0.3-6.1-0.3-9.1h3l0.3,4.3l0,0c1-2.8,2.5-4.8,4.8-4.8c2,0,3.8,1.5,4.6,5.3l0,0
			c0.5-1.8,1.3-3,2.3-4.1c0.8-1,1.8-1.3,3-1.3c3,0,5.3,3.5,5.3,12.4V436h-3.3v-21.8c0-4.6-0.5-8.9-3-8.9c-1.5,0-2.8,2-3.3,5.1
			c0,1-0.3,2-0.3,3.3V436h-3.3v-22.8c0-3.8-0.5-7.9-3-7.9c-1.5,0-2.8,2-3.3,5.6c0,1-0.3,2-0.3,3V436h-3.3L275.8,410.2L275.8,410.2z"
			/>
		<path class="st1" d="M313.4,423.4c0,1,0,2-0.3,3.3c-0.8,4.3-2,5.1-3,5.1c-2,0-3.8-4.1-3.8-12.9c0-7.6,1.3-13.2,3.8-13.2
			c2,0,2.8,3,3,5.3c0.3,0.8,0.3,1.8,0.3,2.5V423.4z M316.7,412.2c0-5.3,0.3-8.4,0.3-10.9h-3l-0.3,4.1l0,0c-0.5-2-1.8-4.6-4.1-4.6
			c-3.3,0-6.8,5.3-6.8,18.3c0,10.1,2.5,17.2,6.3,17.2c1.8,0,3.3-1.5,4.3-4.3l0,0v3.5c0,7.9-1.8,10.6-4.6,10.6
			c-1.8,0-3.3-0.8-4.1-1.5L304,449c1,1,3,1.8,4.8,1.8c2.5,0,4.6-1.3,5.8-3.8c1.5-2.5,2.3-6.1,2.3-15.2v-19.5L316.7,412.2
			L316.7,412.2z"/>
		<path class="st1" d="M329.1,421.3c-2,0-3.5-1.5-3.5-3.5s1.5-3.5,3.5-3.5s3.5,1.5,3.5,3.5C332.9,419.8,331.1,421.3,329.1,421.3
			L329.1,421.3z"/>
		<path class="st1" d="M350.1,371.9c3.3,0,6.1,6.3,6.1,20.8c0,2.3-0.3,3.3-0.5,4.6c-1,3.8-3.3,6.3-5.3,6.3c-3.5,0-5.8-4.8-5.8-15.2
			C344.3,376.5,347.3,371.9,350.1,371.9L350.1,371.9z M341.8,437c1,0,2.3,0,3.5-0.5c3.8-1.5,7.6-5.1,10.1-10.6
			c3.5-7.6,5.8-18.5,5.8-32.2c0-15.5-3.5-27.9-10.9-27.9c-6.6,0-10.9,10.9-10.9,23.6s4.1,20.8,9.6,20.8c3,0,5.3-2.5,7.1-5.8h0.3
			c-0.8,9.1-2.8,15.5-5.1,19.8c-1.5,2.8-3.8,4.6-5.8,5.6c-1,0.5-2,0.8-3.3,0.8v6.6h-0.4V437z"/>
		<path class="st1" d="M376,429.9c-4.3,0-6.1-11.9-6.1-28.6s1.8-28.6,6.1-28.6c4.1,0,5.8,12.4,5.8,28.6
			C381.8,418,380.3,429.9,376,429.9L376,429.9z M375.7,437c6.3,0,11.2-10.4,11.2-35.7c0-22.3-3.8-35.5-10.6-35.5
			c-7.1,0-11.4,12.4-11.4,35.7C364.8,424.1,368.9,437,375.7,437L375.7,437z"/>
		<path class="st1" d="M391.2,410.2c0-4.1-0.3-6.1-0.3-9.1h3l0.3,4.3l0,0c1-2.8,2.5-4.8,4.8-4.8c2,0,3.8,1.5,4.6,5.3l0,0
			c0.5-1.8,1.3-3,2.3-4.1c0.8-1,1.8-1.3,3-1.3c3,0,5.3,3.5,5.3,12.4V436h-3.5v-21.8c0-4.6-0.5-8.9-3-8.9c-1.5,0-2.8,2-3.3,5.1
			c0,1-0.3,2-0.3,3.3V436h-3v-22.8c0-3.8-0.5-7.9-3-7.9c-1.5,0-2.8,2-3.3,5.6c0,1-0.3,2-0.3,3V436h-3.3L391.2,410.2L391.2,410.2z"/>
		<path class="st1" d="M429,423.4c0,1,0,2-0.3,3.3c-0.8,4.3-2,5.1-3,5.1c-2,0-3.8-4.1-3.8-12.9c0-7.6,1.3-13.2,3.8-13.2
			c2,0,2.8,3,3,5.3c0.3,0.8,0.3,1.8,0.3,2.5V423.4z M432.3,412.2c0-5.3,0.3-8.4,0.3-10.9h-3l-0.3,4.1l0,0c-0.5-2-1.8-4.6-4.1-4.6
			c-3.3,0-6.8,5.3-6.8,18.3c0,10.1,2.5,17.2,6.3,17.2c1.8,0,3.3-1.5,4.3-4.3l0,0v3.5c0,7.9-1.8,10.6-4.6,10.6
			c-1.8,0-3.3-0.8-4.1-1.5l-0.8,4.3c1,1,3,1.8,4.8,1.8c2.5,0,4.6-1.3,5.8-3.8c1.5-2.5,2.3-6.1,2.3-15.2L432.3,412.2L432.3,412.2
			L432.3,412.2z"/>
	</g>
</g>
</svg>
