<?xml version="1.0" encoding="utf-8"?>
<!-- Generator: Adobe Illustrator 18.1.1, SVG Export Plug-In . SVG Version: 6.00 Build 0)  -->
<!DOCTYPE svg PUBLIC "-//W3C//DTD SVG 1.1//EN" "http://www.w3.org/Graphics/SVG/1.1/DTD/svg11.dtd">
<svg version="1.1" id="Layer_1" xmlns="http://www.w3.org/2000/svg" xmlns:xlink="http://www.w3.org/1999/xlink" x="0px" y="0px"
	 viewBox="-99 139 810 514" enable-background="new -99 139 810 514" xml:space="preserve">
<g>
	<g>
		<g>
			<g>
				<path fill="#5F666E" d="M577.1,507.2c7.7-14.5,10.8-28.8,10.8-44.5c0-16.2-3-30.5-10.8-45.2h5.4c8,14.5,12.9,28.4,12.9,45.2
					c0,15-4.5,31.4-12.9,44.5H577.1z"/>
			</g>
			<g>
				<path fill="#5F666E" d="M112,507.2c-8.4-13.1-12.9-29.5-12.9-44.5c0-16.9,4.9-30.7,12.9-45.2h5.2c-7.7,14.8-10.8,29.1-10.8,45.2
					c0,15.7,3,30,10.8,44.5H112z"/>
			</g>
			<path fill="#5F666E" d="M129.4,436.2h0.2c2.6-3.3,5.4-5.2,9.8-5.2c14.8,0,15.7,18.5,15.7,30.9c0,13.8-0.5,32.3-15,32.3
				c-4.5,0-8.2-2.3-10.5-5.9h-0.2v28.4h-8V432h8C129.4,432,129.4,436.2,129.4,436.2z M147,462.2c0-9.4-0.2-24.6-9.4-24.6
				c-8.4,0-8.9,12.7-8.9,23.7c0,12,0.5,27.2,9.4,27.2C145.3,488.2,147,481,147,462.2z"/>
			<path fill="#5F666E" d="M193.8,493.6h-8v-4.7h-0.2c-2.3,3.5-5.9,5.9-10.5,5.9c-10.1,0-15-5.6-15-32.3c0-13.8,0.5-30.9,15.7-30.9
				c4.5,0,7.3,1.9,9.8,5.2h0.2v-4.2h8L193.8,493.6L193.8,493.6z M177.7,437.4c-8.9,0-9.4,13.6-9.4,24.1c0,25.3,4.2,26.7,8.9,26.7
				c7.7,0,9.4-7,9.4-26.3C186.6,448.4,185.6,437.4,177.7,437.4z"/>
			<path fill="#5F666E" d="M210.7,436.9c3.3-3.5,7.5-5.9,12.4-5.9c11.3,0,12.2,10.1,12.2,18.5v44.1h-8v-43.4
				c0-7.3-0.5-12.9-7.3-12.9c-9.1,0-9.6,9.6-9.6,16.2v39.8h-8V432h8v4.9H210.7z"/>
			<g>
				<path fill="#5F666E" d="M248.2,425.9c-2.8,0-5.2-2.3-5.2-4.9s2.3-4.9,5.2-4.9c2.8,0,5.2,2.3,5.2,4.9
					C253.1,423.5,250.8,425.9,248.2,425.9z"/>
				<rect x="244" y="432" fill="#5F666E" width="8" height="61.4"/>
			</g>
			<path fill="#5F666E" d="M297.2,432v38.7c0,8.4,0.5,16.6,8.4,16.6c8.2,0,8.4-8.2,8.7-16.6V432h8v45.2c0,10.3-5.2,17.3-16.6,17.3
				c-11.3,0-16.6-6.8-16.6-17.3V432H297.2z"/>
			<path fill="#5F666E" d="M338.5,437.1h0.2c2.8-3.5,7.3-6.1,12-6.1c5.2,0,9.6,2.6,11.7,7.3c3.3-4.5,7.3-7.3,13.1-7.3
				c12,0,12.9,9.1,12.9,18.3v44.3h-8v-44.1c0-5.9-0.7-12.2-7.3-12.2c-9.6,0-9.8,10.3-9.8,18.3v38h-8v-44.1c0-5.9-0.5-12.2-7-12.2
				c-9.8,0-10.1,11.7-10.1,19.5v36.6h-7.7V432h8V437.1z"/>
			<path fill="#5F666E" d="M404.6,432v38.7c0,8.4,0.5,16.6,8.4,16.6c8.2,0,8.4-8.2,8.7-16.6V432h8v45.2c0,10.3-5.2,17.3-16.6,17.3
				c-11.3,0-16.6-6.8-16.6-17.3V432H404.6z"/>
			<path fill="#5F666E" d="M446,437.1h0.2c2.8-3.5,7.3-6.1,12-6.1c5.2,0,9.6,2.6,11.7,7.3c3.3-4.5,7.3-7.3,13.1-7.3
				c12,0,12.9,9.1,12.9,18.3v44.3h-8v-44.1c0-5.9-0.7-12.2-7.3-12.2c-9.6,0-9.8,10.3-9.8,18.3v38h-8v-44.1c0-5.9-0.5-12.2-7-12.2
				c-9.8,0-10.1,11.7-10.1,19.5v36.6h-8V432h8v5.2H446z"/>
			<path fill="#5F666E" d="M536.5,493.6h-8v-4.7h-0.2c-2.3,3.5-5.9,5.9-10.5,5.9c-10.1,0-15-5.6-15-32.3c0-13.8,0.5-30.9,15.7-30.9
				c4.5,0,7.3,1.9,9.8,5.2h0.2v-4.2h8V493.6z M520.4,437.4c-8.9,0-9.4,13.6-9.4,24.1c0,25.3,4.2,26.7,9.1,26.7c7.7,0,9.4-7,9.4-26.3
				C529.3,448.4,528.3,437.4,520.4,437.4z"/>
			<path fill="#5F666E" d="M545.2,410.2h8v26h0.2c2.3-3.5,5.4-5.2,9.8-5.2C578,431,579,448.2,579,462c0,15.5-1.2,32.3-15,32.3
				c-4.7,0-8.2-2.3-10.5-5.9h-0.2v4.7h-8V410.2z M570.7,461.5c0-14.1-1.4-24.1-9.4-24.1c-9.8,0-8.9,18-8.9,23.7
				c0,7.5-0.9,27.2,9.4,27.2C568.4,488.2,570.7,482.6,570.7,461.5z"/>
		</g>
		<g>
			<path fill="#5F666E" d="M280.6,487.8c-5.2,0-7.7-1.9-7.7-7.5v-41.7h9.4V432h-9.4v-14.8h-8V432H259v6.6h5.9v43.4
				c0,9.6,4.2,12.4,15,12.4c0.9,0,1.6,0,2.3,0v-6.8C281.7,487.8,281,487.8,280.6,487.8z"/>
		</g>
	</g>
	<g>
		<path fill="#00A4D5" d="M144.6,365.9l34.7-87.7H195l-50.4,124L93.8,278h15.7L144.6,365.9z"/>
		<path fill="#00A4D5" d="M187.3,364.7c0.2,14.5,10.5,26.3,25.5,26.3c11.3,0,18.8-6.8,23.9-16.2l11.3,6.6c-7.5,14.1-20.2,22-36.1,22
			c-23.4,0-38.4-17.8-38.4-40.3c0-23.2,13.6-42.4,38-42.4c25.1,0,38.4,20.9,37.3,44.1H187.3z M234.9,353.5
			c-1.9-11.3-11.3-20.4-23-20.4c-11.5,0-22.3,9.1-23.9,20.4H234.9z"/>
		<path fill="#00A4D5" d="M320.6,346h-0.2c-6.1-7.7-13.8-13.1-24.4-13.1c-16.2,0-27.7,13.4-27.7,29.1c0,15.5,10.8,29.1,27,29.1
			c11.3,0,19-4.9,25.5-13.6h0.2v17.8c-7.7,5.2-15.5,8-24.8,8c-23.7,0-41.7-17.6-41.7-41.3c0-23.4,18.8-41.3,41.7-41.3
			c8.4,0,17.1,2.8,24.1,7.7V346H320.6z"/>
		<path fill="#00A4D5" d="M405.5,279.9h13.4v53.9h0.2c6.3-8.4,16.2-13.4,27-13.4c23.4,0,37.7,19.2,37.7,41.3
			c0,21.8-14.5,41.3-37.5,41.3c-10.8,0-20.6-4.5-27-12.9h-0.2v10.8h-13.6V279.9z M418.2,361c0,15.2,8.9,29.8,25.8,29.8
			c17.1,0,26.3-13.8,26.3-29.8c0-15.7-9.8-28.4-26.3-28.4C428.2,332.8,418.2,346.4,418.2,361z"/>
		<path fill="#00A4D5" d="M514.3,322.8h16.4l20.4,26.7l20.4-26.7h16.6l-28.6,36.6l32.6,41.7h-16.2l-24.8-31.9L526,401h-16.6
			l33.3-41.7L514.3,322.8z"/>
		<g>
			<path fill="#00A4D5" d="M338.7,383v-48.1h-9.6v-12.4h9.6v-19.9h13.4v19.9h16.2v12.4h-16.2v46.9l0,0c0,1.6,0.2,2.8,0.5,3.8
				c0.2,0.9,0.7,1.6,1.4,2.1s1.9,0.9,3,0.9c1.4,0.2,3,0.2,5.2,0.2h6.1v11.7h-10.3c-3.5,0-6.3-0.2-8.9-0.7c-2.6-0.5-4.5-1.4-5.9-2.6
				s-2.6-3-3.3-5.4C338.9,390,338.7,387,338.7,383"/>
		</g>
		<g>
			<rect x="380.2" y="322.8" fill="#00A4D5" width="13.4" height="78.3"/>
		</g>
		<g>
			<rect x="490.4" y="322.8" fill="#00A4D5" width="13.4" height="78.3"/>
		</g>
		<circle fill="#00A4D5" cx="386.7" cy="309.9" r="7"/>
		<circle fill="#00A4D5" cx="497.1" cy="309.9" r="7"/>
		<g>
			
				<linearGradient id="SVGID_1_" gradientUnits="userSpaceOnUse" x1="38.712" y1="761.5316" x2="7.0177" y2="716.2282" gradientTransform="matrix(2.3439 0 0 -2.3439 0 2085.856)">
				<stop  offset="0" style="stop-color:#036CAB"/>
				<stop  offset="0.1966" style="stop-color:#00A5D9"/>
				<stop  offset="0.4101" style="stop-color:#6DC9E8"/>
				<stop  offset="0.6517" style="stop-color:#BCE3F3"/>
				<stop  offset="0.7528" style="stop-color:#6DC9E8"/>
				<stop  offset="0.8876" style="stop-color:#00A5D9"/>
				<stop  offset="1" style="stop-color:#036CAB"/>
			</linearGradient>
			<path fill="url(#SVGID_1_)" d="M55.3,334.2c0-0.5,0-0.7-0.5-0.9l-2.6-2.3c-0.2-0.2-0.2-0.7,0-0.9l28.8-29.8
				c0.2-0.2,0.2-0.7,0-0.9l-12.4-12.2c-0.2-0.2-0.7-0.2-0.9,0l-8.2,8.7c-0.2,0.2-0.2,0.7,0,0.9l2.8,2.8c0.2,0.2,0.2,0.7,0,0.9
				l-24.1,25.3c-0.2,0.2-0.5,0.7-0.5,0.9l7.3,74.8c0,0.2,0.2,0.7,0.7,0.7h8.9c0.2,0,0.7-0.2,0.7-0.7
				C55.3,401.5,55.3,334.2,55.3,334.2z"/>
			
				<linearGradient id="SVGID_2_" gradientUnits="userSpaceOnUse" x1="50.3499" y1="794.02" x2="16.3228" y2="759.4558" gradientTransform="matrix(2.3439 0 0 -2.3439 0 2085.856)">
				<stop  offset="0" style="stop-color:#FAA83A"/>
				<stop  offset="0.2978" style="stop-color:#FCC882"/>
				<stop  offset="0.5843" style="stop-color:#FFE6C1"/>
				<stop  offset="0.8315" style="stop-color:#FCB316"/>
				<stop  offset="1" style="stop-color:#F78F20"/>
			</linearGradient>
			<path fill="url(#SVGID_2_)" d="M116,229.5h-9.4c-0.2,0-0.7,0.2-0.9,0.5l-71.3,66.6c-0.2,0.2-0.2,0.7,0,0.9l11.7,12.4
				c0.2,0.2,0.7,0.2,0.9,0l8.2-8.4c0.2-0.2,0.2-0.7,0-0.9l-2.8-2.8c-0.2-0.2-0.2-0.7,0-0.9c0,0,63.8-66.8,64-66.8
				C116.3,229.7,116.3,229.5,116,229.5z"/>
			
				<linearGradient id="SVGID_3_" gradientUnits="userSpaceOnUse" x1="35.8167" y1="753.1516" x2="21.2763" y2="717.0699" gradientTransform="matrix(2.3439 0 0 -2.3439 0 2085.856)">
				<stop  offset="9.550560e-02" style="stop-color:#F78E23"/>
				<stop  offset="0.2978" style="stop-color:#FCC882"/>
				<stop  offset="0.4551" style="stop-color:#FFE6C1"/>
				<stop  offset="0.8315" style="stop-color:#FCB316"/>
				<stop  offset="1" style="stop-color:#F78F20"/>
			</linearGradient>
			<path fill="url(#SVGID_3_)" d="M59.1,330.5c-0.2,0.2-0.2,0.5,0,0.9l1.9,2.3c0.2,0.2,0.2,0.5,0.2,0.9v66.8c0,0.2,0.2,0.7,0.7,0.7
				h9.6c0.2,0,0.7-0.2,0.7-0.7l4.7-73.8c0-0.2-0.2-0.7-0.5-0.9l-6.1-7c-0.2-0.2-0.7-0.2-0.9,0L59.1,330.5z"/>
			
				<linearGradient id="SVGID_4_" gradientUnits="userSpaceOnUse" x1="22.1175" y1="782.0649" x2="29.3713" y2="793.6173" gradientTransform="matrix(2.3439 0 0 -2.3439 0 2085.856)">
				<stop  offset="0" style="stop-color:#F9A61C"/>
				<stop  offset="0.4831" style="stop-color:#FFE2B0"/>
				<stop  offset="1" style="stop-color:#FEC763"/>
			</linearGradient>
			<path fill="url(#SVGID_4_)" d="M70.8,244.2c0,7.5-6.1,13.6-13.6,13.6s-13.6-6.1-13.6-13.6s6.1-13.6,13.6-13.6
				C64.7,230.9,70.8,237,70.8,244.2z"/>
			
				<linearGradient id="SVGID_5_" gradientUnits="userSpaceOnUse" x1="-0.3373" y1="793.5685" x2="20.9642" y2="771.7253" gradientTransform="matrix(2.3439 0 0 -2.3439 0 2085.856)">
				<stop  offset="0.1798" style="stop-color:#14BBE3"/>
				<stop  offset="0.5618" style="stop-color:#A6DBF0"/>
				<stop  offset="0.6745" style="stop-color:#8BC5E4"/>
				<stop  offset="0.9163" style="stop-color:#419CCF"/>
				<stop  offset="1" style="stop-color:#068FC7"/>
			</linearGradient>
			<path fill="url(#SVGID_5_)" d="M0.2,229.9c-0.2-0.2-0.2-0.5,0-0.5h8.7c0.5,0,0.9,0.2,1.2,0.5L53,271.4c0.2,0.2,0.2,0.7,0,0.9
				l-8.7,8.2c-0.2,0.2-0.7,0.2-0.9,0L0.2,229.9z"/>
		</g>
		<g>
			<path fill="#00A4D5" d="M594.2,331.2c0-5.4,4.2-8.7,8.9-8.7c4.7,0,8.9,3.3,8.9,8.7c0,5.4-4.2,8.7-8.9,8.7
				C598.4,339.9,594.2,336.6,594.2,331.2z M603.1,324.4c-3.8,0-6.6,2.8-6.6,7c0,4.2,2.8,7,6.6,7c3.5,0,6.6-2.8,6.6-7
				C609.7,327.2,606.6,324.4,603.1,324.4z M601.7,335.9h-2.1v-9.4h3.5c2.3,0,3.8,0.7,3.8,2.8c0,1.6-0.9,2.3-2.6,2.6l2.3,4h-1.9
				l-2.1-4h-0.9V335.9z M601.7,330.5h1.9c1.2,0,1.6-0.5,1.6-1.2c0-0.9-0.7-1.2-1.6-1.2h-1.6v2.3H601.7z"/>
		</g>
	</g>
</g>
<g>
	<path fill="#5F666E" d="M244.7,524.3h4.7v30.5h-4.7V524.3z"/>
	<path fill="#5F666E" d="M253.6,531.8h4v2.6h0.2c1.2-2.1,3-3.3,5.6-3.3c3.3,0,5.4,1.6,5.4,6.3v17.3h-4.2v-15.9c0-3-0.9-4.2-3-4.2
		c-1.9,0-3.5,1.4-3.5,4.5v15.5h-4.2v-22.7H253.6z"/>
	<path fill="#5F666E" d="M277.5,531.8v24.4c0,4.7-1.9,6.3-5.6,6.3c-0.7,0-1.2,0-1.9-0.2v-3.5h0.9c1.6,0,2.3-0.7,2.3-3v-23.9H277.5z"
		/>
	<path fill="#5F666E" d="M285.5,543.8v1.4c0,3,0.5,7,3.5,7c3,0,3.5-3.8,3.5-5.2h4c0,5.2-2.8,8.2-7.5,8.2c-3.5,0-8-1.2-8-11.7
		c0-6.1,1.2-12.4,8-12.4c6.1,0,7.7,3.8,7.7,10.3v2.3H285.5z M292.5,540.7v-1.2c0-2.8-0.9-5.2-3.3-5.2c-2.8,0-3.5,2.8-3.5,5.9v0.5
		H292.5z"/>
	<path fill="#5F666E" d="M315,546.4c-0.2,5.4-2.1,8.9-7.5,8.9c-6.3,0-8-4.9-8-12c0-7,1.9-12,8-12c6.6,0,7.5,5.4,7.5,8.2h-4.2
		c0-2.1-0.5-4.9-3-4.9c-3,0-3.8,3.5-3.8,8.7s0.5,8.7,3.8,8.7c2.3,0,3.3-2.1,3.3-5.6L315,546.4L315,546.4z"/>
	<path fill="#5F666E" d="M316.2,531.8h3v-6.6h4.2v6.6h3.5v3.5h-3.5v13.6c0,1.9,0.5,2.3,1.9,2.3c0.7,0,1.2,0,1.6-0.2v3.5
		c-0.9,0.2-2.1,0.5-3.5,0.5c-2.8,0-4.5-0.9-4.5-5.6v-14.3h-3v-3.3H316.2z"/>
	<path fill="#5F666E" d="M329.6,531.8h4.2v23h-4.2V531.8z"/>
	<path fill="#5F666E" d="M345.5,531.1c6.3,0,8,4.9,8,12s-2.1,12-8,12c-6.1,0-8-4.9-8-12S339.2,531.1,345.5,531.1z M345.5,551.8
		c3.3,0,3.8-2.8,3.8-8.7c0-5.2-0.5-8.7-3.8-8.7c-3,0-3.8,3.5-3.8,8.7C341.7,548.9,342.2,551.8,345.5,551.8z"/>
	<path fill="#5F666E" d="M356.7,531.8h4v2.6h0.2c1.2-2.1,3-3.3,5.6-3.3c3.3,0,5.4,1.6,5.4,6.3v17.3h-4.2v-15.9c0-3-0.9-4.2-3-4.2
		c-1.9,0-3.5,1.4-3.5,4.5v15.5H357v-22.7H356.7z"/>
	<path fill="#5F666E" d="M387,535.1h-3v-3.3h3v-2.1c0-4.5,1.9-5.6,5.4-5.6c0.9,0,1.6,0,2.3,0.2v3.5h-0.9c-1.6,0-2.3,0.7-2.3,2.1v2.1
		h3.5v3.5h-3.5V555h-4.2v-19.9H387z"/>
	<path fill="#5F666E" d="M404.1,531.1c6.3,0,8,4.9,8,12s-2.1,12-8,12c-6.1,0-8-4.9-8-12S397.8,531.1,404.1,531.1z M404.1,551.8
		c3.3,0,3.8-2.8,3.8-8.7c0-5.2-0.5-8.7-3.8-8.7c-3,0-3.8,3.5-3.8,8.7C400.3,548.9,401,551.8,404.1,551.8z"/>
	<path fill="#5F666E" d="M415.6,531.8h4.2v3.5l0,0c0.9-2.6,2.6-4.2,4.9-4.2c0.5,0,0.7,0,0.9,0.2v4.7c-0.2,0-1.2-0.2-1.9-0.2
		c-1.9,0-4.2,0.9-4.2,5.2v13.6h-4.2v-22.7H415.6z"/>
	<path fill="#5F666E" d="M437.8,524.3h4.7v30.5h-4.7V524.3z"/>
	<path fill="#5F666E" d="M444.4,524.3h4.9l4.9,24.1l0,0l5.2-24.1h4.9l-7.3,30.5h-5.9L444.4,524.3z"/>
	<path fill="#5F666E" d="M475.8,524.3h4.7v30.5h-4.7V524.3z"/>
	<path fill="#5F666E" d="M484.5,531.8h4v2.6h0.2c1.2-2.1,3-3.3,5.6-3.3c3.3,0,5.4,1.6,5.4,6.3v17.3h-4.2v-15.9c0-3-0.9-4.2-3-4.2
		c-1.9,0-3.5,1.4-3.5,4.5v15.5h-4.2v-22.7H484.5z"/>
	<path fill="#5F666E" d="M505.1,535.1h-3v-3.3h3v-2.1c0-4.5,1.9-5.6,5.4-5.6c0.9,0,1.6,0,2.3,0.2v3.5h-1.2c-1.6,0-2.3,0.7-2.3,2.1
		v2.1h3.5v3.5h-3.5V555h-4.2V535.1z"/>
	<path fill="#5F666E" d="M526,552L526,552c-1.2,2.1-3.3,3.3-5.6,3.3c-3.3,0-5.4-1.6-5.4-7.5v-15.9h4.2v16.4c0,2.6,1.2,3.5,2.8,3.5
		c1.9,0,3.5-1.2,3.5-3.8v-16.2h4.2v23h-4V552H526z"/>
	<path fill="#5F666E" d="M543.6,538.4v-0.7c0-1.9-0.7-3.5-2.8-3.5c-1.6,0-3,0.9-3,3c0,1.9,0.7,2.6,3,3.3l2.8,0.9
		c3.3,1.2,4.7,3,4.7,6.6c0,4.9-3.3,7-7.7,7c-5.4,0-7-2.6-7-7v-0.9h3.8v0.7c0,2.6,0.9,4,3.3,4s3.5-1.2,3.5-3.3c0-1.6-0.9-2.8-2.3-3.3
		l-3.5-1.4c-3.3-1.2-4.7-3-4.7-6.6c0-4.2,2.8-6.3,7.5-6.3c5.4,0,6.8,3.5,6.8,6.3v0.9h-4.2V538.4z"/>
	<path fill="#5F666E" d="M551.5,531.8h4.2v23h-4.2V531.8z"/>
	<path fill="#5F666E" d="M567.5,531.1c6.3,0,8,4.9,8,12s-2.1,12-8,12c-6.1,0-8-4.9-8-12C559.5,536,561.1,531.1,567.5,531.1z
		 M567.5,551.8c3.3,0,3.8-2.8,3.8-8.7c0-5.2-0.5-8.7-3.8-8.7c-3,0-3.8,3.5-3.8,8.7C563.7,548.9,564.4,551.8,567.5,551.8z"/>
	<path fill="#5F666E" d="M579,531.8h4v2.6h0.2c1.2-2.1,3-3.3,5.6-3.3c3.3,0,5.4,1.6,5.4,6.3v17.3H590v-15.9c0-3-0.9-4.2-3-4.2
		c-1.9,0-3.5,1.4-3.5,4.5v15.5H579V531.8z"/>
</g>
<g>
	<circle fill="#5F666E" cx="275.2" cy="526.7" r="2.6"/>
</g>
<path fill="#5F666E" d="M334.5,526.7c0,1.4-1.2,2.6-2.6,2.6s-2.6-1.2-2.6-2.6s1.2-2.6,2.6-2.6S334.5,525.3,334.5,526.7z"/>
<path fill="#5F666E" d="M556.2,526.7c0,1.4-1.2,2.6-2.6,2.6s-2.6-1.2-2.6-2.6s1.2-2.6,2.6-2.6C555.3,524.1,556.2,525.3,556.2,526.7z
	"/>
</svg>
