<svg xmlns="http://www.w3.org/2000/svg" width="29.64" height="24" viewBox="0 0 29.64 24">
    <defs>
        <clipPath id="prefix__clip-path">
            <path id="prefix__Clip_2" d="M0 0h29.64v24H0z" class="prefix__cls-1" data-name="Clip 2"/>
        </clipPath>
        <style>
            .prefix__cls-1{fill:none}
        </style>
    </defs>
    <g id="prefix__Group_3_Copy_3" data-name="Group 3 Copy 3">
        <path id="prefix__Clip_2-2" d="M0 0h29.64v24H0z" class="prefix__cls-1" data-name="Clip 2"/>
        <g id="prefix__Group_3_Copy_3-2" clip-path="url(#prefix__clip-path)" data-name="Group 3 Copy 3">
            <path id="prefix__Fill_1" fill="#fff" d="M29.64 2.82a13.588 13.588 0 0 1-3.48.96A5.713 5.713 0 0 0 28.8.42a12.49 12.49 0 0 1-3.84 1.5A5.975 5.975 0 0 0 20.52 0a6.043 6.043 0 0 0-6.06 6.06 5.114 5.114 0 0 0 .18 1.38 17.142 17.142 0 0 1-12.48-6.3 5.852 5.852 0 0 0-.84 3.06 6.063 6.063 0 0 0 2.7 5.04 6.135 6.135 0 0 1-2.76-.78v.06a6.055 6.055 0 0 0 4.86 5.939 6.542 6.542 0 0 1-1.62.241 6.646 6.646 0 0 1-1.14-.12A6.077 6.077 0 0 0 9 18.78a12.245 12.245 0 0 1-7.56 2.58A11.677 11.677 0 0 1 0 21.3 17.048 17.048 0 0 0 9.3 24c11.16 0 17.28-9.241 17.28-17.28v-.78a10.842 10.842 0 0 0 3.06-3.12" data-name="Fill 1"/>
        </g>
    </g>
</svg>
