<svg xmlns="http://www.w3.org/2000/svg" id="prefix__Group_3_Copy_2" width="34.733" height="24" data-name="Group 3 Copy 2" viewBox="0 0 34.733 24">
    <defs>
        <clipPath id="prefix__clip-path">
            <path id="prefix__Clip_2" d="M0 0h34.733v24H0z" class="prefix__cls-1" data-name="Clip 2"/>
        </clipPath>
        <style>
            .prefix__cls-1{fill:none}
        </style>
    </defs>
    <path id="prefix__Clip_2-2" d="M0 0h34.733v24H0z" class="prefix__cls-1" data-name="Clip 2"/>
    <g id="prefix__Group_3_Copy_2-2" clip-path="url(#prefix__clip-path)" data-name="Group 3 Copy 2">
        <path id="prefix__Fill_1" fill="#fff" d="M17.366 24c-.109 0-10.957-.008-13.628-.685A4.264 4.264 0 0 1 .69 20.286 46.583 46.583 0 0 1 0 12a46.959 46.959 0 0 1 .69-8.285A4.265 4.265 0 0 1 3.739.686C6.467.008 17.258 0 17.366 0s10.957.008 13.628.686a4.26 4.26 0 0 1 3.048 3.028c.741 2.6.691 8.229.691 8.286a46.875 46.875 0 0 1-.691 8.285 4.26 4.26 0 0 1-3.048 3.029c-2.728.678-13.519.686-13.628.686zm-3.45-17.2v10.4l9.028-5.2z" data-name="Fill 1"/>
    </g>
</svg>
