<?xml version="1.0" encoding="utf-8"?>
<!-- Generator: Adobe Illustrator 26.2.1, SVG Export Plug-In . SVG Version: 6.00 Build 0)  -->
<svg version="1.1" id="Layer_1" xmlns="http://www.w3.org/2000/svg" xmlns:xlink="http://www.w3.org/1999/xlink" x="0px" y="0px"
	 viewBox="0 0 37.9 30.8" style="enable-background:new 0 0 37.9 30.8;" xml:space="preserve">
<style type="text/css">
	.st0{display:none;}
	.st1{display:inline;}
	.st2{opacity:0.2;fill-rule:evenodd;clip-rule:evenodd;fill:#2865B0;enable-background:new    ;}
	.st3{fill-rule:evenodd;clip-rule:evenodd;fill:#222222;}
	.st4{fill-rule:evenodd;clip-rule:evenodd;fill:#02BCE4;}
</style>
<g class="st0">
	<g class="st1">
		<path class="st2" d="M21.3,30.8C12.9,30.8,6,23.9,6,15.4S12.9,0,21.3,0s15.3,6.9,15.3,15.4S29.7,30.8,21.3,30.8"/>
		<path class="st3" d="M15.7,23.6c0.6-0.9,1.1-1.9,1.4-3h2.5C18.6,22,17.3,23,15.7,23.6 M4.8,20.7h2.5c0.3,1.1,0.8,2.1,1.4,3
			C7.2,23,5.8,22,4.8,20.7 M8.8,6.1C8.1,7,7.6,8,7.3,9.1H4.8C5.8,7.7,7.2,6.7,8.8,6.1 M19.7,9.1h-2.5c-0.3-1.1-0.8-2.1-1.4-3
			C17.3,6.7,18.6,7.7,19.7,9.1 M18,14.2c0-1.2-0.2-2.5-0.5-3.6h3c0.6,1.1,0.9,2.4,1,3.6H18z M18,15.6h3.6c-0.1,1.3-0.4,2.5-1,3.6h-3
			C17.8,18,18,16.8,18,15.6 M12.9,19.2v-3.6h3.6c0,1.2-0.2,2.5-0.5,3.6H12.9z M12.9,24.2v-3.5h2.7C14.9,22.5,13.9,23.8,12.9,24.2
			 M11.5,20.7v3.5c-1-0.4-2-1.6-2.7-3.5H11.5z M7.9,15.6h3.6v3.6H8.4C8.1,18,7.9,16.8,7.9,15.6 M6.4,14.2H2.8c0.1-1.3,0.4-2.5,1-3.6
			h3C6.6,11.7,6.5,12.9,6.4,14.2 M11.5,10.5v3.6H7.9c0-1.2,0.2-2.5,0.5-3.6H11.5z M11.5,5.6v3.5H8.8C9.5,7.2,10.5,6,11.5,5.6
			 M16.1,10.5c0.3,1.2,0.5,2.4,0.5,3.6h-3.6v-3.6H16.1z M12.9,9.1V5.6c1,0.4,2,1.6,2.7,3.5H12.9z M2.8,15.6h3.6
			c0.1,1.2,0.2,2.5,0.5,3.6h-3C3.2,18.1,2.9,16.8,2.8,15.6 M12.2,4C10.1,4,8,4.6,6.2,5.8C4.4,7,3,8.7,2.1,10.7s-1,4.2-0.6,6.3
			c0.4,2.1,1.5,4.1,3,5.6c1.5,1.5,3.5,2.6,5.6,3c2.1,0.4,4.3,0.2,6.3-0.6s3.7-2.2,4.9-4c1.2-1.8,1.9-3.9,1.9-6.1
			c0-2.9-1.2-5.7-3.2-7.7C17.9,5.1,15.1,4,12.2,4"/>
		<path class="st4" d="M22.5,15.9c1.6-3.8,7.8,0,0,4.9C14.7,15.9,20.9,12,22.5,15.9"/>
	</g>
</g>
<g class="st0">
	<g class="st1">
		<path class="st2" d="M19.3,30.8c-8.4,0-15.3-6.9-15.3-15.4S10.9,0,19.3,0s15.3,6.9,15.3,15.4S27.8,30.8,19.3,30.8"/>
		<path class="st3" d="M14.7,5.1c3.4,0,6.1,2.7,6.1,6.1c0,2-1,3.8-2.5,4.9c4.3,1.4,7.4,5.3,7.8,9.9h-1.7c-0.4-4.3-3.7-7.8-7.9-8.6
			v-2.2c1.6-0.7,2.7-2.2,2.7-4c0-2.4-2-4.4-4.4-4.4c-2.4,0-4.4,2-4.4,4.4c0,1.8,1.1,3.3,2.7,4v2.2C8.7,18.2,5.4,21.7,5,26H3.3
			c0.3-4.6,3.5-8.5,7.8-9.9c-1.5-1.1-2.5-2.9-2.5-4.9C8.5,7.8,11.3,5.1,14.7,5.1"/>
		<path class="st4" d="M21.9,19.4c1.6-4.1,7.9,0,0,5.2C14,19.4,20.3,15.3,21.9,19.4"/>
	</g>
</g>
<g class="st0">
	<g class="st1">
		<path class="st2" d="M22.5,30.8c-8.5,0-15.4-6.9-15.4-15.4S14,0,22.5,0s15.4,6.9,15.4,15.4S31,30.8,22.5,30.8"/>
		<path class="st3" d="M21.3,4.7c2.8,0,5.1,2.3,5.1,5.1c0,1.5-0.6,2.8-1.6,3.8c3.2,1.3,5.6,4.4,5.7,8.1V22h-2.1c0-3.6-2.6-6.5-6.1-7
			v-2.2c1.2-0.4,2.1-1.6,2.1-2.9c0-1.7-1.4-3-3.1-3c-1.6,0-3,1.3-3,2.9v0.2l0.1,0.1c1.2,0.9,2,2.4,2,4c0,1.4-0.6,2.8-1.6,3.7
			c3.2,1.3,5.6,4.5,5.7,8.2V26h-2.1c0-3.6-2.6-6.5-6.1-7v-2.3c1.2-0.4,2.1-1.6,2.1-2.9c0-1.7-1.4-3.1-3-3.1c-1.7,0-3.1,1.4-3.1,3.1
			c0,1.3,0.9,2.4,2.1,2.9V19c-3.4,0.5-6,3.3-6.1,6.8V26H6.1c0-3.8,2.4-7.1,5.7-8.5c-1-0.9-1.6-2.2-1.6-3.7c0-1.6,0.8-3.1,1.9-4
			l0.1-0.1c0-1.7-1.3-3-3-3c-1.7,0-3.1,1.4-3.1,3c0,1.3,0.9,2.4,2.1,2.9V15c-3.4,0.5-6,3.3-6.1,6.8V22H0c0-3.8,2.4-7.1,5.7-8.4
			c-1-0.9-1.6-2.3-1.6-3.8c0-2.8,2.3-5.1,5.1-5.1c2.5,0,4.6,1.8,5,4.2c0.3-0.1,0.7-0.1,1.1-0.1c0.3,0,0.7,0,1.1,0.1
			C16.8,6.5,18.9,4.7,21.3,4.7"/>
		<path class="st4" d="M22,21.7c1.6-4,7.8,0,0,5.1C14.2,21.7,20.4,17.7,22,21.7"/>
	</g>
</g>
<g>
	<g>
		<path class="st2" d="M19.7,30.8c-8.5,0-15.4-6.9-15.4-15.4S11.2,0,19.7,0s15.4,6.9,15.4,15.4S28.2,30.8,19.7,30.8"/>
		<path class="st3" d="M7.7,9.1c0,0.1-0.1,0.3-0.1,0.4C7.5,9.6,7.4,9.6,7.3,9.7C7.2,9.8,7,9.8,6.9,9.7c-0.1,0-0.3-0.1-0.4-0.2
			C6.4,9.5,6.4,9.3,6.3,9.2c0-0.1,0-0.3,0.1-0.4c0.1-0.1,0.1-0.3,0.3-0.3C6.8,8.4,6.9,8.3,7,8.3c0.2,0,0.4,0.1,0.5,0.2
			C7.7,8.7,7.7,8.9,7.7,9.1 M7.7,11.9c0,0.2-0.1,0.3-0.1,0.4c-0.1,0.1-0.2,0.2-0.3,0.3c-0.1,0.1-0.3,0.1-0.4,0.1
			c-0.1,0-0.3-0.1-0.4-0.2c-0.1-0.1-0.2-0.2-0.2-0.4c0-0.2,0-0.3,0.1-0.4c0.1-0.1,0.1-0.2,0.3-0.3c0.1-0.1,0.3-0.1,0.4-0.1
			c0.2,0,0.4,0.1,0.5,0.2C7.7,11.5,7.7,11.7,7.7,11.9 M7.7,14.7c0,0.1-0.1,0.3-0.1,0.4c-0.1,0.1-0.2,0.2-0.3,0.3
			c-0.1,0.1-0.3,0.1-0.4,0.1c-0.1,0-0.3-0.1-0.4-0.2c-0.1-0.1-0.2-0.2-0.2-0.4c0-0.1,0-0.3,0.1-0.4c0.1-0.1,0.1-0.2,0.3-0.3
			C6.8,14.1,6.9,14,7,14c0.2,0,0.4,0.1,0.5,0.2C7.7,14.4,7.7,14.6,7.7,14.7 M12,9.1c0,0.1-0.1,0.3-0.1,0.4c-0.1,0.1-0.2,0.2-0.3,0.3
			c-0.2,0.1-0.3,0.1-0.4,0c-0.1,0-0.3-0.1-0.4-0.2c-0.1-0.1-0.2-0.2-0.2-0.4c0-0.1,0-0.3,0.1-0.4c0.1-0.1,0.1-0.3,0.3-0.3
			c0.1-0.1,0.3-0.1,0.4-0.1c0.2,0,0.4,0.1,0.5,0.2C11.9,8.7,12,8.9,12,9.1 M12,11.9c0,0.2-0.1,0.3-0.1,0.4c-0.1,0.1-0.2,0.2-0.3,0.3
			c-0.1,0.1-0.3,0.1-0.4,0.1c-0.1,0-0.3-0.1-0.4-0.2c-0.1-0.1-0.2-0.2-0.2-0.4c0-0.2,0-0.3,0.1-0.4c0.1-0.2,0.1-0.2,0.3-0.3
			c0.1-0.1,0.3-0.1,0.4-0.1c0.2,0,0.4,0.1,0.5,0.2C11.9,11.5,12,11.7,12,11.9 M12,14.7c0,0.1-0.1,0.3-0.1,0.4
			c-0.1,0.1-0.2,0.2-0.3,0.3c-0.2,0.1-0.3,0.1-0.4,0.1c-0.1,0-0.3-0.1-0.4-0.2s-0.2-0.2-0.2-0.4c0-0.1,0-0.3,0.1-0.4
			c0.1-0.1,0.1-0.2,0.3-0.3c0.1-0.1,0.3-0.1,0.4-0.1c0.2,0,0.4,0.1,0.5,0.2C11.9,14.4,12,14.6,12,14.7 M17.7,11.9
			c0-0.1,0.1-0.3,0.1-0.4c0.1-0.1,0.2-0.2,0.3-0.3c0.1-0.1,0.3-0.1,0.4,0c0.1,0,0.3,0.1,0.4,0.2s0.2,0.2,0.2,0.4
			c0,0.1,0,0.3-0.1,0.4c-0.1,0.1-0.1,0.3-0.3,0.3c-0.1,0.1-0.3,0.1-0.4,0.1c-0.2,0-0.3-0.1-0.5-0.2C17.8,12.3,17.7,12.1,17.7,11.9
			 M19.1,14.7c0,0.1-0.1,0.3-0.1,0.4c-0.1,0.1-0.2,0.2-0.3,0.3c-0.1,0.1-0.3,0.1-0.4,0.1c-0.2,0-0.3-0.1-0.4-0.2
			c-0.1-0.1-0.2-0.2-0.2-0.4c0-0.1,0-0.3,0-0.4c0.1-0.1,0.2-0.2,0.3-0.3c0.1-0.1,0.3-0.1,0.4-0.1c0.2,0,0.4,0.1,0.5,0.2
			C19,14.4,19.1,14.6,19.1,14.7 M21.2,23.2h-5.7V9.8h5.7V23.2z M14.1,23.2H12v-3.6c0-0.4-0.2-0.7-0.4-1c-0.3-0.3-0.6-0.4-1-0.4H7.7
			c-0.4,0-0.8,0.2-1,0.4c-0.3,0.3-0.4,0.6-0.4,1v3.6H4.2v-17h9.9V23.2z M10.6,23.2H7.7v-3.6h2.8V23.2z M21.2,8.3h-5.7V6.2
			c0-0.4-0.2-0.7-0.4-1c-0.3-0.3-0.6-0.4-1-0.4H4.2c-0.4,0-0.7,0.2-1,0.4c-0.3,0.3-0.4,0.6-0.4,1v17c0,0.4,0.2,0.7,0.4,1
			c0.3,0.3,0.6,0.4,1,0.4h17c0.4,0,0.7-0.2,1-0.4c0.3-0.3,0.4-0.6,0.4-1V9.8c0-0.4-0.2-0.8-0.4-1C21.9,8.5,21.6,8.3,21.2,8.3"/>
		<path class="st4" d="M22,17.6c1.6-3.9,7.9,0,0,5C14.1,17.6,20.4,13.7,22,17.6"/>
	</g>
</g>
</svg>
