<svg xmlns="http://www.w3.org/2000/svg" width="14.298" height="14.298" viewBox="0 0 14.298 14.298">
    <defs>
        <style>
            .cls-1{fill:#0063c3}
        </style>
    </defs>
    <g id="Group_512" data-name="Group 512" transform="translate(-4.079 -4.079)">
        <path id="Path_999" d="M11.228 5.367c1.909 0 2.135.007 2.889.042a3.957 3.957 0 0 1 1.328.246A2.368 2.368 0 0 1 16.8 7.012a3.957 3.957 0 0 1 .246 1.327c.034.754.042.98.042 2.889s-.007 2.135-.042 2.889a3.957 3.957 0 0 1-.246 1.328 2.368 2.368 0 0 1-1.356 1.355 3.957 3.957 0 0 1-1.328.246c-.754.034-.98.042-2.889.042s-2.135-.007-2.889-.042a3.957 3.957 0 0 1-1.326-.246 2.368 2.368 0 0 1-1.357-1.357 3.957 3.957 0 0 1-.246-1.327c-.034-.754-.042-.98-.042-2.889s.007-2.135.042-2.889a3.957 3.957 0 0 1 .246-1.328 2.368 2.368 0 0 1 1.357-1.355 3.957 3.957 0 0 1 1.327-.246c.754-.034.98-.042 2.889-.042m0-1.288c-1.942 0-2.185.008-2.948.043a5.248 5.248 0 0 0-1.735.332 3.656 3.656 0 0 0-2.091 2.091 5.248 5.248 0 0 0-.332 1.735c-.035.762-.043 1.006-.043 2.948s.008 2.185.043 2.948a5.247 5.247 0 0 0 .332 1.735A3.656 3.656 0 0 0 6.545 18a5.247 5.247 0 0 0 1.735.332c.762.035 1.006.043 2.948.043s2.185-.008 2.948-.043A5.247 5.247 0 0 0 15.911 18 3.656 3.656 0 0 0 18 15.911a5.247 5.247 0 0 0 .332-1.735c.035-.762.043-1.006.043-2.948s-.008-2.185-.043-2.948A5.247 5.247 0 0 0 18 6.545a3.656 3.656 0 0 0-2.091-2.091 5.247 5.247 0 0 0-1.735-.332c-.762-.035-1.006-.043-2.948-.043z" class="cls-1" data-name="Path 999"/>
        <path id="Path_1000" d="M130.306 126.635a3.671 3.671 0 1 0 3.671 3.671 3.671 3.671 0 0 0-3.671-3.671zm0 6.054a2.383 2.383 0 1 1 2.383-2.383 2.383 2.383 0 0 1-2.383 2.383z" class="cls-1" data-name="Path 1000" transform="translate(-119.078 -119.078)"/>
        <circle id="Ellipse_51" cx=".858" cy=".858" r=".858" class="cls-1" data-name="Ellipse 51" transform="translate(14.186 6.554)"/>
    </g>
</svg>
