<svg xmlns="http://www.w3.org/2000/svg" width="18.324" height="12.91" viewBox="0 0 18.324 12.91">
    <g id="Group_511" data-name="Group 511" transform="translate(-8 -34)">
        <path id="Path_997" fill="#0063c3" d="M25.941 36.016a2.3 2.3 0 0 0-1.62-1.631A54.4 54.4 0 0 0 17.162 34a54.4 54.4 0 0 0-7.162.385 2.3 2.3 0 0 0-1.62 1.631 25.922 25.922 0 0 0 0 8.878A2.3 2.3 0 0 0 10 46.525a54.4 54.4 0 0 0 7.159.385 54.4 54.4 0 0 0 7.159-.385 2.3 2.3 0 0 0 1.62-1.631 25.922 25.922 0 0 0 0-8.878z" data-name="Path 997"/>
        <path id="Path_998" fill="#fff" d="M78 75.28v-5.449l4.789 2.725z" data-name="Path 998" transform="translate(-62.712 -32.101)"/>
    </g>
</svg>
