<svg xmlns="http://www.w3.org/2000/svg" width="22.137" height="18" viewBox="0 0 22.137 18">
    <g id="Logo_FIXED" data-name="Logo — FIXED" transform="translate(-75.1 -98.4)">
        <g id="Group_12" data-name="Group 12" transform="translate(75.1 98.4)">
            <path id="Path_1" fill="#0063c3" d="M82.054 116.4a12.841 12.841 0 0 0 12.924-12.924c0-.195 0-.39-.009-.585a9.254 9.254 0 0 0 2.268-2.356 9.206 9.206 0 0 1-2.613.718 4.57 4.57 0 0 0 2-2.516 9.035 9.035 0 0 1-2.888 1.1 4.544 4.544 0 0 0-7.857 3.109 5.021 5.021 0 0 0 .121 1.035 12.9 12.9 0 0 1-9.363-4.748 4.561 4.561 0 0 0 1.408 6.068 4.6 4.6 0 0 1-2.055-.567v.062a4.552 4.552 0 0 0 3.641 4.456 4.568 4.568 0 0 1-2.046.08 4.542 4.542 0 0 0 4.243 3.154 9.11 9.11 0 0 1-5.643 1.949 8.74 8.74 0 0 1-1.081-.062 12.921 12.921 0 0 0 6.954 2.029" data-name="Path 1" transform="translate(-75.1 -98.4)"/>
        </g>
    </g>
</svg>
