<svg xmlns="http://www.w3.org/2000/svg" id="Group_3_Copy_2" width="29.124" height="20" data-name="Group 3 Copy 2" viewBox="0 0 29.124 20">
    <defs>
        <clipPath id="clip-path">
            <path id="Clip_2" d="M0 0h29.124v20H0z" class="cls-1" data-name="Clip 2"/>
        </clipPath>
        <style>
            .cls-1{fill:none}
        </style>
    </defs>
    <path id="Clip_2-2" d="M0 0h29.124v20H0z" class="cls-1" data-name="Clip 2"/>
    <g id="Group_3_Copy_2-2" clip-path="url(#clip-path)" data-name="Group 3 Copy 2">
        <path id="Fill_1" fill="#ff0100" d="M14.562 20c-.092 0-9.188-.007-11.428-.572a3.56 3.56 0 0 1-2.555-2.523A38.558 38.558 0 0 1 0 10a38.849 38.849 0 0 1 .579-6.9A3.563 3.563 0 0 1 3.134.572C5.422.007 14.471 0 14.562 0s9.187.007 11.428.572A3.563 3.563 0 0 1 28.545 3.1a34.351 34.351 0 0 1 .578 6.9 38.915 38.915 0 0 1-.578 6.905 3.56 3.56 0 0 1-2.555 2.524c-2.29.565-11.337.571-11.428.571zM11.668 5.667v8.667L19.238 10z" data-name="Fill 1"/>
    </g>
</svg>
