<svg xmlns="http://www.w3.org/2000/svg" id="prefix__Group_8_Copy" width="24" height="24" data-name="Group 8 Copy" viewBox="0 0 24 24">
    <defs>
        <clipPath id="prefix__clip-path">
            <path id="prefix__Clip_2" d="M0 0h24v24H0z" class="prefix__cls-1" data-name="Clip 2"/>
        </clipPath>
        <style>
            .prefix__cls-1{fill:none}.prefix__cls-3{fill:#fff}
        </style>
    </defs>
    <g id="prefix__Group_3" data-name="Group 3">
        <path id="prefix__Clip_2-2" d="M0 0h24v24H0z" class="prefix__cls-1" data-name="Clip 2"/>
        <g id="prefix__Group_3-2" clip-path="url(#prefix__clip-path)" data-name="Group 3">
            <path id="prefix__Fill_1" d="M12 24c-3.258 0-3.677 0-4.953-.051a8.457 8.457 0 0 1-2.91-.561 5.743 5.743 0 0 1-2.145-1.379 5.743 5.743 0 0 1-1.379-2.145 8.456 8.456 0 0 1-.561-2.91C0 15.677 0 15.258 0 12s0-3.677.051-4.953a8.457 8.457 0 0 1 .561-2.91 5.743 5.743 0 0 1 1.379-2.146A5.743 5.743 0 0 1 4.137.613a8.456 8.456 0 0 1 2.91-.562C8.323 0 8.742 0 12 0s3.677 0 4.953.051a8.457 8.457 0 0 1 2.91.561 5.743 5.743 0 0 1 2.145 1.379 5.743 5.743 0 0 1 1.379 2.145 8.456 8.456 0 0 1 .561 2.91C24 8.323 24 8.742 24 12s0 3.677-.051 4.953a8.456 8.456 0 0 1-.561 2.91 6 6 0 0 1-3.524 3.524 8.456 8.456 0 0 1-2.91.561C15.677 24 15.258 24 12 24zm0-21.855c-1.973 0-2.856.019-3.564.034-.444.009-.794.017-1.287.017A7 7 0 0 0 4.9 2.6a4.37 4.37 0 0 0-1.379.919A3.146 3.146 0 0 0 2.6 4.9v.006a7.317 7.317 0 0 0-.4 2.242C2.15 8.425 2.15 8.764 2.15 12s0 3.574.05 4.851a7 7 0 0 0 .4 2.249 4.355 4.355 0 0 0 .919 1.378A3.141 3.141 0 0 0 4.9 21.4h.006a7.3 7.3 0 0 0 2.241.406c1.277.051 1.616.051 4.852.051s3.574 0 4.851-.051a6.987 6.987 0 0 0 2.25-.406 4.306 4.306 0 0 0 1.378-.92 3.132 3.132 0 0 0 .922-1.38v-.006a7.3 7.3 0 0 0 .406-2.242c.051-1.276.051-1.615.051-4.851s0-3.574-.051-4.852A6.985 6.985 0 0 0 21.4 4.9a4.321 4.321 0 0 0-.92-1.379A3.137 3.137 0 0 0 19.1 2.6h-.006a7.318 7.318 0 0 0-2.243-.4c-1.277-.055-1.615-.055-4.851-.055z" class="prefix__cls-3" data-name="Fill 1"/>
        </g>
    </g>
    <path id="prefix__Fill_4" d="M6.372 12.746A6.378 6.378 0 0 1 1.863 1.863a6.378 6.378 0 0 1 9.019 9.019 6.334 6.334 0 0 1-4.51 1.864zm0-10.586a4.16 4.16 0 1 0 4.161 4.161A4.138 4.138 0 0 0 6.372 2.16z" class="prefix__cls-3" data-name="Fill 4" transform="translate(5.627 5.676)"/>
    <path id="prefix__Fill_6" d="M1.382 0A1.382 1.382 0 1 1 0 1.382 1.382 1.382 0 0 1 1.382 0" class="prefix__cls-3" data-name="Fill 6" transform="translate(17.081 4.206)"/>
</svg>
